<?xml version="1.0" encoding="utf-8"?>
<!-- Generator: Adobe Illustrator 26.2.1, SVG Export Plug-In . SVG Version: 6.00 Build 0)  -->
<svg version="1.1" id="Layer_1" xmlns="http://www.w3.org/2000/svg" xmlns:xlink="http://www.w3.org/1999/xlink" x="0px" y="0px"
	 viewBox="0 0 800 800" style="enable-background:new 0 0 800 800;" xml:space="preserve">
<style type="text/css">
	.st0{fill:#191919;}
	.st1{fill:#C7C7C7;}
	.st2{fill:#F2F2F2;}
	.st3{fill:#DEDEDE;}
	.st4{fill:#C8C8C8;}
	.st5{fill:#E1E1E1;}
	.st6{fill:#D6D6D6;}
	.st7{fill:#C6C6C6;}
	.st8{fill:#C9C9C9;}
	.st9{fill:#CBCBCB;}
	.st10{fill:#2F2F2F;}
	.st11{fill:#323232;}
	.st12{fill:#D1D1D1;}
	.st13{fill:#CDCDCD;}
	.st14{fill:#DB0E0E;}
</style>
<g>
	<path class="st0" d="M-971.4,728.1c4-3.5,8-7,12-10.5c2.5-1.7,5.2,0.3,7.7-0.6c5.5,3.9,5.5,4.7,0.6,10.3c2.9,2.1,6.8,2.6,8.9,6.1
		c1.3,2.1,2.7,0.6,3.7-0.4c4.7-4.6,9.1-9.5,9.5-16.6c1.2-1.6,2.7-2.8,4.5-3.5c5-0.6,7.9,2.2,8.3,6.6c0.3,3.6,2.2,5.6,4.3,8
		c1.2,1.4,2.6,2.6,4.1,1.2c5.7-4.9,9.4-0.4,12.9,2.9c2.6,2.5,4.9,5,8.7,5c-5.1-2.6-8.8-8.9-7.9-14.1c0.8-4.4,3.2-4.2,6.6-2.4
		c2.8,1.5,5.9,4.2,9.1,0.6c0.4-0.5,0.8-0.9,1.1-1.4c1.9-3.3,0.4-8.3,4.9-10.3c0.6-0.4,1.1-0.8,1.7-1.2c4.4-2.7,10.6-0.6,14-6.4
		c1.4-2.4,8.3,0.8,9,4.2c0.7,4,1.9,7.7,4.2,11c0.5,0.8,0.4,1.6,0,2.5c1.4-2,3.1-3.6,4.5-5.5c2-2.9,5.1-4.1,8.3-2.4
		c3.3,1.7,4.3,4.8,3.1,8.5c-0.3,0.9-0.8,1.7-0.6,2.3c-0.2,1.3,0.8,0.7,0,0.6c-0.1,0,0-0.2,0-0.5c0.2-3,2.5-4.7,4.7-6.2
		c3.1-2.1,6.5-3.5,9.7-5.5c3.1-2,5.9-0.6,7.6,2.4c1.4,2.4,2.7,5,3.8,7.6c1.5,3.3,0.9,7.3,6,8.9c2.7,0.9,0.7,4.1-1.2,5.9
		c-7.2,6.7-7.8,16.1-1.7,23.6c2.7,3.2,4.2,6.9,2.2,10.9c-1.8,3.6-5.2,3.9-8.8,3.3c-1.6-0.3-3.2-0.7-3.6,1.5
		c-0.6,3.1-3.5,3.6-6.2,5.3c5.5,2.6,12.1,3.9,13.6,10c0.8,3.1-2.2,6.5-4.9,9c-12.5,0.8-25,2.6-36.4,2c2.6,2.2,8.1,1.3,10.6,6
		c-0.5,1.8-2.8,2.5-2.7,4.6c0-1.5,1-2.4,2-3.3c2.3-2.4,5.2-1.3,7.2-0.4c8.1,3.3,16.1,1.7,24.2,0.7c2.3-0.3,4.7-1.1,7,0.2
		c1.9,6.5,4.5,11.7,12.9,10.8c2-0.2,3.8,2.4,5.4,3.8c2.2,2.1,4.2,2.4,6.7,1.2c0.8-0.4-0.6-1.1-0.1-0.4c0.1,0.1,0,0.2-0.1,0.3
		c-4.3,3.2-7.5-0.9-8.8-3c-3.3-5-3.8-11-2.1-17c2.8-3,5.9-2.2,8.9-0.4c5.8,3.4,10.5,7.8,11.1,14c-2.8-6.1-4.8-13.3-1.9-21
		c0.6-1.6-0.1-3.5-1.2-4.9c-2.8-3.5-1.5-6.4,1.4-9.1c0.7-0.8,1.6-1,2.5-1c2.4,2.6,4.7,3.9,8,0.8c2.4-2.2,5.7-1.9,8.6,0
		c2.7,1.8,3,4.6,2.8,7.6c-1.2,14.6,6.6,26.3,20.6,30.1c5.2,1.4,7.4,4.2,7.3,9.3c0,1.8,0.1,3.5,0.5,5.2c1.3,5.2-1,8.6-5.5,10.5
		c-4,1.7-6.6,3.9-7.1,8.5c-0.3,3-2.2,4.7-5.7,4.8c-5.4,0.2-10.8,0.1-16.2,1.3c-2.4,0.5-5.8-0.3-5.8-2.6c-0.1-3.4-3.2-6.7-0.8-9.9
		c2-2.6,6.5-4.5,3.3-8.5c-3.1-4-7.4-2.5-11.2-0.9c-0.4,2,1.2,2.5,1.9,3.5c3.2,5,1.5,9.3-4.3,10.3c-11.4,1.9-22.3-1.7-29.4-14.2
		c-0.5-1-0.8-2.2-2.2-2.1c-1.8,0.1-2.7,1.4-3.3,2.9c-1.4,3.4-1.9,7.2-4.7,10c-0.9,0.9-1.5,2.2-2.7,2.8c-5.9,3.5-23.9,0.5-28.3-4.8
		c-3-3.5-2.8-6.4,1.3-8.2c-2.1,1.3-4.4,1.9-6.4-1c-1.5-2.1-3.3-4.2-5.7-5.4c-3.2-1.8-4.7-4.4-4.7-8c0-2.6-0.9-5.2-1.1-7.8
		c-0.3-4.2-3.4-4-6.3-3.6c-1.9,0.3-0.4,2.1-0.7,3.2c-1,4.6-3.1,8.2-7.9,9.6c-3.9,1.2-7.7,0.5-10.1-2.7c-2.2-2.9-1.8-6.3,0.2-9.4
		c1.6-2.5,2.6-5.3,1.5-7.9c1.3,4.6-1.1,8.2-4.7,11.2c-3.2,2.6-5.5,0.4-6.8-2.3c-1.6-3.1-3.5-6.6-3.2-9.9c0.8-7.7-3.5-12.3-8.5-16.7
		c-0.8-0.7-1.5-1.6-2.3-2.4c4.7,7.9,3.3,14-3.8,16c-7.1,2-7.9,3.2-7.9,13c-7.9,2.8-7.9,2.8-14.6-7.4c3.6,4.5,3.1,9.5,0.2,13.8
		c-2.7,4-6.8,6.4-12.2,5c-1.6-2.2-3-4.3-5.5-5.9c-4.5-2.8-4.7-7.3-2.6-11.7c1.1-2.3,0-1.3-1.1-1.4c-5.2-0.2-13.7-8.2-13.8-12.4
		c0-2.3,1.1-3.6,2.3-5.2c1.2-1.5,2.6-2.9,3-3.7c-6.9,4-4.2,13.5-9,19.6c-4.1,3.8-9.3,3.9-14.4,4.4c-2.8-1-4.8-4.2-8.7-2.2
		c-1.5,0.7-4.1-0.3-4.8-2.9c-0.8-2.8-0.4-5.1,2.1-6.6c2.7-1.6,4.2-4.3,6.3-6.4c9.6-9.8,1.7-18.2-1.6-27c-0.9-2.3-3.6-3.5-6-3.3
		c-7.8,0.8-15.8,1.5-21.3,8.2c-2.9,3.5-6.4,5.9-10.7,7.2c-3.5,1-5.2-0.1-4.6-3.9c5.5-5.1,11-10.3,16.4-15.4
		c10.7-5.2,18.2-14,26.1-22.4C-981.5,731.6-975.5,731.9-971.4,728.1z"/>
	<path class="st0" d="M-922.8,716.2c-1.3,0.9-2.6,1.8-4,2.6c-1.4,1.2-2.4,3.2-4.9,2.3c-2.5-0.9-3,1.4-3.8,2.9
		c-0.4,0.5-0.8,1-1.4,1.3c-5.9,0.1-9-6.4-14.8-6.5c-2.6-0.4-5.2-0.8-7.7-1.2c5-2.8,10.5-4,16-4.9c5-0.8,9.2-2.3,12.7-5.8
		c0.7,0.1,1.1,0.5,1.3,1.1c0,0.5-0.1,1-0.4,1.2c-0.8,0.3-1.1,1.1-0.4,0.6s-0.2,0.6,0.1-0.2c1.2-3.7,5.1-4.7,7.2-7.3
		c3.8-4.8,8.2-3.5,12.2-1.1c9.5,5.5,29.2,4,35.4-4.5c2.3-3.2,5.3-3.2,8.6-2.2c4.3,1.3,8.2,0.8,11.5-2.5c2.3-2.3,5.3-3.2,8.2-4.1
		c6.8-2,11.3-6.3,14.4-12.5c2.8-5.6,6.8-10.1,11.9-13.8c4.3-3.1,7-7.7,9.5-12.4c2.6-5.1,5.4-10.2,11.9-11.2c2.1-0.3,4.6-1.9,6.2,0.9
		c1.6,2.8,1.8,5.5-1.4,7.6c-0.1,0.1-1,0.8-1.1,1.4c4-4.3,8-8.6,8-14.5c-10.6,3.2-19.7,9.5-29.9,13.6c-2.2,0.9-4.6,1.8-6.2-0.7
		c-1.4-2.2-0.7-4.5,1-6.5c2.5-3,4-6.8,6.6-9.8c1.8-2.4,3.4-4.9,5-7.5c1.3-1.9,2.7-4.5,6-4c3,0.4,5.3-2,5.5-4.2
		c0.2-1.9-0.7-5-3.4-6.1c-0.1-0.1-0.5,0.3-0.6,0.2c-4.3-2.9,0.2-7.4-1-9.1c-1.8-2.4-6.9-2.5-2.7-7.2c8-7.1,11.4-17,15.7-26.3
		c1.5-3.3,2.8-6.8,4.2-10.2c4.4-0.6,7.2-2.6,7.6-7.5c0.3-4.5,3.9-6.8,7.3-9.1c1.9-1.2,3.5-0.2,4.9,0.9c2.9,2.3,6,2.9,9.8,2.4
		c5.7-0.8,8.1,1.6,6.4,7.3c-2.3,7.3-1.3,12.3,3.2,19.2c4.3,6.6,9.1,15.3,5.5,24.8c-0.8,2.1,0.2,5.2,1.3,7.1
		c2.6,4.5,1.4,8.3-0.4,12.4c-2.4,5.5-1.2,11.9-4.6,17.2c-1.6,2.5-3.2,4.8-6,5.8c-0.8,0.4,0.7,0.9,0.1,0.3c-0.2-0.2-0.2-0.5,0-0.5
		c3.2-0.7,5-3.1,6-5.8c1.3-3.8,4.1-6.3,7-8.8c4.6-3.8,12.7-2.5,16.1,2.8c0.7,1.6,0.7,3,0,4.8c-2.5,6.2-5.7,12.7,0.7,18.7
		c0.6,0.6,0.5,2,0.6,3.1c0.1,0.8-0.2,1.4-0.7,2c-1.3,1.8-2.2,3.8-3.1,5.8c-0.6,4.4,1.6,8.7-0.4,13.4c-0.6,1.3,2.7,5.1,5.5,6.7
		c5.8,3.3,8.4,9.1,6.9,15.6c-0.5,2.2-1.8,3.6-4.1,3.5c-2.4-0.1-4.6,0.7-7,0.7c-5.7,0.1-10.1,4.2-15.5,5.3c-4.1,0.9-8,3.9-12.4,0.8
		c-4.9-1.2-5.3-1-5.8,3.3c-0.2,2.3-1,4.2-2.5,6.1c-2.8,3.3-3.5,7.3-3.5,11.7c0.1,7.7-3.7,10.2-10.5,7.2c-1.5-0.7-3.2-0.3-4.6-1.4
		c1,1.4,2.7,0.5,4,1.4c4.7,3.3,11,1.1,11.9-4.8c1.1-7.2,3.6-13.9,5-21c0.7-3.8,2.5-4.2,5.5-2.7c3.1,1.6,4.6,4.1,4.9,7.8
		c0.3,4,1.8,7.2,6.9,6.8c4.2-0.3,5.9,2.9,6.6,6.1c1,3.9,2.9,8,0.1,11.9c-0.9,1.3-2.6,2.5-3.9,1.8c-5.7-3.4-6.4,1-7.6,4.6
		c-1.8,5.5-6.5,8.7-10.1,12.7c-6.9,7.6-7.3,8.1-2.2,16.8c1.4,2.3,2.2,4.6-0.1,6.4c-2.1,1.7-3.3,6.2-7.5,3.2c-1.1-1-2-2.2-3.2-3
		c1.2,0.9,2.2,2,3.2,3c0.8,0.9,0.7,1.7-0.1,2.6c-3.9,1.5-2.1,7.6-6.8,8.5c-2.3,1.2-4.6,2.3-7.3,2.7c-4.1,0.5-4.8,0.1-6.5-4.4
		c-0.1-0.9-0.5-1.6-1.1-2.2c0.6,0.5,0.9,1.1,1.1,1.9c0.3,3.4-2.5,4.3-4.6,5.7c-3.2,0.7-6.9-4.6-9.7,0.9c-0.7,0.3-1.3,0.5-2,0.5
		c-1.6-0.2-3.8,0.8-4.2-1.9c2.7-8.3,1.8-9.7-6.9-11.2c-2.4-0.4-4.7-1.1-6.7-2.4c-2.4-1.6-2.9-3.7-1.8-6.3c0.9-2.1,2.2-3.9,5-2.9
		c3.7,1.3,4.4,0.3,2.9-3.3c-1.4-3.5-0.1-4.6,3.4-3.2c0.8,0.3,1.5,0.9,2.3,1.2c3.1,1,7,2.9,8.5-1.4c1.5-4.2-1.1-6.5-5.7-6.2
		c-3.1,0.2-2.2-1.9-1.8-3.6c1.2-5.5,2.9-11-1-16.4c-1.7-2.4,0.2-3.9,2.4-5.1c2-1.1,4.8-1,6-3.6c-1.8-2.2-4.3,0.2-6.5-1.4
		c0.3-2.6,3.5-5.2,1.6-8.2c-1.8-3-1.6-7.9-6.2-8.3c-4-0.4-13,7.2-13.2,10.6c-0.2,3-1,5.8-4.2,5.3c-3.4-0.5-1.1-3.5-1.2-5.4
		c0-1.3,0.2-2.6,0.1-3.9c-0.2-2.3,0-5.1-2.9-6.1c-2.4-0.8-4,1-5.8,2.4c-3.3,2.5-5.3,6.8-10.1,8c-0.7-3.9,2.5-5.3,3.7-7.6
		c1.3-2-0.3-4.3,1-6.5c1.5-2.8,3.7-6.4,0.9-9c-2.5-2.3-6.5-0.7-9.6,0c-2.2,0.5-4.8,1.7-6.5,3.7c-2.8,3.3-6.6,5.3-10.7,6.6
		c-1.8,1-3,2.3-2.1,4.6c1.5,3.5-0.3,5.6-3.2,7.2l0,0c-5.3,0.7-9.2-2.4-12.9-5.3c-3.2-2.5-5.8-2.6-8.5,0.3c-1.9,2.1-4.1,3.9-6.2,5.8
		c-2,1.9-4.6,5-7.1,3.8c-2.8-1.3-5.6-4.2-5.4-8C-915.2,714.8-918.5,714.8-922.8,716.2z"/>
	<path class="st0" d="M-930.6,708.3c0-0.5,0-1-0.1-1.5c11-21.2,23.4-41.4,40.5-58.4c0.8-0.8,1.7-1.5,2.2-2.5
		c3.7-7,9.5-10.9,17.3-11.2c12.4-0.5,19.1-9.4,26.6-17.2c4.2-4.4,8.4-8.9,11.3-14.4c1.3-2.4,2.9-5,6.2-5.5
		c1.8,4.8,1.5,10.5,7.4,13.5c2.2,1.1-2,11.6-5.2,11.8c-6.3,0.2-8.1,4.3-9.9,9c-0.3,0.8-0.8,1.5-1.2,1.8c1-1.1,1.6-2.7,2.3-4.5
		c1-2.6,2.6-5.3,5.6-5.8c1.8-0.3,4.2-1.5,5.8,0.8c1.7,2.3-0.1,4.1-1.2,5.8c-1.8,2.8-4.7,5-2.1,9c1.1,1.7-0.8,3.6-2,5.2
		c-6.1,7.9-11.6,16.4-17.6,24.2c-7.4,9.7-14.9,20.4-27.2,25.6c-4.1,1.7-6.9,6-11.2,7.8c-10.6,4.5-21.1,2.6-31.1-1.6
		c-3.5-1.5-5.3-0.6-7.4,1.4C-924.5,704.3-926.4,707.9-930.6,708.3z"/>
	<path class="st1" d="M-714.9,501.9c-1.8-6.4-4.2-12.5-9.2-17.2c0.8-3.8,1.4-4,6.3-1.5c3.3,0,5.8,0.6,8.4-3.5
		c2.1-3.4,6.9,0.5,10.2,2.3c1.2,2.1,1.5,4.2-0.1,6.2c-0.1,0.5-0.3,1.1-0.4,1.6c0,3.8,2.4,7.2,1.6,11c-2.6,4.4-1.1,11,3.3,15
		c0.6,0.2,1.2,0.4,1.8,0.5c2.2,5.4,6.4,9.4,9.2,14.3c2.8,4.9,8.5,6.8,10.8,11.9c2.1,4.8,5.5,8,10.5,9.7c1.1,0.6,2.3,1.1,3.4,1.6
		c3.3,2.2,4.1,6.5,7.1,8.8c0.7,0.6,2,1.5,3,0.7c0.8-0.6,1.5-1.7,0.6-2.8c-2.8-3.3-1.6-6.1,1.4-8.3c3.5-2.6,6.7-6.5,12.1-3.8
		c4.4,2.2,9,3.1,13.9,1.8c1.9-0.5,3.7-1.5,5.5-2.3c1.9-1.4,3.9-3.1,6.4-1.3s4.6,4.1,4.9,7.3c0.3,3.4-2.8,2.8-4.8,3.4
		c-6.4,4.1-6.4,4.1-1,10.5c0.2,1.4,0.7,2.7,1.2,4.1c3.1,7.5,2.2,10.9-3.3,14.5c-5,3.4-11.7,2.3-16.3-2.6c-1.2-2.2-3.2-3.8-4.3-5.2
		c0.6,0.8,2,1.9,3.1,3.3c0.9,1.3,1.5,2.6,1.5,4.2c-0.2,5.1,1.6,9.4,5.6,12.7c1.9,1.5,2.7,3.3,1.9,5.7c-0.8,2.3-2.6,2.5-4.7,2.7
		c-2.6,0.2-5.3,0.5-7.8,1.5c-1.9,0.8-3.3-0.1-4.3-1.6c0,0.5,0.3,0.5,0.5,0.7c2.6,2.1,2.4,4.7,1.3,7.6c-0.3,0.8,0,1.2-0.3,0.3
		c4.6-1,4.6,2.4,4.7,5.3c0.2,5.3-0.5,10.3-6.8,11.9c-0.6-0.2-1.2-0.5-1.7-0.7c-9.1-7.3-16.2-16.6-25.2-24.2
		c-4.7-3.9-4-11.6,0.2-14.5c3-1.8,6.5-2.4,9.4-4.5c2.6-2,3.3-4,1.1-6.5c-2.5-3-4.5-6.4-6.6-9.7c-0.1-5.1-2.2-7.4-7.7-6.3
		c-2,0.4-4.2,0.5-6.4,0c-2.1-1.5-4.7-2.5-6.1-4.6c-3.4-5-8.3-6.1-13.9-5.9c-1.7-1-2.6-2.7-3.4-4.5c-2.9-3.9-0.2-9.7-4.2-13.2
		c-3.1-1.7-0.3-4.8-1.7-7c2.5-9.1-6.1-13.9-8.3-21.1c-0.7-2.5-2.5-4.4-3.3-6.8C-715.5,502.9-715.4,502.4-714.9,501.9z"/>
	<path class="st0" d="M-746.4,612.3c2.9-12.8,3.8-25.4-1.8-37.9c-1.6-3.5-3.8-6.3-6.2-9.1c-3.7-4.2-6.2-8.7-1.2-13.8
		c1.2-1.2,2.2-3.1,0.5-4.7c-1.6-1.5-3.5-0.6-4.6,0.8c-3.3,4.2-4.8,1.4-6.5-1.5c-1.1-1.8-2.8-3.9-5.3-2.4c-1.9,1.2-4.1,2.2-4,5.4
		c0.3,9.2-2.4,10.6-11.7,6.5c5.1-8.9,9.7-18,15.3-26.5c4.5-6.8,11.1-11,16.4-16.6c2.6-2.1,6.2-1.5,8.9-3.5c2-1.4,5.7-1.6,6.4,0.2
		c1.2,2.9,1.8,6.7-1,9.7c-2.7,4-0.2,7.9,0.1,11.9c2.2,2.3,2.8,4.7,0.5,7.3c-1.4,1.6-2.3,3.5-3.1,5.5c-0.7,3.8-2.7,7.2-2.9,11.2
		c-0.7,8.4,4.4,15.2,6.7,22.7c3.4,10.9,3.6,21.8-0.9,32.5C-741.8,612.6-743.1,615-746.4,612.3z"/>
	<path class="st0" d="M-830.7,642.5c1.2-3.7,2.5-7.4,3.7-11.2c0.6-1.8,3.3-4.3-0.2-5.3c-2.5-0.8-3.6,2-4.1,4.2
		c-1.2,5.5-5.2,8.1-10.7,9.5c3.5-6.4,6.9-12.9,13.1-17.3c2-1.4,3.8-2.9,4.9-5.1c0.5-1,1.5-1.8-0.3-3.2c-6.9-5.5-7.3-8.9-2.6-16.2
		c5.9-3.8,13-3.8,19.5-5.6c2.5,4,5.7,3.1,8.9,1c1.5,2-0.1,3.1-0.8,4.3c-3.6,6.7-3.1,8.2,3.4,12.2c3.7,2.2,1.7,5.8-0.2,6.7
		c-7.7,3.9-11.7,11.5-17.8,16.9c-1.8-1-3.5-2-1.5-4.3c2.6-3.1,3.9-7.2,6.6-9.2c1.2-1.3,1.1,0.2,0.5-0.5c0-0.1-0.2,0-0.4,0.2
		c-5.5,7.2-10.3,14.9-16.3,21.7C-826.3,643-827.8,646-830.7,642.5z"/>
	<path class="st2" d="M-615,551.8c-1.5,1.4-3.1,2.4-5.2,2.5c-1.9-3.4-3.8-7.1-7.7-8.6c-2.8-1.1-1.7-4.4-4-5.5
		c-2.6-3.1-4.9-4.3-6.5,0.8c-7.4,2.2-14.8,4.8-22.1,7.2c-2.7,0.9-3.4-2.6-5.4-3.3c1.5-3.9-2.8-8.6,1.6-12.2c0.7-0.5,0,0.3,0.4-0.5
		c2.9-5.6,6.8-10.1,13.1-11.8c2.9-2,3.1-5.9,5.9-8c6.6-3.9,6.6-3.9,11.1,2.5c0.9,1.3,2.3,2.4,4.2,1.6c3-3.7,6.1-5.1,10-0.9
		c1,1.1,3.1,1.4,4.6,2c1.1-0.8,2-0.5,2.8,0.4c-1,5.2-2.9,10.4-2.7,15.8c-4,2.9-3.2,7-1.3,10C-614.3,546.7-614.4,549-615,551.8z"/>
	<path class="st3" d="M-701.7,487.3c0.9-1.8,1.8-3.6,2.7-5.4c3.5,1,7,1.9,10.4,2.9c4.3,2,8.4,4.5,13.2,5c4.8,2.2,9.7,4.4,14.5,6.5
		c1.9,2.4,5.3,3.5,6.5,6.4c2.1,5.2,0,8.9-5.9,11.5c-5.7,4.4-11.4,4.2-16.5-0.7c-4.8-4.6-10.2-6.7-16.9-6.3c-4.3,0.3-7.5-1.6-6.7-6.8
		c-1.2-3.4-2.4-6.9-3.7-10.2C-705.1,487.9-703.8,487.3-701.7,487.3c1.1,1.5,2.8,1.2,4.4,1.3C-698.9,488.5-700.6,488.8-701.7,487.3z"
		/>
	<path class="st4" d="M-572.8,526.8c4.2,4.7,8.4,9.4,9.4,16c0.8,1,2,1.8,1.2,3.3c-0.7,1.3-1.8,1.3-3,1c-8.6-1.8-15.8-6-21.1-13.1
		c6.1,8,6.1,8,3.8,11.9c-3.3,2.5-5.6,0-7.1-2.2c-4.7-6.5-9.5-12.6-17.9-14.6c-1-0.2-2.3-1.7-1.7-3.4c3.4-4.3,2.5-7.6-2.2-10.1
		c-2.3-1.2-3.9-3.3-5.6-5.2c-1.7-1.9-3.4-3.1-6-2.1c-1-1.5-2.2-3-0.8-4.7c1.3-1.6,3.2-1.3,4.9-0.7c1.2,0.4,2.6,0.9,3.5,1.7
		c8.2,7.5,18.2,11,29,12.6C-580.4,518-577.3,523.5-572.8,526.8z"/>
	<path class="st2" d="M-747.8,542.5c1.5-4.3,6.4-6.7,6.8-11.7c5.2,1.4,8.7,4.9,11.6,9.2c0,2.6-3.9,3.9-2.2,7
		c4.5,2.9,9.2,5.6,12.5,10c1.3,1.8,2.9,3.2,3.7,5.3c3.1,8,3.1,8-4.6,12.1c-1.4,0.4-2.7,1.7-4.4,0.8c-2-1.5-4.2-1.7-6.7-1.2
		c-2.5,0.6-4.8,0.1-6.2-2.5c-0.5-1-1.4-1.8-1-3c1.8-2.1-0.1-5.2,1.8-7.3c0.9-1.4,3.9-2.9-0.6-3.8c-1.1-0.2-2.6-0.8-3.9-1.2
		C-747.9,553.6-749.7,550-747.8,542.5z"/>
	<path class="st2" d="M-741.2,518.9c0-7.3-0.2-7.6-7-4.8c-3.1,1.3-4.9-1.2-7.4-1.6c6.9-6.3,13.8-12.6,20.8-18.9
		c1.5-1.4,3.5-3.9,5.5-1.8c1.9,2,4.5,4.6,2.4,8.1c-0.7,1.1-1.3,2.4-2.2,3.2C-734.2,507.5-737.2,513.5-741.2,518.9z"/>
	<path class="st2" d="M-693.6,554.2c-4-0.3-8.1-0.3-12.1-1.2c-3.5-0.7-7.1-2-8.1-6.3c5-4.3,5.2-6.8,0.7-11.1
		c-1.6-1.5-3.4-2.7-4.1-5.8c4.1,1.4,5.4,0.5,4-3.7c-2.5-7.9-5.3-15.9-1.7-24.2c0.1,0.4,0.1,0.7,0.2,1.1c4.1,9.4,7.3,19.1,12.8,27.9
		c0.9,2.2,1.8,4.4,2.7,6.6c-0.9,7.7-2.3,9.8,5.3,12.8C-693.9,551.6-693.7,552.9-693.6,554.2z"/>
	<path class="st5" d="M-629.5,516.5c-1.7,1.8-3.7,1.7-5.2,0c-2.7-3-5.7-2.7-8.9-1.3c-1.2,0.6-2.3,2.7-3.8,1c-2.1-2.4-6.3-2.2-7.4-5
		c-0.7-1.8-0.1-5.7,4-4.2c2.8,1.1,4.5,0.7,5.3-2.4c1-3.7,3.7-4.5,7.1-4.2c8.9,2.8,9.4,3.6,8.4,13
		C-630.2,514.4-629.8,515.5-629.5,516.5z"/>
	<path class="st1" d="M-638.5,500.4c-5.5,1.7-6.4,9.7-13.6,10.3c2.8,1.5,5.7,3,8.5,4.5c-1.6,3-1.3,6.9-4.4,9.2c-0.3,0-0.6,0-1,0
		c-4.2-3.2-5.1-9.9-11.6-10.6c-1.2-1.1-1-2.8-1.7-4.1c6.8-0.6,5.9-4.3,3.6-8.7c-0.8-1.5-1.5-3-2.2-4.6c4.9,1.7,11,1.5,12.2,9.7
		C-645.9,501.5-643.5,498-638.5,500.4z"/>
	<path class="st2" d="M-733.2,546.5c-0.6-3.2,0.8-5.2,3.7-6.4c2.5-7.2-0.2-14.7,1.2-22.2c4.1,7.6,8.1,15.2,9.1,23.9
		c-3.6,1.8-8.9-0.4-11.3,4.6C-731.3,547.7-732.2,547.5-733.2,546.5z"/>
	<path class="st2" d="M-623.1,508.3c1.1-3.5,3.3-3.1,5.5-1.3c4,3.4,8.3,6.5,11.7,10.5c1.8,2.1,6.2,6.3-1,8.2
		c-1.2,1.9-2.7,1.6-4.2,0.4c-2.8-1.7-2.9-4.3-2.5-7.2c-0.5-0.4-0.9-0.9-1.4-1.3C-617.6,514.5-620.4,511.4-623.1,508.3z"/>
	<path class="st1" d="M-675.4,489.9c-5.2,0.3-10-0.4-13.2-5C-683.6,484.9-679.6,487.8-675.4,489.9z"/>
	<path class="st2" d="M-450.3,675.4c0.3,0.5,0.7,1,1,1.5c-0.1,1.1-0.1,2.4-1.3,2.8c-11.2,3.2-10.4,14-13.9,22
		c-0.8,2.5-1.8,4.9-2.3,7.4c-1.8,9-1.9,9.1,6.5,13.2c4.2,2.1,4.1,5.6,3.9,9.3c-2.2,6.8,0.2,12.8,6,14.6c7,4.5,10,5.5,3,15.3
		c-2.1,2.9-1.5,8-6.7,8.4c-4.2-3.3-7.4-7.8-10.9-11.8c-1.7-2-1.5-5.3-0.9-8.1c0.5-3.2-1-6.2-1-9.3c0-2.7-1.8-2.5-3.4-2.9
		c-1.5-1.6-1.4-4.1-2.9-5.2c3.9,5.1,2.4,11.4,1.8,17.3c-0.3,2.7-3.5,2.7-5.4-0.3c-2.9-4.5-6.4-8.6-7.6-14.1c-0.3-1.5-0.6-4-3.4-3.6
		c-2.8,0.2-1.9,1.8-1.3,3.4c2.7,8.1-1.2,14.2-6.4,19.6c-1.8,1.9-3.7,3.7-5.4,5.7c-2.5,3-4.6,2-7.1-0.6c-7.6-7.8-11-18-14.8-27.5
		c-2.2-5.6-3.8-11.3-7.6-16.2c-0.6-0.7-0.6-1.7-0.6-2.4c-0.2-13.3-4-26.2-4.3-39.5c0-2-0.1-4.4,2.6-4.7c3.2-0.4,4.6,1.2,5.1,4.4
		c0.2,1-1.3,2.5,0.8,2.8c0.2-0.2-0.4-1-0.5-1.6c-0.8-3.5-2.1-7.7,2.7-8.6c4-0.7,3.7,3.9,4.9,6.2c-0.5-7.9-7.2-11-12.5-15.3
		c-0.6-0.3-1.1-0.8-1.5-1.3c-0.3-0.6-0.4-1.3-0.5-2c0-5.6-0.2-11.2,1.3-16.6c1.7-2.4,3.9-2.8,6.2-1.2c2.5,1.8,5.2,3.1,7.9,4.5
		c3.7,2,3.5,4.6-1.3,8c7.9-4,14.9-5.7,22.5-3.8c6.9,1.7,7.3,2.1,6.5,9.2c3.6,4.9,3.6,4.9-4.5,8.6c-4-3.1-7.5-1.1-11,1.1
		c-0.5-0.2-1-0.3-1.6-0.2c-3,1.5-1.7,4.2-1,5.8c1.1,2.4,1.7,4.8,2.1,7.2c1.2,6.5,2.7,7.7,8.5,5.4c1.8-0.7,3.4-1.9,5.3-2.5
		c5.5-1.7,5.9-2.8,2.9-8c-0.3-4.2-1.2-8.5,1.3-12.4c1.4-2.2-0.8-2.9-1.8-4.1c-0.7-1.3,0.3-2.5,0.2-3.7c-0.1-2.5,0.6-4.5,3.2-5.3
		c2.6-0.8,3.9,0.8,4.6,2.3c-1.2-2.2-3.2-3.7-6.7-3.8c-3.8-0.1-7.5-2.4-9.1-5.5c-3.9-7.3-9.9-13.2-13.1-20.9
		c-0.1-1.2-0.3-2.4-0.6-3.5c-1-3.2-1-6,2.3-8.2c2.7-1.7,4.3-1.4,5.4,1.6c1.6,2.3,3.2,4.7,4.8,7c0.5,0.7,1.4,1.9,1.8,1.8
		c9.8-3.2,11.6,8.9,19.6,10.3c4.2,0.7,4.9,7.7,7.9,11.5c0.2,0.3-0.1,1.5-0.3,1.6c-3.3,0.6-6.1,1.9-2.9,5.4c3,3.3,4.4,10,11.4,6.6
		c5.1,4,8.7,9.2,11.6,14.9C-443.5,669.9-449.2,672.7-450.3,675.4z"/>
	<path class="st6" d="M-509.6,617.6c0.4,0.5,0.8,0.9,1.1,1.4c1.4,2.8,0.2,6,1.8,8.9c1.3,2.5-1.4,4.7-3.2,6.2c-1.8,1.5-4.1,1-6-0.5
		c-1.9-1.5-3.1-3.5-4-5.8c-0.8-2.2-2-4.2-4.8-5.5c-0.2,3.6,2,7.4-2.8,9.1c-4,1.4-6-0.6-7.9-3.5c-2.5-2.9-3.3-7-6.6-9.4
		c-2.1-4,0-6.9,1.9-10c1-1.7,4-3.1,2.6-5c-1.6-2.4-4.5-4-7.8-2.3c-0.4,0.2-0.8,0.1-1.3,0.1c-3.7-0.5-5.1-3.9-7.1-6.2
		c-2-2.4-3.8-2.5-6.1-1.3c-2.7-0.9-4.5-3.2-6.6-4.9c-1.3-2.2-0.8-8.7-5.7-2c-1.9,2.6-10.9-2.2-11-6.4c-0.1-8.4-5.6-13-11.6-16.6
		c-6.6-3.9-10.3-9.3-12.3-16.4c-0.8-5.5-5.2-9.3-6.9-14.4c-0.9-2.7-1.2-5.3-0.6-8.1c0.5-2.3,2-1.7,3.4-0.8c1.3,0.5,2.6,1,3.9,1.5
		c8.5,1.3,13.9,6.7,18.1,13.7c1.3,2.1,3.1,3.7,5.3,4.6c4.2-1.3,6.7,0.6,8.3,4.2c0.7,1.6,1.1,3.3,2.6,4.4c0.5,0.5,0.9,0.8,1.5,1.2
		c0,9.8,9.4,14.7,12.7,24.2c-3.2-7.5-3.2-7.5,2-10.4c2.6,2.6,6.3,4.2,7.2,8.3c1.8,1.9,3.3,4.2,5.4,5.5c5.8,3.6,8.5,2,9.1-5.3
		c4.4,1,6.8,4.3,9.4,7.3c0.6,2.9,1.2,5.8,4.1,7.6c4.1,2.6,2.6,7.8,5.1,11.6C-513.1,606.9-510,611.8-509.6,617.6z"/>
	<path class="st7" d="M-509.6,617.6c-0.9-0.8-1-2.8-2.8-2.2c-4.4,1.5-4.9-1.8-5.2-4.5c-0.3-3.7-2.8-6.2-4-9.2
		c-2.1-5.8-7.3-11.3-3.9-18.3c11.7,8.2,22.6,17.5,33.5,28.5c-3.9,0-5.4-1.9-6.9-3.5c-2.1-2.2-3.9-2.5-5.8,0.2
		C-510.6,609.1-509.6,613.6-509.6,617.6z"/>
	<path class="st2" d="M-574,554.4c-4.2-2.5-5.2-7.9-9.4-10.4c-3.1-5.9-7-11.5-8.5-19.2c3.3,2.2,6.3,3.6,8,6.5
		c4.1,6.8,11,9.5,17.7,12.6c1.1,0.5,2.1-0.2,2.9-1c3.8,1.2,4.6,4.3,5.1,7.7c-2,2.9-5.7,2-8.1,4C-569,554.1-571.5,554.3-574,554.4z"
		/>
	<path class="st2" d="M-555.7,555.9c-4-3-9.6-2.9-13.2-6.7c3.8-1.6,6.9,1.7,10.6,1.3C-557.5,552.3-556.6,554.1-555.7,555.9z"/>
	<path class="st2" d="M-459.6,730.7c-0.6-5.5-5.4-6-9.1-6.9c-3.6-0.9-4.9-2.7-4.3-5.8c1.3-6.2,1.3-13,6.8-17.5
		c2.5-0.3,2.3-2.7,3.1-4.2c1.2-2.2,2.2-4.1,5.2-3.9c2.8,0.2,3.6,2.2,4.2,4.4c0.9,3.3,1.9,6.7,1.9,9.2c-0.8-5-2.5-10.9-1.4-17
		c0.8-4.1,2.7-6.9,7.3-6.8c3.9,2.1,5.3,4.5,4.6,9.7c-0.7,5.5-0.1,11.9,2.5,17.2c3,6,6.9,11.5,7.5,18.5c-0.5-10.7-6-20.3-5.9-31
		c2.4-3.7-0.4-6.1-2.1-8.7c-1.4-2-1.4-2,0.6-4.5c7.1-3.5,11.5,0.8,15.7,5.5c9.2,8.5,12.9,18.2,6.9,30.2c-1.9,5.8-2.1,11.6-1.5,17.9
		c0.7,7.9,0.9,16,0.4,24c-2.2,4.2-6,5-9.4,1.1c-2.6-3-5-4.6-9-3.5c-1.5,0.4-3.4-0.1-4-1.6c-3.1-7.6-10.6-10.2-16.5-14.4
		C-455.3,738-459.5,735-459.6,730.7z"/>
	<path class="st2" d="M-417.5,717.6c3.3-10.5-1.4-19.6-5.3-28.8c3.8,2.2,7.5,4.5,11.3,6.7c1.9,1.1,3.8,3,5.7,3.1
		c13,0.2,19.6,9.6,27.2,18c4.3,4.7,10.7,5.5,16.4,7.8c-0.5,1.5,0.9,3,0,4.5c-1.6,2.4-0.8,4.6,0.4,6.9c0.9,1.8,1.7,3.9-0.7,5.1
		c-2.8,1.5-3-1.3-3.9-2.7c-0.7-1.1-1.2-2.2-2.4-3c4.6,5.2,5.5,11.3,2.6,17.3c-4.3,3.5-8.1,0.4-10.1-2.3c-3.8-5.1-7.2-10.6-11.2-15.5
		c-0.6-0.8-0.3-2.1-0.3-3.2c0-0.7,0.1-1.3,0.4-1.9c2.4-4.5-1-7.4-3.7-9.5c-3.4-2.6-6.7-5.5-10.4-8.6c-1.5,1.8-0.3,4.5-2.4,5.6
		c-1,0.8-2,1.5-2.9,2.5c-5.6,6.7-5.7,6.7-10.3-0.9C-417.4,718.1-417.4,717.8-417.5,717.6z"/>
	<path class="st2" d="M-367.6,750.5c-0.3-1.5-1.2-3.1-0.9-4.4c1.5-5.5-0.3-9.2-5.2-12c-0.9-0.5-1.5-1.6-0.8-3.2c4-0.2,6,3.6,9.6,5.6
		c0.2-3.5-1.7-6.7-0.1-9.7c2-1.1,5.3,4.1,6.5-1.2c8.6,4.6,18.1,7.6,26.3,13.2c-0.7,2.1-2.5,2.8-4.4,3.3
		c6.7,10.3,14.1,19.2,28.4,14.9c1.8,2.7,4.4,3.9,7.6,4c3.6,0.1,6.6,1.5,9.3,3.8c-0.5,0.1-1,0.2-1.5,0.3c-2.4,1.7-5.2,1-7.8,1.2
		c-6.3,0.4-12.7-0.5-19,0.1c-7.5,0.6-29.3-8.1-34.6-13.2c0.6,4.1,3.1,8.7-2.3,11.5c-4.9-1.1-8.3-4.4-10.9-8.4
		C-368.6,754.5-370,752.5-367.6,750.5z"/>
	<path class="st0" d="M-446.5,684.7c-3.9,2.9-3.2,7.5-3.5,11.4c-0.6,6.5-0.7,13-4.8,18.5c-3-2.7-3.2-3-1.1-5.2
		c4-4.2,1.2-7.6-0.9-11.1c-1.2-2-2.9-1.7-4.2,0.2c-1.3,1.9-2.5,3.8-5.2,2c-0.1-8.7,5.5-16,5.8-24.7c0.1-2.6,2.3-3.3,4.1-1.1
		c2,2.5,4.4,2.5,7.1,2.2c3.6,2.1,7.1,4.3,10.7,6.4c2.4,4.1,8.5,7.2,3.9,13.3c-3.9,3.6-6.5,0.5-7-2.4
		C-442.2,690.2-444.5,687.6-446.5,684.7z"/>
	<path class="st2" d="M-358.4,725.5c0.2,0.6,0.7,1.3,0.6,1.8c-0.5,2.7,4,5.9,0.8,7.3c-3.8,1.7-4.7-3.2-6.4-5.7
		c-0.5-0.7-0.9-1.4-1.4-2.2c0.9-0.9,1.8-1.8,2.6-2.6C-361,724.6-359.7,725.1-358.4,725.5z"/>
	<path class="st2" d="M-450.3,675.4c-0.8-0.8-4.3-1.3-0.7-2.8c3.6-1.6,1.4-3.2,0.4-4.9C-445.7,670-445.3,672.6-450.3,675.4z"/>
	<path class="st0" d="M-638.6,858.3c-11.9,3.8-19.6-1-21.5-13.5c-0.4-2.5-1.2-4.4-4.1-3.9c-3.2,0.6-5.8,2.8-4.2,6
		c2.9,6,1.5,9.4-4.7,11.3c-5.6,1.7-13.6-1.1-15.5-6.6c-1.8-5.3-4.3-5.2-8.8-3.8c-8.6,2.7-15.6,8.9-24.6,10.8
		c-3.4,0.7-6.6,2.1-10.2,2c-2.5-0.1-13.3,8-13.6,10.2c-0.4,3,1.8,2.6,3.3,1.8c4.2-2.4,8-1,11.9,0.6c9.2,3.8,18.9,3.2,28.5,3
		c3.1,0,6.1-0.3,9.1,0.4c1.6,0.3,4,0.3,3.8,2.7c-0.1,2.1-2.3,3-3.9,2.8c-12.3-0.8-23.3,7.5-35.9,5.1c-1.8-0.3-3.8-0.2-4.8,1.5
		c-3.3,5.7-8.7,5.4-13.9,4.8c-8.1-1-16.2-1.2-24.3-1.1c-6.4,0.1-12-2.4-17.4-5.4c-2.8-1.5-4.8-3.9-0.4-6.2c1.1-0.6,2.9-0.7,2.8-2.3
		c-0.1-1.8-1.9-2.3-3.4-2.6c-11.6-2.4-23.3-3.9-35-1c-12.3,3-23.5,2.2-35.5-3.4c-7.7-3.6-16.9-6.9-26.3-5.2
		c-2.9,0.5-5.4,0.8-5.5-3.2c0-1.4-0.5-2.7-1.8-3.3c-4.1-2-3.9-4.7-1.4-7.9c1.1-1.4,0.4-2.9-0.7-4.2c-2.9-1.4-4.9-3.8-3.8-6.8
		c1.5-4.2,5.8-2.6,8.5-3.1c-5.6-0.7-9.7-4.4-10.6-10.1c-0.3-1.7-0.1-3.7-1.3-4.9c-5.9-5.8-3.5-12.9-3.3-19.7c0.1-2,1.4-3,2.5-4.2
		c4.6-3.5,4.3-7.7,1.8-12.2c-1-1.9-2.2-3.8-3-5.8c-0.5-1.2-0.3-2.7,1-3.5c1.3-0.9,2.7-0.5,3.5,0.6c4.3,5.3,9.2,9.8,14.8,13.8
		c2.1,1.5,1.6,4.4,1.2,6.8c-0.6,3.8,0,7.4,1.5,10.9c0.6,1.4,1,3.2,3,3c2-0.3,2.9-2,2.9-3.8c0-3.3-0.3-6.5-0.4-9.8
		c0-1.3,0.2-2.8,1.7-3.2c1.6-0.4,2.4,0.8,3.1,1.9c2.6,4.6,3.6,9.3,1.3,14.4c-1.3,3-2.9,6.3,0.6,8.9c2.4,1.8,5.1,1.1,7.2-0.9
		c2.9-2.8,3.2-6,1-9.5c-0.8-1.3-2.3-2.7-1.2-4.1c1.5-2,3.2-0.2,4.5,0.6c2.3,1.5,4.2-0.2,6.2-0.4c4-0.5,8.4,0.1,7.2,5.5
		c-2.5,10.8,2.8,17.4,10.9,23c1.1-0.2,1.2-1.1,1.5-1.9c0.8-2.3,2.2-4.3,4.8-2.8c2.6,1.5,1.1,3.8,0.1,5.8c-3.9,7.9-1.8,11.7,7.2,12.5
		c3.5,0.3,7,0.3,10.5-0.2c5.1-0.7,7.2-4,7.8-9.1c0.5-5.6,7-10.8,11.8-9.8c2.8,0.6,6.8,0.9,3.7,5.7c-1.3,1.9-0.8,4.2,1,5.3
		c6.8,4.1,13.2,9.4,22.1,7.4c1.3-0.3,2.7-0.5,3-2c0.2-1.6-0.9-2.3-2.2-2.8c-1.2-0.5-2.5-1-3.5-1.8c-1.3-1.1-2.6-2.6-2.2-4.5
		c0.4-1.8,2.3-1.8,3.7-2.1c3.2-0.8,6.4-1.4,9.6-2.2c4.7-1.3,8.3-1.9,11,4.1c2.4,5.5,2.3,9.1-2.7,12.3c-1.8,1.2-2.9,2.8-1.8,5
		c0.9,1.9,2.6,2.2,4.5,1.8c2.2-0.4,4.3-1,6.5-0.3c6,1.9,10.4,1.6,10.5-6.5c0-3.2,3-4.8,5.8-5.6c5.2-1.5,7.5-4.4,6.9-10.1
		c-0.5-5.2-1.9-7.9-7.7-9.3c-10-2.5-15.5-10.7-19.3-19.7c-1.9-4.4-5.3-8.8-2-14.2c0.8-1.3,0.3-3.1-1.2-4.1c-1.9-1.3-3.8-0.5-5.5,0.6
		c-3.3,2-6.5,3.6-7.9-2c-1-1.1-2.6-2.2-0.6-3.7c4.7-3.5,6.9-8.9,10-13.5c4-6,9.7-10.5,14.5-15.8c2.6-2.8,5.1-5.6,7.2-8.8
		c2.7-4.2,6.2-4.8,9.5-1.1c3.5,4,7,4.8,11.5,2.5c2.2-1.1,4.7-1.5,7-0.7c7.4,2.8,12.7,0.1,17-5.9c0.5-1.2,1.5-1.9,2.6-2.5
		c3-2.7,5.6-2.3,7.9,1c2.6,3.6,4.8,7.2,4.6,12c-0.2,4.6,0.5,9.2,3.6,13c1.8,2.2,1.7,4.9,1.8,7.5c0.2,8.3,1,16.6,3.3,24.7
		c1.2,4.3,0.7,8.7,0.4,13.1c-0.2,3.1-1.9,4.7-5.1,4.6c-2.1-0.1-4.2,0.5-6.8-0.2c1.5,1.5,2.8,2.3,4.1,3.2c4.3,2.8,6,6.5,3.7,11.5
		c-2,4.3-1.2,6.8,4.2,6.3c5.3-0.2,5.8,4.7,7.5,7.7c3.3,6,4.6,13.2,12.9,15C-636.7,855-637.7,857-638.6,858.3z"/>
	<path class="st0" d="M-904.3,799.1c0.8,4,1,8,0.9,12.2c0,7.2,5.4,13,6.9,20.2c0.7,3.4,6.2,3.3,10,2.3c3-0.8,5.3-0.4,5.6,3.3
		c0.2,3.8-1.5,5.8-5.5,5.3c-1.5-0.2-3-0.5-4.5-0.6c-4.5-0.5-6.8,1.1-5.4,6c-5-1.4-10-3.6-14.8,0.9c-1.6,1.5-3.7,0.3-5.6-0.5
		c-2.5-1.1-4.8-1.2-6.2,1.6c-1.2,2.5-0.7,4.9,1.6,6.4c4.8,3.2,10,6,6.9,13.4c-0.6,1.5,1.5,1.9,2.8,1.7c5.1-0.5,9.2,2.3,13.9,3.5
		c5.3,1.3,6.8,5,6.3,9.9c-0.5,5.4-3,7-7.9,4.4c-3.9-2.1-6.6-2.4-9.5,1.6c-2.6,3.7-6.2,2.8-9.2,0.3c-7.5-6.1-13-13.5-15-23.2
		c-1.3-6.3-1.5-13.4-10.8-13.9c-2.6-0.1-1.7-3-1.4-4.9c0.5-3.1-0.5-5.3-3.8-5.7c-3.6-0.4-4.2,2.1-4.5,5c-0.6,5.2-0.5,10.5-0.1,15.7
		c0.2,2.8-0.2,6.2-3.3,7.3c-3.5,1.3-4.7-2.2-6.4-4.3c-3.8-4.7-4.3-9-0.3-14.1c4.8-6.1,4.4-6.9-2.6-10.5c-2.2-1.1-3.6-2.4-3.4-5
		c0.1-1.9,1-3.8,2.8-4c5.5-0.5,7.6-4.5,10-8.4c0.6-0.9,1.5-1.6,2.1-2.5c2.5-3.5,9.1-5.9,6.4-11c-2.9-5.5-8.2-9.7-15.3-9.7
		c-0.9,0-1.8,0-2.6,0c1-8.8,8.1-15.1,10.1-23.5c0.4-1.8,1.8-3.2,3.9-2.4c2.1,0.8,2.1,2.7,1.3,4.4c-1.7,3.5-3.7,7-5.4,10.5
		c-1.6,3.2-2.1,6.4,1.3,8.8c3,2.1,6,5.8,10.3,2c1.3-1.2,3.1-2.4,4.7-1c1.9,1.7,0.1,3.2-0.9,4.5c-3.9,5-4.8,9.7,1.1,14
		c1.6,1.2,2.2,3.2,2.6,5.2c5.3,2.3,8.4,6.5,10.5,11.6c-0.1,0.4-0.2,0.2-0.2-0.3c0.4-3.5-6.6-5.4-2.4-9.6c2.9-2.9,6-5.7,9.9-7.4
		c2.7-1.2,5-2.7,4.5-6.1C-918.4,803.5-916.8,801.5-904.3,799.1z"/>
	<path class="st0" d="M-767.5,783.4c1.5,2.7,3.8,3,6.5,2.6c-0.3,0.8-1.1,1.8-0.8,2.4c4.4,10.6-0.7,22.2,3.3,32.9
		c0.7,1.8,1.2,5.3-1.2,5.8c-3.3,0.6-2.3-2.9-2.6-4.8c-1.5-8.9-7.3-14.6-17.1-16.5c-3.5,3.1-8.7,3.5-12,7.2c-1.7,1.9-2.8-0.6-3.8-2
		c-5.9,1.2-12.1,1.1-17.7,3.8c-2.1,1-4.3,0.2-6.2-0.8c-4.5-2.4-9.5-3-14.2-4.2c-1.3,0.5-1.8,0.1-1.4-1.3c-5.8-2.7-11.7-5.3-17.5-8
		c0.1-0.7,0.2-1.3,0.3-2c15-0.6,29.9-2.3,44.9-1.9c1.8,0,3.5,0,5.3,0c9.3,3.1,18.3-0.7,27.5-1.2c4.7-0.3-1.2-3.5,0.2-5.4
		C-772.2,787.4-770.1,785.1-767.5,783.4z"/>
	<path class="st0" d="M-922.8,716.2c1.4-1.4,2.7-2.8,3-4.9c0.2-1.3-0.4-3.5,1.9-3.5c1.7,0.1,2.2,1.9,3,3.2c2,3,2.2,6.5,3,10
		c0.9,4.1,2.8,5.4,6.1,1.7c2.4-2.8,5-5.5,7.5-8.2c4-4.4,8.4-4.3,12,0.5c2.9,4,6.4,7.1,10.9,9.2c-2.8,1.1-5.5,0.6-8.4,0.4
		c-2-0.2-5.2-2.9-6,0.7c-0.7,3,1,6,4.4,7.2c1.6,0.6,3.4,0.6,5.1,1c3.2,0.8,5,3,4.2,6.3c-0.9,3.8-3.6,2.3-6.3,1.9
		c-6.7-1-12.7-2.1-16.7-9c-2.1-3.7-6.3-3-9.2,0.9c-2.3,3.2-4.2,2.8-5.3-1c-0.6-2.1-0.9-4.4-4.2-3.7c-5.8,1.1-4.9-2.7-4-6
		C-920.9,720.4-919.2,717.9-922.8,716.2z"/>
	<path class="st0" d="M-966.1,756.8c4.6,1.6,7.8-0.3,11.1-1.1c3.5-0.8,5.9-0.5,6.9,3.6c0.9,3.8-0.8,5.1-4.1,5.8
		c-4.3,0.8-7.2,3.8-10.4,6.5c-3.5,3-9,1.3-8.6-3c0.5-6.5-3.5-8.9-9.8-11.9c9.9-2.3,14.5-9.4,21.3-13.5c1.4-0.8,3.1-3,4.3-0.7
		c1,1.9,3.2,3.9,0.8,7C-957.5,753.2-962.5,753-966.1,756.8z"/>
	<path class="st0" d="M-795.1,811c4.7-3.6,8.4-9.9,15.8-5.3c2.4,1.5,4.3,3,2.8,6.3c-1.5,3.1-1,6.1,1.6,8.4c3.1,2.7,3.8-0.9,5.4-2.3
		c1.2-1.1,2.5-0.6,3.5,0.5c1.3,1.4,1.7,2.9,1,4.8c-1.7,4.3-6.4,6.2-10.8,3.6c-5-2.9-9.5-6-15.7-2.4c-2.7,1.6-5-0.6-5.1-4
		C-796.8,817.3-796.9,813.9-795.1,811z"/>
	<path class="st0" d="M-936.9,723.3c1.8-5.5,6.1-4.6,10.2-4.4c-1.7,7-6.5,12.2-10,18.2c-2.3,4-7.9,1.5-11.8,5.1
		c-0.2-3.7,4.2-6.8-0.9-9.4c-3.2-1.7-6-3.1-10.3-1.7c2.2-5.3,9.6-5.8,8-12.2C-944.9,713.1-940.9,717.3-936.9,723.3
		C-936.6,723.8-936.6,723.8-936.9,723.3z"/>
	<path class="st0" d="M-914.8,812.3c0.8,1.6,1.4,3.2,2.3,4.7c2.4,4.1,2.9,6.7-3.4,5.2c-3.5-0.8-5.4,2.4-7.9,3.9
		c-3.7,2.2-1,4.6-0.8,7.3c0.3,3.6-0.8,7.3-1.5,10.9c-0.2,0.9-0.8,1.6-1.8,1.5c-1-0.1-1.7-1.1-1.4-1.9c2.9-8.8-4.6-13.5-7.8-19.8
		c5.1-1.9,9.2-4.6,10.2-10.7c0.8-5.4-4.3-9.3-3.6-15.9C-925.6,803.8-922.3,810.4-914.8,812.3z"/>
	<path class="st0" d="M-870.1,712.3c7.4-6.2,15.6-11.1,23.8-16.1c2-1.2,3.9-2,6-0.5c2.1,1.5,3.1,3.6,2.7,6.2
		c-1,5.9-2.8,11.5-7.6,15.6c-3.9-1.6-6.5-3.9-6.2-8.8c0.3-5.5-3-5.2-6.2-2.7C-861.3,709.1-864.9,712.3-870.1,712.3z"/>
	<path class="st0" d="M-834.6,808.4c0.5,0.4,0.9,0.9,1.4,1.3c1.2,1.5,2.4,3,3.4,4.7c1.3,2.1,1.3,4.2-1.2,5.4
		c-2.6,1.2-4.7,0.5-5.7-2.2C-838,814.1-838.3,810.7-834.6,808.4z"/>
	<path class="st0" d="M-819.9,817.8c3.4,0.2,4.5,2.2,4.7,4.8c0.1,1.5-0.5,3.7-2.3,3.1c-2.4-0.8-4.8-2.7-5.5-5.1
		C-823.7,818.3-821,818.5-819.9,817.8z"/>
	<path class="st0" d="M-979.8,747.7c1,0,1.7,0.5,1.8,1.5c0.1,1.2-0.5,2.1-1.8,2.3c-1,0.1-1.7-0.5-1.9-1.5
		C-981.8,748.6-981,747.9-979.8,747.7z"/>
	<path class="st0" d="M-875.4,724.1c3.4-3.2,0.3-9.3,5.3-11.8C-871.9,716.2-869.2,722.1-875.4,724.1z"/>
	<path class="st2" d="M-675.3,676.8c-3.6-1.6-7-3.6-11.2-3c-3.7,0.5-5.2-2.9-7.2-5c-1.9-1.9-3.2-4.4-5.3-7.4
		c-0.2,6.6,4.9,9.4,7.3,14c-3.9,0.8-4.9-3.5-7.8-3.4c-1.7,1.8,1.1,3.3,0,5.2c-0.4-0.1-1.2-0.1-1.4-0.4c-4.1-7.6-12.7-9.7-18.4-15.3
		c-0.9-0.9-2.1-1.6-3.6-0.8c-1.5,0.8-1.1,4.8-3.9,3.1c-2.2-1.4-1.1-4.5-1.4-6.8c1-1.7,1.9-3.5,2.9-5.2c0.7-0.4,1.4-0.8,2.1-1.2
		c-0.7,0.3-1.4,0.8-2.1,1.1c-5.7-9.1-5.4-18.2-0.2-27.4c-0.8-1.3-0.8-2.8-1.3-4.2c0.2-0.8,0.6-1.3,1.2-1.7c7.5-3,11.4,0.2,10.4,8.5
		c1.5,3,3.5,4.2,7.1,4.6c3.5,0.3,3.8,5.5,7.3,6.8c4,1.5,2.8,5.1,3.2,8c3,4.6,7.4,7.2,12.8,7.8c6.5,0.7,10.1,4.7,12.3,10.5
		C-670.6,669.3-671.1,673.5-675.3,676.8z"/>
	<path class="st0" d="M-753,704.4c-2.9,0.8-3.4,3.3-3.6,5.7c-0.3,6-3.5,11.8-1,18c0.7,1.7-0.5,3.1-2,3.6c-5.4,1.8-9.3,5.5-12.8,9.8
		c-1.2,1.5-3,3.1-5.1,2.3c-2.8-1.1-1.1-3.3-0.7-5c0.8-2.8-1.1-4-3.2-5c-2-1-3.8-2.1-5-4.1c-0.7-1.2-1.2-2.5-0.3-3.7
		c1-1.2,2.4-0.9,3.6-0.2c1,0.5,1.8,1.2,2.8,1.7c3.1,1.7,6.7,3.9,9.8,3c4.5-1.3,0.6-5.6,1-8.5c0.5-3.8,1.2-6.5,4.3-8.7
		c2.2-1.6,3.1-4.1,4.2-6.5C-759.3,703.3-756.7,701.6-753,704.4L-753,704.4z"/>
	<path class="st0" d="M-766.2,782c-3.2,0-6.3,0-10,0c1.3-3.3,3.4-5.2,6.3-5.2C-766.6,776.7-766.6,779.7-766.2,782
		C-766.2,782-766.2,782-766.2,782z"/>
	<path class="st0" d="M-800.7,783.1c-1.3,0.1-2.5-0.2-2.3-1.6c0.3-2.3,1.5-4.2,4-4.5c1.5-0.2,2.5,0.9,2.3,2.5
		C-797,781.8-798.9,782.5-800.7,783.1z"/>
	<path class="st0" d="M-787.2,789.9c-3.8-1.8-1.4-3.2,0.4-4.4c1.5-0.9,3.6-1.7,4.5,0.3c0.9,2-1.5,2.1-2.7,2.8
		C-785.7,789.2-786.5,789.5-787.2,789.9C-787.2,789.9-787.2,789.9-787.2,789.9z"/>
	<path class="st0" d="M-785,754.3c0.1-1,0.8-1.5,1.7-1.5c1.1,0,2.1,0.4,2.2,1.7c0.1,1-0.7,1.5-1.6,1.5
		C-783.9,756-784.8,755.6-785,754.3z"/>
	<path class="st0" d="M-792.5,793.8c-2.6,2.5-5.9,2.6-9.2,2.6C-799.3,793.2-796.1,792.9-792.5,793.8z"/>
	<path class="st2" d="M-604.4,547.9c1.3,4.7,4.5,7.7,8.5,10.4c7.5,5,15.5,9.6,16.7,20.3c0.4,3.3,2.3,8.2,8,3.8c3.3-2.6,6,1,8.8,2.4
		c1.8,2.6,0.2,4.1-1.9,5c-8.9,4-19.7,2-25.9-4.2c1.4,4.5,8.8,3.9,10.1,9.8c-1.3,5.7-8.3,4.4-10.6,8.8c-0.7,0.2-1.3,0.3-2,0.3
		c-3.8,0.2-4.5-3-6-5.4c-1.8-2.8-4.1-5.7-8.3-3.9c3.1-0.3,6.2-0.3,7.6,3.2c1.1,2.9,4.7,4.5,4.1,8.2c-0.7,1.3-1.5,2.6-2.4,3.8
		c-1,2-2.3,3.9-2.5,6.2c2.8,9.2,10.4,13.3,18.4,16.4c6,2.3,6.9,3.3,4.3,9.4c-2,4.5-1.4,9.2-1.5,13.7c-0.1,4.8-1.3,7.8-6.6,6.6
		c-2.2-0.5-3,1-4.5,1.5c-2.3,0.9-3.5,4-6.5,3.7c-4.3-3.3-4.6-11.1-0.3-16c2-2.3,3.3-4.4,0.7-7.3c1.7,6.1-4.3,10.2-3.8,16.1
		c0.1,1.3-0.2,3.1-0.6,4.7c-1.1,3.8-3.9,5.7-5.8,3.3c-3.1-3.8-8.3-6.7-7.4-12.9c2.8-7.8,1.1-9.7-8.6-10.1c-5.5,0.9-9.5-0.5-10.9-6.5
		c-0.5-2.1-2-3.9-3.7-5.3c-1.8-1.5-1.5-3-0.2-4.5c4.4-1.9,2.7-5.8,2.2-8.6c-0.8-4.5-5.6,0.4-7.8-2.8c7.9-2.8,4.4-8,2.8-13
		c-0.5-1.3-2.9-3,0-4.1c1.6-0.6,3.7-1.1,4.5,1.1c2.7,7,6.6,2.5,10.6,1.6c-8-8.6-9-13.8-4.4-21.5l0,0c2.6,0.9,5.2,2.3,7.9,2.6
		c3.7,0.3,7.8-0.3,9.9-3.6c2.6-4.2,0-8.3-2-12.1c0.6-3,1.4-5.9,0.4-9c-0.6-2-0.6-4,2.3-4.3c2.2-1.1,4.9-2.3,2.5-5.2
		c-2.5-3-4.6-0.5-6.5,1.2c-2-6.4-7.4-12.2-3.9-19.7c2.3-2.5,3.6-1.1,4.6,1.2C-611.9,538.8-607.5,542.9-604.4,547.9z"/>
	<path class="st2" d="M-725.4,620.3c-5.5-2.7-5.7-7.4-6.5-12.9c-1.2-7.8-2.4-15.3-1.3-23.1c0.4-3.2,0.9-5,4.7-4.1
		c4.3,1,7.3-2.4,11-3.5c3.2-2.3,5-1,6.1,2.3c0.7,2,1.7,4,1.9,6.2c0.2,0.7,0.9-0.4,0.1,0c-0.1,0.1-0.2-0.1-0.3-0.5
		c-0.8-2.7-1-5.5-2.8-7.9c-1.2-1.6-0.3-3.1,1.2-4.4c1.5-1.4,3.5-1.2,4.3-0.2c2.1,2.8,5.5,5.6,5.4,8.7c-0.2,6.2,2.4,11.7,2.9,16.8
		c-0.7-3.4-2-7.5-2.6-11.8c-0.2-1.8-2.5-5.7,2.5-5.7c3.3,2.5,6.6,4.9,9.8,7.5c3.8,3.1,5.3,6-2.1,8.1c5.7,2.2,7.8,7.5,13.8,8.5
		c3.6,0.6,5.6,0.5,7.5-1.9c2.4-3,5.3-5.1,8.9-6.4c-4.4,7.1-3.6,7.6,3.5,12.4c5.2,3.5,9.3,8.8,13.3,13.7c1.9,2.3,3.4,5,5.7,7.1
		c-0.5,5.4-4.9,6.5-8.8,6.5c-5.3,0-10.7,0.4-15.9-1.1c-2.2-0.9-1.7-3.5-3.2-4.9c-2.6-6.4-4.9-7-9.9-2.7c-0.8,0.7-1.7,1.4-2.8,1.5
		c-0.6,0-1.2,0-1.8-0.2c-2.5-1.4-3.9-4.1-3.9-6.3c0-7.6-5.7-4.2-7.2-2.9c-9,7.9-16.5,5.7-23.8-2.2c-5-5.4-5.4,2-8.1,3.1
		C-724.5,620.2-725,620.2-725.4,620.3z"/>
	<path class="st2" d="M-662.2,509.7c0.9,0.9,1.8,1.7,2.6,2.6c4.5,3.5,7.8,8,11.7,12l0,0c-8.1-0.1-9.5,8.2-14.5,12
		c-2.1,1.6,0.2,5.1,1,7.3c0.7,2,3.4,0.2,5.2-0.5c1.4-0.5,2.7-1.5,4.2-1.9c6.5-2,6.5-2,1.8-6.9c5.1-1,6.2,5.4,10.5,5.6
		c2.6-3.4,5.6-3.8,9.1-1.3c1.6,0.9,6.7-4.1,4.8,2.9c-0.2,0.7,2.5,2,3.7,3.1c3,2.7,5.8,5.6,2,9.7c-4.9,2.1-9.3,0.3-13.8-1.5
		c-7-2.8-12.4,1.2-11.5,8.5c0.5,3.7-2.4,6.4-1.4,10.8c-6.8-4.5-9.3-11.7-15.5-15.1c-0.5-3.8,1.6-3.6,3.9-3c-2.6-3.1-3.8,3.3-6.4,1.4
		c-1.7-1.4-3.1-3.2-5-4.2c-7.8-4.2-11.5-11.6-15.5-18.8c-2.9-5.3-8.1-8.5-11.2-13.5c5.4-4.8,5.3-1.9,11.3,4.1
		c0.1-2.1-5.8-2.5-1.7-5.9c0.8-0.3-0.3,0.2,0.5-0.2c0.2-0.1,0,0-0.5,0.2c-3,1.3-7.2-2.9-9.5,1.9c-1.5-0.9-3-1.7-4.3-2.8
		c-1.7-1.3-5.7-2-1.5-5.1c0.2-0.2-0.2-1.7-0.7-2.3c-4.2-4.3-0.4-6.1,2.5-8.2c1.4,1.4,3,2.7,5,2.9c8,0.6,15.2,3.3,21.6,8
		C-669.1,515-665.6,513.8-662.2,509.7z"/>
	<path class="st2" d="M-662.2,632c2.9-0.8,5.8-1.4,8.8-0.4c5.3,1.7,10.1-0.1,14.8-2.3c0.4,0,0.8,0.1,1.3,0.1c4.1,2.8,8.3,5,8.8,11.2
		c0.3,3.8,3.5,1.6,5.6,0.6c2.9,1.9,3.2,3.9,0,5.7c-2.4,1.4-4.7,3.2-7.8,2.8c-4.9-0.7-9.8-1.7-14.8-0.3c-2.1,0.6-4.2,0-5.9-1.5
		c-3.5-2.9-7.3-5.3-11.1-7.9C-666,637.6-666.3,634.5-662.2,632z"/>
	<path class="st2" d="M-701.9,530.9c-3.5,0.1-5.7-2.2-6.9-5c-3.1-7.3-6.4-14.6-5.9-22.9c6,5.9,9.5,13.8,16,19.5
		C-694.8,526.1-701.2,527.9-701.9,530.9z"/>
	<path class="st2" d="M-610.9,555.7c0.8,2,1.6,4.1,2.4,6.1c1.8,4.8,0.9,7.8-5,7.1c-2.9-1.9-8.2-2.7-6.3-7.5
		C-618.6,558.1-616.7,553.2-610.9,555.7z"/>
	<path class="st2" d="M-664.9,555.4c1.5-1.8-0.1-3.8,0.4-6.3c5.8,2.3,14.6,0.4,13,11.6c-4-0.3-6.9-4-10.9-3.6
		C-663.2,556.5-664,555.9-664.9,555.4z"/>
	<path class="st2" d="M-655.8,571.6c-3.5-0.9-6.8-2.5-10.7-1.7c-5.3,1.1-2.6-5.8-6.1-6.7c3.7,1.2,5.9,0.4,4.6-5.3
		C-662.8,562.9-658.9,566.9-655.8,571.6z"/>
	<path class="st2" d="M-629.4,582.1c-3.2-1.4-11.9,2.5-6.9-7c0.6-1.1-2.4-3.1,0.7-3.5c1.6-0.2,2.6,1.3,3.5,2.5
		C-630.4,576.5-629.5,579.2-629.4,582.1C-629.3,582-629.4,582.1-629.4,582.1z"/>
	<path class="st2" d="M-698.9,580.3c-2.1,4.3-0.8,8.5,0.3,12.8c1.1,4.4,1.9,8.8,1.8,13.8c-3-0.7-3.8-2.5-3.6-4.9
		c0.6-6.2-1.8-12-2.7-18c-0.5-3.7-2.8-6.2-6.4-8.4c-0.9,6.8,3.9,12.6,2.6,20.2c-4.1-7-3.1-15.5-10.8-19c1.3-3.8-1.4-5-4-6.3
		c4.5-2.5,4.5-7.6,0.7-12c-3.8-4.4-9.6-6.5-12.3-12c0.9,0,1.9-0.1,2.8-0.2c4.4,1.7,7.9,4.2,10.8,8c4.8,6.4,10.4,7,17.4,3.1
		c4.1-2.3,8.5-0.5,11.8,1.3c3.2,1.7-1,3.8-1.7,5.8c-1.2,3.7-3.8,4.6-7.2,2.7c-3.3-1.9-6.2-4.9-11.5-3.6
		C-706.6,569.4-702.7,574.9-698.9,580.3z"/>
	<path class="st2" d="M-689.7,571c6.4,0.4,9.3,4.8,12.3,9.1c0.8,1.2-0.2,2.6-1.2,2.2c-4.5-2.1-10.7,0.6-14-4.9
		c-0.8-1.3-1.7-2.6-0.9-4.2C-692.7,571.4-691,571-689.7,571z"/>
	<path class="st2" d="M-746.7,561.2c-0.8-2.7-1.6-5.4-2.4-8.1c-0.1-3.6-1.5-7.3,1.2-10.6c-0.7,6.3,2.7,9.7,8.3,11.6
		c2.3,0.8,4.6,1.5,6.7,2.7c2.2,1.2,5.5,2.8,4.3,5.7c-1,2.3-3.9,0-6,0c-1.4,2.5-3.1,1.5-4.8,0.4C-741.6,561.5-744,560.8-746.7,561.2z
		"/>
	<path class="st1" d="M-604.4,547.9c-6.6-3.7-12.6-7.8-14.5-15.8c1.7-4.4,1.6-9.6,5.3-13.2c3.9,0.2,2.4,3.2,2.7,5.2
		c-2.2,2.5-0.6,4.9,0.3,7.3C-608.4,536.9-606.4,542.4-604.4,547.9z"/>
	<path class="st2" d="M-630.8,538.5c-2.9,1.5-5.6,3.8-9.1,1.3c-1.9-2.4-4.6-5.4-1.5-7.8c2.9-2.3,5.5,0.9,7.7,3
		C-632.6,536-631.7,537.3-630.8,538.5z"/>
	<path class="st1" d="M-701.7,487.3c3.2,0.1,6.4-0.2,10.6,2.6C-696.2,490.8-699.2,489.9-701.7,487.3L-701.7,487.3z"/>
	<path class="st8" d="M-746.7,561.2c0.2-5,2.2-6.2,6.3-2.9c1.9,1.5,3.8,2.8,5.7,4.2c1.1,2.2,1.5,4.2-1.5,5.2
		C-740.3,566.7-744.5,565.6-746.7,561.2z"/>
	<path class="st2" d="M-724.2,572.6c-1.4,2.4-2.9,3.8-5.4,1.1c-1.6-1.7-3.4-3.2-5.1-4.8C-731.1,570-727.4,570.5-724.2,572.6z"/>
	<path class="st2" d="M-648,524.3c-4.6-3.3-10.6-5.3-11.7-12C-652.1,512.8-650.3,518.9-648,524.3z"/>
	<path class="st0" d="M-367.6,750.5c2.7,4.3,5.6,8.5,10.6,10.6c5.1-1.3,6.7,2.8,6.4,5.9c-0.9,8.4,4.5,12.7,9.7,17.3
		c0.6,0.2,1.2,0.5,1.7,1c2.8,7,6.9,13,13.9,16.6c1.3,1.8,1.9,4.2-0.6,4.8c-7.6,1.8-8.1,9.5-12.3,14c-3.1,4.9-7.1,8.7-12.1,11.6
		c-2.9,1.7-6,3.6-5.3,8.1c0.3,2.1-1.7,3.3-3.5,4.3c6.4,3.7,6.6,6.8,0.9,11.7c5.6-1.9,9.5,0,9.2,4.9c-0.4,10.3,3.2,18.5,10.8,25.3
		c-0.4,4.3-3.7,7-8.3,6.2c-3.9-0.7-7.6-2.2-9.8-5.9c-4.9-8.2-9.9-16.6-14.2-25c-4.6-9-9.4-18.2-13.1-27.8c-1.7-4.5-1-9.5,1.7-13.5
		c5-7.3,0.6-18-8.1-22.9c-2.6-1.5-8.3,1.3-9.3,4.8c-1,3.5-0.9,8.2-6.2,7.3c-6-1-13.5,0.6-16.4-7.5c-0.6-1.6-0.7-3.5-2.5-4.4
		c-1.1,0.4-1.2,1.4-0.9,2.2c2.1,5.3,4.8,10.5-0.1,15.8c-0.7,0.7-0.5,2.4,0.3,3.1c6.4,6.7,6.7,16.6,12.2,23.8c1.7,2.2,3.6,4,6.4,4.1
		c6.7,0.3,8.6,5.4,8.9,10.3c0.4,5.1,2.2,8.5,6,11.7c3.1,2.7,5,6.6,7.5,9.9c2.1,2.9,0.6,5.7-3,6c-3.3,0.3-6.1-1.1-8.1-3.5
		c-4-4.7-9.2-8.1-13.1-12.9c-1.4-1.8-3.3-3.7-5.4-3.4c-6.8,1-12.6-1.7-18.8-3.7c-3.3-1.1-7.3-2-10.6,2.2c-2.4,3-6.5,0.4-8.9-1.5
		c-3.7-2.8-6.5-5.7-11.7-2.3c-2.8,1.8-7.4-0.8-10.6,2.2c0,0-0.8-0.1-1.2-0.2c-2.5-0.5-8.3-10.6-8-13.6c3.2-2,3.2-2,7.6-0.9
		c-8.9-10.8-19-19.4-27.8-29.4c-0.9-1.4-1.9-3.4-3.1-3.9c-5.3-2.2-5.1-6.6-4-10.6c1.6-5.7-0.5-9-5-12c-8.4-5.6-8.8-12.4-1.8-19.9
		c7.4,2.8,13.1,8,18.8,13.2c0.6,0.9,1.4,2.1,2.2,2.3c14.4,3.6,24,15.5,37.1,21.6c7.3,3.4,14.6,9.6,12.8,20.4
		c0.8-0.8-0.2-1.1,0.2-1.8c3.6-5.8,3.4-7.1-2.3-11.6c-5.1-4.1-11-7.2-15-12.8c-2.6-3.8-2.7-6.7,0.7-9.4c3.6-2.9,3.8-6,1.3-9.5
		c-1.9-2.6-1.9-5.2-0.2-7.8c1-2.2-0.2-4.8,1.5-6.8c1.8-1.7,3.4-4.2,6.5-2.2c0.8-1.3,1.7-2.6,2.3-4c2-4.8,6.3-9.8-0.6-14.3
		c-1.8-3-4.6-5.9-0.4-9.1c4.8,5,13,5.8,16.2,12.9c0.1,0.3,0.8,0.8,1,0.7c8.7-4.6,10.3,3.8,14.3,7.7c0.5,0.5,1,0.8,1.5,1.2
		c2.1-0.3,3.9,0.6,5.8,1.2c1.9,0.5,3.8,1,5.7,1.3c6.1,0.8,9.2,4,9.1,10.4c-0.1,3,0.5,6.1,2.4,8.7c1.1,1.5,2.6,2.6,4.5,1.4
		c1.7-1,1.1-2.7,0.4-4.1c-3.2-6.4-4.7-13.6-8.6-19.7c-1.4-2.2-1.7-4.5,0.2-6.6c2.9-3.2,6.1-6.2,8.7-9.8c0.8-1.1,2.1-1.7,3.5-0.9
		c1,0.6,0.9,1.9,1.5,2.8c-0.7-0.8-0.6-1.9-1.5-2.8c-3-3.1-2.8-7.3-3.1-11.3c-0.2-1.9,0.8-3.2,2.7-3.8c1.6-0.5,2.5,0,2.5,1.8
		C-379.4,736.8-376.7,746.8-367.6,750.5z"/>
	<path class="st2" d="M-459.6,778.1c-2.3,4.7,2.3,6.5,4,9.5c2.1,3.5,4.9,6.5-2.5,6.7c-4.1,0.1-5,3-3,6.6c2.1,3.7,5.3,6.2,8.9,8.4
		c5.9,3.5,11.2,7.7,13,14.9c0.2,0.6,0.3,1.3,0.3,1.9c-0.1,4.8-7.2,5.7-6.1,11.1c-2.5,0-3.3-1.7-3.8-3.7c-1.7-5.8-3.4-11.4-7.5-16.5
		c-2.8-3.5-6.3-4.2-9.4-6.4c-11.4-8.1-22.8-16.1-34.8-23.2c0.7-8.1-4.6-12.6-9.2-18.4c-5.7-7.3-11.5-15.2-14.7-24.2
		c-1.7-4.8-3.8-9.2-6.5-13.4c-3-4.9-1.8-11-4.7-15.8c-3.6-5.9-2-13.7-6.2-18.8c-4.7-5.7-8.7-12-14.3-16.9
		c-6.9-6.2-9.3-14.2-9.4-23.2c1.3-1.6,3.2-1.3,4.8-1.4c1.5-0.2,3-0.3,4.4-1.2c3.1-1.9,9.4-15.9,8.6-19.6c-0.7-3.2-1.2-6.5-1.5-9.7
		c-0.3-2.8,0.6-5.3,3.2-6.6c3-1.5,4.3,1.1,6.1,2.8c1.4,1.3,2.7,2.6,3.6,4.3c-2.8,6.4-1.9,10.5,3.5,15.5c1.5,1.3,0.3,11-1.9,11.5
		c-6.1,1.5-4.6,7-6.6,10.6c2.5-1,2.4-3.3,2.6-5.6c0.4-5,2-5.6,6.6-2.6c0,0.4,0,0.8,0,1.1c1.8,1.5,1.1,3.7,1.5,5.4
		c-0.2-1.6-0.2-3.5-0.2-5.3c0.1-0.2,0.3-0.5,0.4-0.5c10.2,2.6,17.6,17,13.3,26c-0.4,0.9-1.3,2-2.2,2.2c-1.7,0.3-2-1.4-2.4-2.6
		c-0.8-2.8-1.5-5.7-3.6-8.5c-0.2,4.8-0.4,9.6-0.8,16.4c-3.3-5.6-1.3-10.6-5.7-15.7c1.3,9.4-0.3,17.4,3.1,24.7
		c1.4,3.1,2.1,5.5,0.7,8.6c-2.5,5.6-0.8,9.8,4.6,12.5c3.1,1.5,4.2,3.7,3.1,6.9c-1,2.9-0.6,5.6,0.7,8.3c3,6.3,5.8,12.8,9.1,19
		c2.9,5.5,5.2,5.7,9.5,1.2c0.8-0.8,1.5-1.6,2.5-2.2c7-4,8.8-9.7,6.6-17.3c-0.9-3.2-2.1-7.7,4.4-6.5c2.2,2.1,2,5.2,2.9,7.8
		c0.9,5.4,0.7,10.6-1.9,15.5c-1.1,2.2-2,4,0.7,5.6c3.3,2.8,5.2,5.4,1.3,9.6c-2.5,2.7,1.4,5.7,1.6,8.9c0.2,4.8,6.7,8.8,11.5,8.2
		c2.2-1.1,1.5-2.9,1.1-4.5c-0.6-2.9-0.5-5.6,2.7-6.6c3.2-0.9,5.6,0.6,6.8,3.8C-460.4,777-460.1,777.6-459.6,778.1z"/>
	<path class="st2" d="M-533.2,626.7c2.1,1,4.8,3.5,3.9-1.8c-0.1-0.6-0.5-1.2-0.5-1.9c-0.2-2.9,0.5-6.3,2.5-7.7
		c2.6-1.9,3.5,2.2,5.4,3.3c3.4,1.9,5.6,4.6,6.2,8.6c0.2,1.5,1,3.2,2.8,3.2c2.1,0,2.5-2.2,3-3.7c0.7-2.5,1-5.1,1.6-7.6
		c3.1,7.9,11,12.3,14.5,19.9c0.5,1,2.7,4.3,4.3-0.1c1-2.7,2.5-0.5,3.3,0.4c3.6,4,5.7,9.2,10.3,12.4c1,0.7,1.9,2.2,0.7,3.4
		c-1.2,1.3-2.5,0.5-3.3-0.6c-3.9-5.3-7.6-5.4-11.3,0.1c-0.9,1.1-1.8,0.7-2.6-0.1c-3-5.6-10.4-7.4-18.9-4.8
		c-4.3,1.3-8.7,2.5-13.1,3.7c-1.4-4.2,3.3-5.2,3.5-8.7c-3.8-0.9-7-3-9.7-5.9c-7.7,1.7-4.8-4.5-5.8-7.8
		C-535.5,629.4-535.3,627.3-533.2,626.7z"/>
	<path class="st2" d="M-467.5,792.5c-7.9-2.4-11.9-10-18.8-13.8c-0.7-0.4-1.4-2.3-1.1-2.8c3.3-4.9-2-5.5-4.1-8.1
		c1.6-2.5,7.7-3.1,4.2-8.1c0.5-7.9-1.7-15.8,0-23.7c0-2.6,0-5.3,0-7.9c5.4,2.5,6.3,8.1,8.7,12.6c1.1,2,1.3,4.8,3.9,5.7
		c1,0.3,1.5-0.7,1.6-1.6c0.2-3,1.4-6.5-1.6-8.5c-2.9-1.9-4.4-4.1-4.4-7.4c0-1.5,0-3.3,1.9-3.7c1.4-0.4,2.7,0.5,3.3,1.7
		c1.8,3,3.4,6.1,5,9.2c2.2,0.3,2.4,2.6,2.2,3.7c-0.8,4.2,2.9,7,3.1,10.8c1.3,3.8,0.7,10.3,8,4.6c2-1.6,3.2,1.4,3,3.4
		c-0.4,3-1.2,5.9-1.9,8.8c-1.3,1.4-2.5,2.8-3.8,4.2c-3.6,3.6-10.7,3.3-13.2-1.1c-1.8-3-4.4-6-3.2-10.2c0.4-1.6-1.6-2.4-2.3-3.6
		c3.8,2.7,2.6,6.6,1.3,9.4c-3.5,7.4-0.7,12.5,4.6,17.3C-468.5,785.7-465.9,788.3-467.5,792.5z"/>
	<path class="st2" d="M-488.7,671.5c1.5-0.7,2.2-2.8,4.6-2.6c0.5,4.4,0.9,9.7-2.9,12c-5.4,3.3-10.5,8.1-17.6,7.4
		c-2.1-0.2-4.7-1.2-4.7-3.8c0.1-7.7-2.5-15.1-3.2-22.7c-0.2-2.3,0.6-4.6,3.4-4.7c2.6,0,2.1,2.2,2.1,4c-0.5,3.3,2.1,5.3,3.6,7.8
		c1.5,2.6,2.7,0.2,4-0.5C-493.3,665.4-491.5,666-488.7,671.5z"/>
	<path class="st0" d="M-533.3,630.7c0,2.9-0.1,5.9,2.6,8c1.4,5.4-2,10.4-1.2,15.7c-4,2.9-2.5,7.9-4.5,11.7c-1.9,3.5-3.2,4.9-6.5,2
		c-0.6-0.6-1.3-1.3-2.1-1.5c-5.7-2-5.9-2.7-0.8-7.3c4.4-3.9,9.7-8.4,12.3-14.3c-1.8-2.9-4.8,3.4-6.3-1.5c-2.9-9.5-2.4-14.6,2.4-17.8
		C-533.7,625.5-535.1,629.4-533.3,630.7z"/>
	<path class="st0" d="M-488.7,671.5c-6.3-2.1-3.1,3.4-4.5,6.4c-2.5-5.6-5.2-6.9-7.9-1c-0.4,1-1.2,1.8-2.6,1.1
		c-2.5-1.4-5.1-14.3-3.3-16.9l0,0c3.6,0.6,7.2,0.5,10.4-1.4c1.1-1.9,6.1-0.8,4-5.2c0.9,0,1.7,0.1,2.6,0.1
		C-483.8,659.7-488.7,665.8-488.7,671.5z"/>
	<path class="st2" d="M-477.9,706.2c-3.3-1.3-7.7-0.1-9.1-4c-0.9-2.6,5.6-9.1,8.4-8.6c6.4,1.2,0.9,7,3.7,10.2
		C-473,706.2-477,705.1-477.9,706.2z"/>
	<path class="st2" d="M-463.6,750.5c-9.4-2-5.1-9-5.3-14.5C-462.6,738.8-460.3,745.2-463.6,750.5z"/>
	<path class="st2" d="M-453.2,739.8c0.1,3,0.3,6.1,0.4,9.1c-0.4,0.2-0.9,0.7-1.1,0.6c-4.7-2.3-8-13.6-5.7-18.9
		C-456.4,733-454.7,736.3-453.2,739.8z"/>
	<path class="st0" d="M-530.7,655.6c1,2.8,2,5.7,2.9,8.5c0.4,1.2,0.6,2.8-1,3.3c-1.8,0.6-3.2-0.8-3.3-2.2c-0.2-3.2,0-6.4,0.1-9.6
		C-531.6,655.6-531.1,655.6-530.7,655.6z"/>
	<path class="st2" d="M-496.6,659.6c-2.8,5.2-6.5,4.4-10.4,1.4C-503.6,659.9-500.7,655.7-496.6,659.6z"/>
	<path class="st2" d="M-533.3,630.7c-1.3-1.7-2.6-3.5-4-5.2c-1.1-0.7-2.2-1.4-3.2-2.2c-3.9-2.8-5-0.9-4.7,3c0.2,2.2,0.4,4.4,1.3,6.4
		c2.3,5.5,4.3,10.8-3.1,14.2c-0.8,0.4-1.2,1.8-1.6,2.8c-3.9,10.2-5,10.9-15,8.8c-3.7,4.7-7.9,3.4-12.3,1c-0.2-4.6-0.8-9.3,4.2-12.2
		c0.6-0.3,1-1.1,0.6-1.7c-2.8-4.1-3.9-9.9-8.9-11.8c-5.6-2.1-9.8-5.5-12.5-10.3c-1.1-1.9-2.3-1.5-3.6-1.9c-6-1.9-9.1-4.6-9.3-8
		c1.8-1.4,3.5-2.7,5.3-4.1c0.6-0.7,0.8-1.4,2.1-1.7c6.6-1.3,6.5-1.5,4.4-8.6c2.9-2.8,7.8-0.3,10.3-4.1c1.5-1.8,3.2-1.4,5.2-0.7
		c10,3.5,19.6,8,29.7,11.3c4.8,1.6,7.3,7.3,9.6,12.1c1.8,2.9,3.7,5.8,5.5,8.8C-533.2,628-533.3,629.4-533.3,630.7z"/>
	<path class="st9" d="M-538.7,617.9c-7.7-8.5-17.9-11.8-28.6-14.5c-5.8-1.5-11.2-4.4-16-8.2c-7.3-0.2-8.6-8.4-14.3-11
		c-1.7-0.8,0.4-2.7,1.8-3.1c3.1-1,6.2-1.9,7.2-5.4c2,0.9,2,2,1.8,3.1c-1.1,5.7,0.9,8.4,6.7,8.9c6.2,0.6,12.1-0.4,17.7-3
		c1.3,1.7,2.6,3.5,3.9,5.2c4.2,2.1,5.5,7,9.3,9.5c0.7,0.5,2.1,2.2,2.8-0.2c1.3-2.9,3.1-4.4,5.7-1.3c2.3,2.7,8.7,3.8,4.7,9.3
		C-538.5,610.5-539.5,613.9-538.7,617.9z"/>
	<path class="st2" d="M-574.2,554.6c5.8,5.2,11.5,10.3,17.3,15.5c-1.4,4.8,2.1,8.5,3.1,12.9C-563.8,575.7-570.4,566.2-574.2,554.6z"
		/>
	<path class="st2" d="M-546.4,599.1c1.3,0.8,2.7,1.5,4,2.3c1.9,1.1,3.4,2.8,1.6,4.7c-1.9,2.1-2.9-0.7-4.1-1.6
		c-5.2-4.2-11.3-7.7-13.6-14.6C-551.8,589.5-550,595.5-546.4,599.1z"/>
	<path class="st2" d="M-290,805.9c-1.8-9.3-10.5-9.9-16.9-13c-3.3-1.6-6.8-3-10-4.8c-5.6-3.1-11.5-3.8-16.7,0.3
		c-3.9,3.1-5.9-1.5-8.9-1.1v0c-0.9-3.4-1.9-6.6-4.8-9.1c-4.9-4.2-2.8-10.8-4.8-16c-0.9-2.4,2.4-3,4.6-2.3c2.1,0.6,3.6,2.4,5.3,3.8
		c5.7,4.9,12,7,19.4,4.5c2.4-0.8,4.3-0.6,5.3,2c3.1-0.3,6.3-2.2,9.8,1.3c-4.2,1.8-8,3.5-12.4,5.5c3.2,3,6.6,2.2,9.7,2.3
		c3.7,0.2,7.5,0,11.2,0.2c2.4,0.2,6.2-1,6.7,2.2c0.5,2.8-3.8,1.9-5.8,3.5c2.7,2.5,4.6,6,8.7,2.3c0.9-0.8,2.5-0.9,3,0
		c3.1,5.8,10.7,5.6,14.3,11c1.9,2.9,4.5,5.5,1.9,8.7c-2.9,3.5-6.7,2.5-10.1,0.3c-1.1-0.7-2.1-1.6-3-2.5
		C-286.1,802.5-288.2,803.2-290,805.9z"/>
	<path class="st2" d="M-446.5,684.7c5.2,2.8,6.1,9.7,11.8,11.9c2.4,2.7,8.5,4,3.1,9.7c-1.7,1.8,0.5,5,1.4,7.4
		c2.4,6.5,4.1,13,1.6,19.8c-0.5,1.2-0.8,2.8-2.4,2.6c-0.9-0.1-1.9-1.2-2.3-2c-1.3-3.4-6.2-5.2-3.3-10.4c1.5-2.8-2.5-5.1-3.7-7.8
		c-2.5-5.6-3.7-11.2-3.5-17.2C-443.6,693.8-444.5,689.1-446.5,684.7z"/>
	<path class="st2" d="M-414.9,766.2c-3.5,1.2-4.9-0.6-5.3-3.8c0-10.9,0-21.9,0.1-32.8c0-4.2,0.3-8.3,2.6-12h0c4,1.2,3,5.1,4,7.8
		c3.9,11.4,3.4,23.6,6.5,35.2c0.6,2.1-0.1,4-3.4,3.7C-411.8,764.2-413.6,765.1-414.9,766.2z"/>
	<path class="st0" d="M-446.5,722.8c2.8,3.2,4.3,7.1,5.2,11.1c0.6,2.5-0.5,5.1-2.6,6.3c-1.7,1-2.9-1.5-4-2.6
		C-453.6,732.2-453.2,728-446.5,722.8L-446.5,722.8z"/>
	<path class="st0" d="M-446.5,722.8c-2.9-2.3-3.8-5.5-4.3-10.7C-446.7,715.8-446.8,719.4-446.5,722.8
		C-446.5,722.8-446.5,722.8-446.5,722.8z"/>
	<path class="st2" d="M-414.9,766.2c3.3-3.2,3.3-6.8,2.5-11.2c-2.1-12.4-3.5-24.9-5.1-37.3c0.8-0.7,1.6-1.4,2.4-2.1
		c3.6,6.7,6.2-1.1,9.4-0.6c8.2,0.9,15.5,3.3,19.8,11.3c0.9,1.8,1.2,3-0.1,4.5l-0.5,0.3c-3.1,6.7,0.1,12.1,3.2,17.6
		c1.1,1.9,4.8,3.5,2.3,5.8c-2,1.8-4.5-0.7-5.7-2.8c-1.7-3.3-2.7-2-5.2-0.5c-7,4.5-3.4,10-1.6,14.8c1.8,5,2.6,10.5,6.2,15
		c1.8,2.3,4.4,5.6,0,8.3c-4.5,2.8-10.8,2.1-12.9-1.7c-1.2-2.3-2.4-5-2.3-7.4C-402.2,771.3-407.2,767.6-414.9,766.2z"/>
	<path class="st2" d="M-385.9,730.7c-4.1-5.5-7.8-11.4-15.9-11.7c-1.9-0.1-3.1-2.2-3.8-4.1c-0.8-1.8-1.6-3.5-2.5-5.3
		c-0.9-1.8-1.8-3.7,0.1-5.4c2.1-1.8,3.5,0,5,1.3c4.2,3.8,9,6.9,12.2,11.7c2,2.9,5.1,4.7,8,6.7c1.2,0.8,4.2,0.9,2.7,3.4
		C-381.3,729.3-382.2,732.8-385.9,730.7z"/>
	<path class="st0" d="M-513.6,832c7,3.6,8.7,8.3,4.8,14.7c-2,3.3-4.7,6.2-7.1,9.2c-1.3,1.7-2.7,0.8-4,0.1c-2.1-1-3.9-0.5-5,1.6
		c-1.2,2.3,0.2,3.6,2.1,4.7c-2.8,1-5.1-0.1-7.4-1.5c-2.1-1.3-4.4-2.6-6.8-2c-4.6,1-8.3,0.1-12.2-2.5c-3.5-2.3-7.3-0.1-10.4,2
		c-5,3.5-10.2,2.8-16.1,2.9c-14.1,0.2-27.6-7.3-41.9-2.3c-2.9,1-5.9,0.2-7.6-2.4c-3.8-5.8-7.2-5.3-10.8,0.2
		c-0.5,0.8-1.8,1.2-2.7,1.8c-9.5-0.6-14.3-5.7-15.2-15.2c-0.3-3.2-2.5-6-5.9-7.2c-2.2-0.5-2.5-2.1-1.1-3.3c2.7-2.4,3.9-5.8,6.1-8.5
		c4.5-5.5,6.8-5.5,10.6,0.4c0.7,1,0.8,2.5,2,3.4c2.5-2.5,0.8-8.2,6.4-8c3.3,0.1,2.5,3.2,3.8,4.8c0.4,0.8,0.7-0.9,0.2-0.1
		c-0.2,0.3-0.4,0.3-0.6-0.2c-2.3-5.7-5.2-11.2-3.1-17.9c1.4-4.5,3.5-7.4,8.2-7.9c-2.6-0.8-5.5-1.8-4.9-5.5c0.6-3.5,2.1-5.8,6.4-6.4
		c4-0.6,8-1.4,12.1-1.7c5.7-0.4,7.8,2.2,8.5,7c0.4,2.8,1,4.8,4.6,4.7c3.7-0.2,6.1,2,7.4,5.4c1.6,2.2,2.7,4.5,1.2,7.2
		c2.7-4.7,5-5.4,7.8-1.3c4.5,6.5,9.9,12.9,9,21.7c-0.3,3,0.6,6,1.2,9.4c-0.1,0.4,1-0.7,0.1-0.5c-0.3,0.1-0.5-0.2-0.3-0.5
		c5.5-8.9-1.6-15-4.8-22c-2.2-4.8-5.7-8.8-3.9-15c1.9-6.6,2.5-7.5,9.2-5.7c1.5,0.4,3.1,0.2,4.5,0.9c1.8,4.2,5,7.7,5.2,12.6
		c0.1,1.8,2,2.9,4.2,2.2c0.7-0.3,1.3-0.2,1.9,0c1.4,0.9,1.3,2.6,2,3.9c2,3.5,1,8.7,5.4,10.8c5.6,2.7,11.9,3.5,17.9,3
		C-525.6,828.5-519.7,830.7-513.6,832z"/>
	<path class="st0" d="M-946.1,882.1c0.1,1.5-0.4,2.7-2.1,2.5c-1.8-0.2-2.5-1.6-2.7-3.2c-0.1-1.4,0.3-2.8,2-2.5
		C-947.2,879.1-946.5,880.6-946.1,882.1z"/>
	<path class="st10" d="M-974.6,860.6c-0.7,0.6-1.2,1.2-1.6,1.2c-1,0-1.4-0.9-1.5-1.8c-0.1-1,0.4-1.8,1.5-1.4
		C-975.6,858.9-975.2,859.8-974.6,860.6z"/>
	<path class="st0" d="M-595.1,805.7c-5.3-3.7-11.2-6.8-12.8-14.1c-0.8-3.9-4.5-3.5-7.6-3.7c-4.3-0.3-8.3,0.2-11.5,3.5
		c-0.8,0.9-0.8,2.7,0.3,2.7c9.2-0.2,4,6.3,4.8,10c0.1,0.5-0.4,1.2-0.6,1.8c-8-3.5-8.3-3.4-9.3,5.3c-0.6,5.5,0.7,10.4,4.2,14.7
		c1.6,2,3.7,4.1,0.9,6.1c-3.2,2.3-3.9-1.1-5.1-3c-0.9-1.5-1.3-3.3-3.5-4.2c-1.4,2-2,4.3-1.2,6.5c1,3.2-0.5,4.5-3,5.5
		c-2.6,1-4.3-0.5-5.4-2.5c-0.9-1.5-1.4-3.2-2-4.8c-0.5-1.5,0.3-4.2-2.1-4.1c-2,0.1-3.9,2.7-3.5,4.2c2.2,7.3-3.5,5.5-6.9,6.4
		c-2.2,2-4.6,2.7-7.1,0.8c-2.9-2.2-3.5-5.5-2-8.3c3.6-6.6,1.5-10.8-4.3-14.6c-3.2-2.1-4.9-5.6-4.3-9.7c0.2-1.6,1-3,2.6-3.5
		c1.9-0.5,3,0.7,3.4,2.3c0.7,2.9,2.1,4.9,5.5,4.2c3.9-0.8,4-4,3.5-6.7c-2-11.2-2-22.9-4.8-33.7c-1.9-7.5-4.7-14.7-5.5-22.5
		c-0.3-3.4-2.1-6.8-6.6-7c-0.9-0.7-2-1.3-1.3-2.8c0.3-2.5-0.3-4.7-1.5-6.8c-3.4-5.5-0.7-6.3,4.2-5.4c1.7,0.3,3.4,0.3,5.2,0.5
		c5.9,8.9,13.1,16.6,21.1,23.6c2.6,5.7,6.5,10.7,10.4,15.4c2.3,2.9,3.5,5.4,3.4,8.9c-0.1,2.6-0.3,5.6,2.8,6.6
		c1.6,0.5,4.9,3.1,4.2-2.3c-0.3-2.7,2-4.3,4.8-3.5c1.9,0.5,3.9,0.5,5.8,0.8c0.8,0.5,1.5,1.1,2,1.9c3.4,3,5.4,8.3,11.4,7
		c1.5-0.3,2,0.9,2.4,1.6c2.8,5.9,6.2,11.4,10.2,16.6C-592.8,801.3-592.6,803.9-595.1,805.7z"/>
	<path class="st11" d="M-756.1,858.6c-0.7,4.3-0.2,8.8-3.6,12.3c-5.3,5.4-11.1,4.2-13.2-3.1c-1.2-4.1-2.1-5.3-5.9-1.8
		c-5.2,4.8-21,2.7-24.5-3.3c-2.4-4,1.3-5,4.2-6.2c8.6-3.4,17.5-2.3,25.3,0.7c6.2,2.4,10.8,7.6,13.2-3.2c0.2-0.9,1.8-1.3,2.9-0.7
		C-755.6,854.5-756.1,856.7-756.1,858.6z"/>
	<path class="st2" d="M-680.6,734.5c0.4,0.9,0.8,1.8,1.3,2.8c-0.5,0.8-1,1.7-1.5,2.5c-9.9-4-19.7-8.2-26-17.5c-1.4-2-3-4.2-1.5-6.5
		c1.8-2.6,4.4-1,6.5-0.2c3.7,1.4,6.8,3.7,9.2,7C-689.2,727.2-685.2,731.2-680.6,734.5z"/>
	<path class="st2" d="M-735.7,746.5c-4.4,1.3-6.8,0.5-8.3-2.3c-0.3-0.5,0.2-2.2,0.3-2.2C-740.5,741.9-738.8,744.2-735.7,746.5z"/>
	<path class="st0" d="M-726.2,702.9c-1.3-0.2-1.8-0.8-1.8-1.8c0-1,0.5-1.7,1.5-1.5c1,0.2,1.4,1.1,1.2,2
		C-725.3,702.1-725.9,702.5-726.2,702.9z"/>
	<path class="st0" d="M-911.3,842.5c-2.8-0.2-5.4-0.1-6.4-2.9c-0.9-2.4,0.6-4.2,2.2-5.7c2.2-2,4.5-4.1,6.9-5.9
		c1.3-0.9,3-0.8,4.3,0.3c1.6,1.3,0.9,2.7-0.2,3.9c-0.9,1-1.9,1.9-1.1,3.4C-902,843-908.2,841.5-911.3,842.5z"/>
	<path class="st0" d="M-912.9,885.9c-0.5,0.9-0.7,1.9-1.2,2.3c-1,0.8-2.2,0.2-2.9-0.7c-2.4-2.8-4.7-5.7-7-8.6
		c-0.7-0.9-0.7-2.2,0.3-2.9c0.6-0.4,1.8-0.5,2.4-0.1C-917.5,878.3-915.4,882.1-912.9,885.9z"/>
	<path class="st0" d="M-940.7,826.2c-0.1,1.3-1.1,1.8-2.2,1.8c-1.3,0-2.7-0.3-2.7-2c0-1,1-1.4,1.8-1.4
		C-942.5,824.5-941.2,824.6-940.7,826.2z"/>
	<path class="st0" d="M-935,724.5c-0.3,1.9-1.2,2.7-2.6,2.7c-1.1,0.1-1.7-0.7-1.2-1.7c0.5-1,0.5-2.7,2.1-2.5
		C-936,723.2-935.4,724.1-935,724.5z"/>
	<path class="st2" d="M-675.3,676.8c-0.1-3.9-0.2-7.9-0.4-11.8c-0.2-3.5-1.8-5.9-5.6-5.9c-5.9,0-11-1.5-14.9-6.2
		c-1.2-1.4-3-1.7-4.7-2.1c-2.5-0.6-3.2-2.1-2.2-4.4c2.4-0.4,4.3-1.4,5.8-3.5c4.6-6.6,10.8-7.5,16.8-2.2c2.1,1.9,4.3,1.9,6.7,2.2
		c1.4,5.7,0.6,11.9,3.8,17.2c0,0.9-0.4,1.6-0.8,2.3c-0.8,1.4-1.3,2.8-0.5,4.4c0.1,0.3,0.1,0.3-0.1-0.3c-0.5-2.3,1.1-2.8,2.6-3.6
		c6.2-1.3,9.2,4.1,13.4,6.8c1.4,0.9,2.2,2.6,3.2,4c1.8,2.5,2.5,5.5,3.3,8.3c0.8,2.5,1.1,6.2-3.8,5.5c-2.7-2.3-3.4-6.6-7-7.5
		c-1.2-0.7-0.6,0.8-0.4,0c0-0.3,0.2-0.4,0.6-0.2c3,1.8,4.6,4.8,6.5,7.6c-0.5,2.7-2.2,2-3.8,1.4c-1.7-0.9-3.5-1.9-5.2-2.8
		c-4-0.9-6-4.7-9.3-6.5C-672.8,678.6-674.1,677.7-675.3,676.8z"/>
	<path class="st0" d="M-629.3,762.3c2.8,0.5,5.6,1,8.4,1.5c1.5,0.3,3.2,0.4,3.8,2c0.7,1.9-0.9,2.7-2.3,3.4c-2.8,1.4-2.8,3.6-2,6.1
		c-6.4,0.4-6.4,0.4-1.8,8.6c-4.9-2.7-10.2-2-15.4-2.6c-3.9-0.4-5-3.2-3.7-6.8c1.8-4.9,0.4-8.9-2.7-12.8c-3.6-4.5-5.7-9.8-6.6-15.5
		c3.9,4.4,8.7,7.8,11.9,12.9C-637.5,762.9-633.5,763.8-629.3,762.3z"/>
	<path class="st2" d="M-654.4,686c2.7-1.3,3-3.1,1.8-5.7c-0.9-1.9-1.2-4-1.8-6c0-1.8-1.4-4.2,1.7-4.9c2.2-0.5,3.3,1,4.7,2.3
		c1.1,1,2,2.1,2.9,3.3c-0.7,7.7,3.7,11.8,9.9,15.5c4.5,2.7,6.8,8.1,9.7,12.6c2,3.3,3.1,7.1,6.6,9.4c0.6,0.4,2.1,2.1,0.8,3.7
		c-1,1.3-2.2,0.9-3.5,0.4c-3.7-2.2-8.1-3.1-10.5-7.7c-1.4-2.6-6.3,0.8-9-1.8c0.2-3.4,0.9-6.9-0.2-10.3c-0.5-1.5-1.2-2.8-2.9-3.2
		c-2.8-0.6-1.3,2.7-3.1,3.5c-2.6-3.5-5.9-6.1-9.6-8.3C-656.1,687.8-655.2,686.9-654.4,686C-654.3,686-654.4,686-654.4,686z"/>
	<path class="st2" d="M-710.5,692.3c3.7,1.5,7.1,3.4,8.6,8.4C-707.3,699.7-708.7,695.8-710.5,692.3z"/>
	<path class="st2" d="M-671.5,679.5c3.8,1.2,6.8,3.4,9.3,6.5C-667.5,686.9-669,682.5-671.5,679.5z"/>
	<path class="st2" d="M-676.7,645.2c-2.8-1.1-5.6-2.7-8.5-3.1c-2.7-0.4-7.3-3.3-6.5,3.7c0.3,3.1-3.3,1.5-5,2.2
		c-2.3,0.9-4.7,0.5-6.5-1.6c0.1-1.7,2.1-3.6-0.8-5c-6-2.9-9-8.8-13.3-13.3c1.9-4.3,5.7-6.5,9.7-5.3c5,1.5,8.8-0.1,12.5-2.4
		c1.8-1.1,3.5-1.9,5.4-2.4c3.2-1,5.3,0.3,5.3,3.7c0,4.2,2.2,6.1,5.8,7.1c4.4,3.7,4.2,9.2,5.3,14.2
		C-672.7,645.4-674.1,646.5-676.7,645.2z"/>
	<path class="st12" d="M-680.6,629.3c-1.8-0.4-3.6-1.3-4-3c-1.7-7.2-6-5-11-4c-7.4,1.5-14,5.7-21.7,5.7c-0.5-4.2-2.2-7.2-6.8-7.9
		c-1-2.2-2.2-4.3-3-6.5c-0.7-1.8-1.9-3.9,0.6-5.2c1.8-1,3.5-0.9,5.5,0.5c3.9,2.8,8,5.3,11.1,9.1c4.2,5.1,8.8,5.2,13.5,0.8
		c2.4-2.3,5-3.3,8.3-3.2c4,0.1,7.9-0.1,6,6c-0.6,1.9,0.8,3.8,1.6,5.6C-679.6,627.8-679.4,628.5-680.6,629.3z"/>
	<path class="st2" d="M-725.2,651.6c0-0.2,0-0.4,0-0.7c0.2-2.7-0.6-7.1,2.6-7c3,0.1,5.8,3.5,7.1,6.9c0.6,1.5,0.2,2.5-1.7,2.6
		C-720,653.7-722.9,653.8-725.2,651.6C-725.2,651.7-725.2,651.6-725.2,651.6z"/>
	<path class="st2" d="M-605.5,613.6c3,3.4,6.2,6.4,10.8,2.3c2.4-2.2,3.3,0.4,3.6,1.5c2.1,7.6,8.3,11.5,13.8,16
		c9.8,8,10,8.5,4.8,20.2c-0.5,1.2-1.1,2.4-1.6,3.6c-3.3,4.2,1.9,5.8,2.7,8.7c-0.5,8.8-5.1,12-12.9,9.1c-1.3-0.5-2.5,0.1-3.7-0.1
		c-0.6,0-1.2,0.1-1.8,0.2c-5.6,0-7.4-3.6-8.1-8.3c0.5-0.5,1-0.7,1.7-0.6c4.2-2,5.5-8.5,12.1-7.3c2.1,0.4,2.1-2.8,2.2-4.8
		c0.2-4.6,0-9.1,2.2-13.4c1.3-2.4,0.3-3.1-2.4-3.6C-592.8,635.2-604.6,623-605.5,613.6z"/>
	<path class="st2" d="M-609.7,655.7c0.6,3.9,0.2,10.2,5.2,9.4c4.3-0.8,3.5-6.6,1.7-10.7c-0.1-0.2-0.3-0.5-0.3-0.6
		c3.5-5.3,1.8-9.6-2.2-14c-1.1-1.1,1.2-2.5,2.8-2.6c4.3-0.1,8.4,0.4,10.3,5.1c0.7,1.9,1.7,3.5,3.1,4.9c3.6,3.8,1.1,5.9-2.3,7.2
		c-7.3,2.6-8.1,4.2-5,11.7l-0.1,0.1c-2,3.4-2.7,8-7.6,9.1c-4.4-2.3-7.2-6.2-9.7-10.1c-2.3-3.6-1.2-7.4,2-10.3
		C-611,654.8-610.3,655-609.7,655.7z"/>
	<path class="st2" d="M-629.6,611c5.8-0.3,11.2,1,14.2,5.6c3.4,5.1-0.4,10.6-2,15.5c-0.9,2.9-4.2,1.3-6.3,0.2
		c-2.8-1.5-5.7-3.3-3.7-7.1C-624.8,620.1-627.8,616.1-629.6,611z"/>
	<path class="st2" d="M-601.5,605.9c0.7-2,2.4-4.2-0.4-5.8c-3-1.7-2.9,1.3-3.8,2.8c-0.4,0.6-1.4,1.4-2,1.3c-2.7-0.4-3.9-2.5-4.8-4.8
		c-1.8-4.7,1.1-8,3.7-11.1c1.6-1.9,3.5-0.6,5.2,0.6c4.2,3,6,7.9,9.6,11.5c2.3,2.7,0.1,4.3-1.5,5.8
		C-597.4,608.1-599.6,607.8-601.5,605.9z"/>
	<path class="st2" d="M-609.7,655.7c-0.4,0-0.8,0.1-1.2,0.1c-3.4,0.5-5.2-2-7.6-3.8c-2-1.5-5.1-1.4-7.7-1.9
		c-2.4-1.6-8.6,2.6-7.2-4.7c3.8-0.5,8.5,1,10.5-4.2c0.7-1.2,0.7-3.2,3.1-2.1C-613,642.5-608,647-609.7,655.7z"/>
	<path class="st2" d="M-665.1,628.5c-5,1.8-9.4-2.3-14.3-1.7c1.3-3.9,2.5-8.1,8.1-7.2C-666,620.4-664.9,624-665.1,628.5z"/>
	<path class="st2" d="M-686,516.2c0.7,2.6,2.3,4.6,3.8,6.8c1.1,1.5,4.3,3,1.1,5.2c-2.8,2-4.3-0.2-5.7-2.4c-2.3-3.6-5.7-6-9.9-7
		l0.1,0.1C-694,512.1-693.1,511.9-686,516.2L-686,516.2z"/>
	<path class="st2" d="M-676.6,532c3.5-0.3,6.5,0.3,8.7,2.5c1,1,1.3,2.4,0.3,3.5c-0.9,0.9-2,0.1-2.8-0.6
		C-672.5,535.6-674.5,533.8-676.6,532z"/>
	<path class="st2" d="M-685.9,516.3c0.1-1.8-1.6-3.5-0.2-5.5c2.6,0.5,5,2.1,4.9,4.3c-0.2,2.5-3,1-4.8,1.2
		C-686,516.2-685.9,516.3-685.9,516.3z"/>
	<path class="st2" d="M-517.5,775.4c-4.6,5.9,2.5,8.4,3.9,12.5c0.8,2.3,4.1,3.8,6.1,5.7c2.6,2.6,3.6,7.1,2,9
		c-5.1,6.1-0.3,9.4,2.5,13.5c2.2,2.4,2.1,4.6-1.4,4.9c-7.6,0.7-19.6-9.8-20.9-17.5c-0.2-1,1.2-1.7,0.2-2.4c1.1-1.5,2.8-2.8,0.5-4.8
		c-3.6-3.2-5.4-7.9-8.2-11.7c-3.1-4.3-4.9-8.1-3.9-13.4c0.8-4.4-2.8-7.1-4.7-9.5c5.4,3.8,5,9.9,3.9,16.2c-1.9,2.1-3.8,1.3-5.6,0
		c-1.9-1.3-3.8-1.7-5.8-0.3c-4.4,1.2-4.1-3.5-6.1-4.7c3.8,5,6.7,11.3,12.7,15c2.9,1.8,3.6,4.7,2.9,8c-1.9,3.2,0.7,7.4-2.4,10.3
		c-0.4,2.1,0.7,3.8,1.5,5.6c2.4,5.7,1.3,7.1-4.5,6.9c-5.5-0.2-10.4-2-14.8-5.2l0,0c-2-1-3.4-2.7-4-4.6c-1.5-4.8-4.8-8-8.4-11
		c-4.8-8.1-2.7-16.2,0.4-24.1c2.3-5.7,4.6-11.2,4.9-17.5c0.2-3.9-0.9-6.6-4.1-8.6c-0.2-4.8,0.8-9.2,4-13c5.3-4.1,9.6-0.9,14,1.9
		c3.4,1.4,7.1-0.2,10.5,1.3c7.8,2.2,12.7,8.3,13.5,16.1c0.7,6.8,3.9,12.3,9.8,16.1C-517.2,771.5-514.4,772.5-517.5,775.4z"/>
	<path class="st2" d="M-517.5,775.4c-4.6-3.2-9-6.1-12.9-10.9c-3.1-3.9-3.5-5.5-2.5-9.6c0.9-3.7-0.8-7.2-3.1-10.3
		c-1.5-2-3.1-3.1-5.2-0.8c-4.7-6.1-9.8-12.1-7.5-20.8c2-4.2,4-3.7,6.5-0.2c2.5,3.5,1.6,8.5,4.3,10.7c1.2,1.6,1.5,0,1,0.8
		c0,0.1-0.2,0-0.3-0.2c-4-6.4-5.2-13.8-8.3-20.6c-0.9-1.8,1.1-3,2.5-4.1c3.2-1.4,5.5,0.5,6.4,2.8c2.5,6.7,7.3,12,9.8,18.6
		c5.2,11.3,10.9,22.2,17.5,32.8c3.1,5,7.9,8.1,11.4,12.6c5.6,7.2,5.6,7.6-2.5,11.1C-506.1,783.4-511.8,779.4-517.5,775.4z"/>
	<path class="st0" d="M-326.7,803.1c10.8-1.4,21.2-0.9,30.6,5.4c2.2,1.5,3.5,3.1,2.7,5.9c-1.4,5.5-13,13.1-18.6,12
		c-4-0.8-8.1-1.5-12.1-2.3c-1.2-1-2.4-0.6-3.5,0.1c-2.5,1.5-4.8,3.2-6.3-1.4c-0.5-1.5-3.3,0-4.7-1.3c-0.4-0.4-0.9-0.9-1.3-1.3
		c-0.6-2-2.1-4.3,0.1-6c2.6-2,1.8-3.4-0.3-5c-1.6-1.2-1.8-3-0.6-4.6s3-1.8,4.7-1C-332.8,804.9-329.7,805.5-326.7,803.1z"/>
	<path class="st2" d="M-406.6,784.3c0.2,2.1-0.4,4-2.4,5c-2.3,1.2-4.2,0.3-5.8-1.6c-1-1.1-2.1-2.2-3.3-3.1c-1.2-1-4.1,0-3.8-2.7
		c0.3-2.6,1.1-5.1,1.8-7.6c0.1-0.3,0.6-0.6,1-0.7C-416.5,773.1-406.7,781.7-406.6,784.3z"/>
	<path class="st2" d="M-487.3,736c-1.2,7.9,4.1,15.8,0,23.7C-491,751.8-488.3,743.9-487.3,736z"/>
	<path class="st0" d="M-338.6,821.5c5.1-0.9,9.6,2,14.5,2.6C-329.9,828.6-334.6,827.2-338.6,821.5z"/>
	<path class="st0" d="M-277.8,845.2c-0.4,2-1.2,3.8-3.6,3.8c-1.5,0-3.5-0.5-2.9-2.5c0.6-1.9,2.3-3.2,4.3-3.6
		C-278.3,842.5-277.7,843.7-277.8,845.2z"/>
	<path class="st0" d="M-543.9,804.3c5.6,2.7,6.5,9.8,12,12.6c1.7,0.9,3.6,3.4,4.8,3c7.7-2,9,3.1,10.6,8.5c0.3,1,1.9,1.6,3,2.4
		c0,0.4,0,0.8-0.1,1.2c-11.7,2.1-23.4,0.9-35-0.8c-6.6-1-10.2-7.3-10-14.5c0-1-0.7-2-1-3c4.3,0.3,8.7,0.2,12.9,1
		c4.4,0.8,4.5-0.7,3-4C-544.8,808.5-544.7,806.4-543.9,804.3z"/>
	<path class="st0" d="M-398.4,838.9c-4.2-0.1-6.2-1.9-7.7-4.5c-3.3-6-4.8-12.7-6.7-19.2c-0.4-1.2-0.7-2.9,1.1-3.2
		c1.5-0.3,2.1,1.3,2.7,2.4c2.8,5.7,5.6,11.3,8.8,16.8c2.2,3.8,3.5,4.1,5.7,0.4c1.1-2,1.3-5,4.8-4.2c1.1,0.3,2,1.1,2,2.3
		c0.1,2.8-0.8,5.2-3.7,6.4C-394,837.1-396.6,838.1-398.4,838.9z"/>
	<path class="st0" d="M-396.3,804c0.2-2.2,0.2-4.9,3-4c3.8,1.2,7.1,4.1,7.8,7.9c0.5,2.9-3.4,4-5.8,3.8
		C-395.9,811.2-395.5,806.9-396.3,804z"/>
	<path class="st0" d="M-567.8,747.6c2.6-1,3.7,0.3,3.9,2.7c0.4,5.4,1.7,11.3-0.8,16.1c-5.2,10-6.7,20.4-6.8,31.4
		c0.7,0.5,0.7,1-0.1,1.5c-5.5-1.2-9.1,2.7-7.1,8.5c1.6,4.5,2.9,9.2,6.6,13.2c4,4.3,7,10.3,2.5,16.7c-1.1,1.5-1,3.3-0.7,5
		c0.2,1.5,0.7,3.3-1.3,3.9c-1.8,0.5-2.9-0.8-3.4-2.3c-1.9-5.1-4.7-10-3.8-15.7c1.4-8.3-5.4-12.4-8.2-18.8c-2.1,1.7-1.2,3.1-1.4,4.3
		c-0.2,1.3-0.4,2.8-2,3c-1.7,0.2-2.2-1.2-2.6-2.5c-0.9-2.9-1.6-5.9-2.4-8.8c-3.7-6-7.4-12-11.2-18c-0.7-1.1-1.8-2.8-2.6-2.7
		c-6.4,0.7-8.1-4.7-11.2-8.3c3.3-1.5,5.8-2.5,10,0c4,2.4,10.1,1.5,15.2,1.7c2,0.1,1.8-1.6,1.9-3.3c0.2-4.1,0.7-8.1,1.5-12.1
		c1-5.5,4.4-6.5,9.2-3.1c5.1,3.6,7.3,2.9,9.4-2.8c-1.3-2.3-2.4-4.7-0.4-7.2C-571.8,748.3-570.7,745.6-567.8,747.6z"/>
	<path class="st0" d="M-571.5,799.2c0-0.5,0-1,0.1-1.5c6.2,3.6,9.3,9.5,11.8,15.8c-3,0.3-5-1.3-5.8-4
		C-566.6,805.6-569.2,802.5-571.5,799.2z"/>
	<path class="st2" d="M-570.2,751.8c-0.2,2.1-1.5,3.7-2.7,5.3c-2.4,1.6-4.8,1.7-7.3,0c-7-4.6-14.5-5.1-22.6-3
		c-6.9,1.8-14.7-5-14.3-12.5c0.5-8.7-1.9-16.8-4.6-24.9c-2.7-9-8.4-16.2-14.6-23.1c-1.9-2.1-4.1-3.9-6.5-5.3
		c-4.8-2.8-6.1-6.4-3.8-11.4c0.5-0.5,0.9-0.9,1.3-1.3c1.8-2.1,2.9-1.6,4.5,0.5c6.6,8.6,15.7,15,20.9,24.8c1.5,2.8,5.7,1.7,7.9,4.2
		c3.6,4.2,6,9.4,6.1,14.2c0.1,4.7,2.9,7.9,3.4,11.6c-1-3.9-4.4-7.6-2.8-12.7c2-6.3,6.3-8.1,11.9-4.5c2,1.3,3.9,2.7,6.3,3.4
		c3.4,0.9,4.1,3.2,3.5,6.5c-1.3,7.3,0,8.6,7.7,9.1c3.2,0.2,7.5-1.5,8.1,4c-0.3,1.8-1.4,3-2.6,4.3
		C-575.2,746.3-575.2,746.3-570.2,751.8z"/>
	<path class="st2" d="M-654.3,686c-4.1-2.1-7.9-4.6-10.9-8.1c-0.9-1-1.4-2.3-0.2-3.5c0.9-0.8,2.2-0.8,3,0
		C-659.1,677.8-653.5,679.6-654.3,686C-654.4,686-654.3,686-654.3,686z"/>
	<path class="st13" d="M-673.1,661.3c1.4,1.3,2.8,2.5,4.2,3.8c0.3,2.8,1.3,5.6-0.8,8.2c-0.6,0.8-1.6,1-2.3,0.3
		c-2.8-2.3-2.1-5.5-2-8.5C-674,663.8-673.4,662.6-673.1,661.3z"/>
	<path class="st2" d="M-575.5,666.4c3.5,3.8,7.1,7.7,11.5,10.7c1.2,0.8,3,1.8,2.3,3.6c-0.8,1.9-2.6,1-4,0.7
		c-5.3-1.3-10-4.9-16.2-3.1c-2.7,0.8-5.5-2.1-6.5-5.4c1.2-1.1,1.8-2.4,2-4c0.2-1.7,1-3,3-2.6c1.6,0.3,2.5,1.4,3.1,3
		c0.5,1.4-2.4,4.5,1.5,4.2c2.6-0.2,3-2.8,3.3-5C-575.5,667.7-575.6,667-575.5,666.4z"/>
	<path class="st2" d="M-588.5,672.8c-9.7-2.6-10.2-2.2-7.8,7.5c-4.4-0.7-4.8-4.8-6.8-7.2c2.2-2.3,4.5-4.5,6.7-6.8
		C-594.1,668.8-589.2,668.2-588.5,672.8z"/>
	<path class="st2" d="M-574,646.5c-1.4-1.6-1.3-3,0.2-4.3c0.2-0.2,1,0,1.1,0.2C-572,644-572.1,645.4-574,646.5z"/>
	<path class="st2" d="M-568.8,737.3c-2.9-1.2-6-1.2-9-1c-11.1,0.4-14-3.8-9.6-14.1c-2.2-0.9-5.2,0.2-6.5-3c-0.9-2.2-2.5-5.6-5.7-3.5
		c-3,2-4.5,5.6-2.7,9.2c1.7,3.3,3.8,6.4,5.8,9.5c1,1.6,1.7,3.3-0.2,4.7c-1.8,1.3-3.3,0.4-4.5-1.1c-2.6-3.3-5.7-5.7-5.6-11.1
		c0.1-6-3.1-11.7-6-17.2c-0.7-1.2-1.8-3.4-3.4-1.9c-3.9,3.5-4.5-0.5-5.4-2.4c-1.9-4-4.3-7.6-6.9-11.1c-2.3-3-3.9-6-8.7-6.9
		c-5.2-1.1-5.4-7.8-7.9-12c-2.5-4.3-0.5-11.2-7.8-13c-1.7-0.4-1.2-3.1,0.2-4.5c1.9-1.9,3.8-3.2,6.9-1.7c4.4,2.3,9.2,3,14.1,2.1
		c2.7-0.5,4.6,0.5,6.2,2.5c-1.8,0.5-4.8-1.6-5.3,1.8c-0.4,2.5,1.1,4.2,3.5,4.8c6.1,1.5,9.7,6.3,14,10.2c-1.1,5.4,3.6,7,6.6,9.6
		c2.5,2.1,5.5,3.6,6.8,6.9c2.1,5.3,6.5,7.2,11.8,8.2c7.1,1.3,12,5.4,16.5,11.3c4.8,6.2,9.5,14.1,19.3,14.4c1.4,0,2.7,1.3,3.5,2.6
		c2.5,4.7,0.5,6.9-4.1,7.8c-3.8-1.6-7.6-3.2-11.9-2.7C-567,734.2-566.7,739.1-568.8,737.3z"/>
	<path class="st2" d="M-622.8,650.4c5.4,7.2,5.4,8.2,0,10.5C-624.6,657.5-625,654-622.8,650.4z"/>
	<path class="st2" d="M-553,738.6c1.3-2,2.3-4.1,1.2-6.5c-3.2,0.8-4-2.2-5.7-3.7c-9.4-8.1-16.7-18.4-26.8-25.8
		c-2-1.5-1.8-3.1-0.3-4.8c4-3.7,18-7.9,22.4-6.6c1.1,4.1,4,7.6,3.5,12.2c-0.3,2.2,2.1,3,3.5,4.3c4.5,4.1,8.9,8.3,8.7,15.1
		c-0.5,7.6,5.1,13.6,5.3,21C-546.2,744.4-549.2,740.6-553,738.6z"/>
	<path class="st2" d="M-522.8,801.7c-7.7-6.8-12.5-15.4-15.8-25c2.2-9.1-6.1-15-6.6-23.4c4.2,6.1,8.4,12.1,12.5,18.2
		c0.1,0.2,0.3,0.4,0.3,0.6c-5.3,12.5,7.9,16.9,11.2,25.7c0.9,2.3,3.2,4.1,3.4,7C-520.2,804.7-521.1,802.6-522.8,801.7z"/>
	<path class="st2" d="M-549.2,775.7c3.5,5.2,7.1,10.4,10.6,15.5c1.3,2,2.6,4-1.4,4.3c-0.3-0.1-0.7-0.3-1-0.4c-0.4-3.3-2.7-5.4-5-7.4
		c-5.5-4.7-10.1-10.2-13.9-16.4c-0.9-1.4-2.3-3.2-0.4-4.7c1.6-1.3,3.3,0,4.8,0.9C-552.7,769.6-551.2,772.9-549.2,775.7z"/>
	<path class="st2" d="M-568.8,737.3c1.2-1,1.7-2.8,3.6-3c0,0,0.2,1,0.2,1.5c-2.8,3.5-2.3,7.8-2.8,11.8c-0.8,1.4-1.6,2.7-2.4,4.1
		c-2.6,1.2-5.2,4.3-7.9,0.5c-2.4-3.3-0.8-10.3,2.7-12.2C-573.3,738.9-571,738.2-568.8,737.3z"/>
	<path class="st2" d="M-540,795.5c0.5-1.4,1-2.8,1.4-4.3c7.5,5.7,11.2,13.9,13.8,22.9C-530.3,808.2-537,803.5-540,795.5z"/>
	<path class="st2" d="M-546.5,722.9c-2.1-1.3-3.4-3.3-4.8-5.3c-1.4-2-2.6-4.9-4.5-5.5c-12.2-4-5.8-13.5-6.5-20.9
		c2.2,1.7,4.4,3.5,6.6,5.2c3.6,5.6,9.3,9.2,13.2,14.5l0-0.1c5,9.5,4.8,20.9,11.2,30C-539,736.9-542.6,729.8-546.5,722.9z"/>
	<path class="st2" d="M-584.6,697.8c10.9,11.4,21.8,22.8,32.8,34.3c-3.5,2.7-5.3-0.6-7-2.3c-4.7-4.6-9.6-8.8-14.8-12.8
		c-0.8-0.6-2-1.5-2.1-2.3c-0.6-6.7-5.8-7.5-10.7-8.3c-7.5-1.2-14.8-2.5-17.3-11.3c-0.6-2.1-2.7-2.6-4.6-3.2
		c-5.1-1.6-5.3-7.1-7.9-10.6c-1.2-1.6,1.7-2.5,3.1-3.4C-604.6,685.7-594.4,691.5-584.6,697.8z"/>
	<path class="st2" d="M-542.4,710.9c-5.1-4.2-10.4-8.2-13.2-14.5C-550.6,700.7-545.7,705-542.4,710.9z"/>
	<path class="st2" d="M-605.4,705.3c3.6,1.7,7.7,1.2,8,5.5c0.1,1.8-2.6,2.7-4.1,2.3C-604.9,712.1-604.6,708.8-605.4,705.3z"/>
</g>
<rect x="1038.9" y="657.5" transform="matrix(0.3881 -0.9216 0.9216 0.3881 28.5483 1763.4158)" class="st2" width="606.8" height="405.4"/>
<polygon class="st1" points="1411.3,1218.6 1037.7,1061.2 1408.2,1206.2 1646.8,659.3 "/>
<g id="x1Rvbo_00000085224910109066410640000008000296110033192619_">
	<g>
		<path class="st2" d="M-705.8,388.9c-14.6-9.4-17.9-26.3-6.7-39.4c20.7-24.3,41.6-48.5,63.2-72.1c17-18.6,34.7-36.7,53-54.1
			c16.8-16,34.1-31.5,52.4-45.7c10.1-7.9,22.5-12.9,34-19.1c6.8-3.6,12.2-8.4,16.2-17c-5.8,0.4-10.3,0.5-14.8,1
			c-33.4,3.4-66.9,6.7-100.3,10.2c-7.7,0.8-15.3,2-22.8,4c-11.4,2.9-19.6,10.4-26,20.1c-2.2,3.4-4.9,6.5-8.1,10.8
			c4.3-9.1,8-16.9,11.7-24.7c0.2-0.5,0.7-1.1,1.2-1.3c11.4-3.4,21.5-9.7,34-10.7c35.5-2.9,70.9-7,106.3-10.6
			c3.4-0.4,6.8-1.1,10.3-1.5c8.1-0.9,8.6-1.4,7.7-9.4c-0.1-1.4-0.3-2.8-0.5-4.8c-6.1,0.6-12,1-17.8,2c-17.4,2.9-34.8,6.2-52.2,9
			c-8.6,1.4-17.4,1.9-26,3.2c-14,2.2-27.9,5-41.9,7.4c-6.9,1.1-13.8,2.1-20.7,2.6c-1.9,0.1-3.9-1.7-6.3-2.8c0.4,4.2,0.8,7.9,1,11.6
			c0.5,9.1-3.6,16.6-8.7,23.6c-8.5,11.4-17.2,22.6-26,33.8c-7.4,9.5-7.6,12.8-2,23.7c1.6,3.1,2,6.9,2.9,10.2
			c-9.4,4.4-9.7,5.2-3.8,12.8c3.1,4,6.6,7.7,8.9,12.7c-4.2-3.9-8.6-7.7-12.6-11.8c-3.8-4-7.9-6.7-13.8-6.4c-5,0.2-8.1,2.2-9.7,6.8
			c-2.7,8.2-6.9,15.4-14.9,19.3c-3.2,1.6-7.4,3-10.6,2.2c-18.9-4.7-30.9-18-40.1-34.2c-12-21.2-13.1-43.9-9.3-67.5
			c4.3-26.7,17.7-47.2,40.4-61.8c17-10.9,35.4-15.5,55.3-10.4c9.4,2.4,18.7,5.6,27.7,9.2c11.4,4.6,23.2,5,34.8,3.6
			c28.8-3.5,57.6-8,86.3-12.4c15.4-2.4,30.7-5.5,46-8.2c7.4-1.3,12.9-5,17.9-10.7c5.3-6.1,12-11,17.5-16.9
			c14.8-15.9,29.3-32.1,43.8-48.2c10.3-11.5,20.3-23.3,30.7-34.7c22.6-24.6,45.2-49.1,68.2-73.3c16.8-17.7,34.1-34.9,51.5-52.1
			c8.2-8.1,16.4-16.3,25.6-23.1c14.1-10.6,29-20.1,43.7-30c1-0.7,2.5-0.5,4.6-0.9c-1.3,4.2-2.3,7.6-3.9,12.9c6-4,10.5-7.1,15-10.1
			c0.2,0.2,0.4,0.4,0.5,0.7c-6.7,5.4-13.2,11-20.1,16.1c-27.3,20.6-51.7,44-72.8,71.1c-16.8,21.5-34.2,42.4-51.3,63.6
			c-1.3,1.6-2.8,3-4.3,4.4c-5.4,5.2-10.4,10.3-14.2,17.1c-3.6,6.5-10.1,11.4-15.3,17.1c-2,2.2-3.7,4.7-5.7,6.9
			c-2.3,2.5-4.8,4.9-7.1,7.4c-1.1,1.2-2.6,2.6-3,4.1c-1.2,4.7-3.3,8.1-8.7,8.9c-4,0.6-5.4,3-3.8,7.1c1.7,4.5-0.5,6.3-4.9,6.8
			c-2,0.2-3.9,1.2-6.7,2.1c5.4,3.2,9.6,5.7,13.9,8.3c-0.1,0.4-0.3,0.8-0.4,1.2c-3.1-1-6.2-2.1-9.3-3.1c7.5,5,13.9,10.4,13.2,20.5
			c-2.2-1.4-4.3-3.9-6-3.6c-1.8,0.4-3.1,3.2-4.4,4.8c-2.1-1.7-4.4-3.8-6.9-5.6c-0.2-0.2-2.5,1.8-2.4,2.1c1.1,2.3,2.6,4.5,4.3,7.2
			c-0.8,0.8-2,2-3.4,3.4c3.3,5,8.2,3.7,13,3.1c-5,4.8-11,6.2-16.7,3.3c-5.1-2.5-9.2-6.9-14.7-9.9c4.9,5.8,9.9,11.6,14.8,17.4
			c-0.6,0.6-1.2,1.3-1.8,1.9c-4.4-2.5-8.9-5-13.3-7.5c-1.1-0.6-2.2-1.4-3.4-1.8c-0.2-0.1-1.4,1.4-1.3,1.6c0.6,1.1,1.4,2.4,2.5,3
			c3.9,2.2,8,3.9,9,9.1c0.6,3.7,0.1,5.7-4,6.5c-2.2,0.5-4.6,2.2-6,4c-3.9,5.3-8,9-15.4,9.1c-5.3,0.1-11,2.3-15.8,4.8
			c-5.6,2.9-5.9,9.1-7.4,14.7c-1.2,4.4-4,8.4-6.6,13.4c10.8,2.7,22.3-1.8,33.6,1.2c-6.2,0.7-12.5,2.1-18.8,2
			c-11.9,0-20.2,7.6-29.8,12.6c-7.2,3.7-14,8.1-21.1,11.9c-1.4,0.8-3.6,0.8-5.2,0.3c-5.4-1.4-8.4,0.9-10.9,5.4
			c-0.9,1.5-3.4,2.1-5.2,3c-0.9,0.4-2.1,0.1-2.8,0.6c-6.3,5.1-13.3,9.6-18.7,15.6c-34.1,37.5-68.2,75.1-101.6,113.2
			c-13.8,15.7-26.3,32.7-38.8,49.5c-3.5,4.7-4.9,10.9-7.2,16.4C-705.9,388.9-705.8,388.9-705.8,388.9z M-752.9,142.9
			c-3.4,5-7.1,9.8-10.3,14.9c-13.1,21-12,42,0.9,62.5c7.4,11.7,19.6,14.6,30.4,6.1c23.1-18.2,44-38.5,58.5-64.6
			c6.8-12.2,3.7-24.2-8.8-30.1C-704.7,121-735.1,122.9-752.9,142.9z M-748.6,127.1c-0.4-0.5-0.8-1-1.2-1.5
			c-6.3,4.6-13.1,8.8-18.9,14c-17.8,16.2-27.8,36.2-28.5,60.5c-0.4,12.6,0,25,10.1,35.9c0.6-2.5,1.2-4.2,1.5-6c0.7-4,0.1-8.7,2.1-12
			c9.3-15.9,8.6-32.3,5.2-49.6c-1-4.9,1.2-11.3,3.8-15.9c5.5-9.5,12.9-17.6,23-22.8C-750.3,129.3-749.6,128-748.6,127.1z
			 M-437.3,78.7c-6,1.5-7.2,5.6-7,10.2c0,1.4,1.5,2.8,2.3,4.2c1.3-1.1,3.6-2,3.9-3.3C-437.5,86.3-437.6,82.7-437.3,78.7z
			 M-446.1,119.2c0.1,0.6,0.2,1.1,0.2,1.7c2.8-2.3,5.9-4.4,8.4-7.1c1.2-1.2,1.3-3.5,1.6-5.4c0-0.2-2.4-1.4-3.1-1
			c-1.6,0.9-3.2,2.3-4.1,3.8C-444.4,113.7-445.1,116.5-446.1,119.2z M-669.4,173.2c-0.4-0.3-0.7-0.6-1.1-0.9
			c-5.9,7.3-11.9,14.5-17.8,21.8c0.3,0.3,0.6,0.5,0.9,0.8C-681.3,187.7-675.3,180.5-669.4,173.2z M-438.1,101.8
			c-0.1-0.6-0.2-1.1-0.2-1.7c-2.7,1.3-5.8,2.3-8.1,4.2c-1.5,1.2-1.7,3.9-2.5,6c0.4,0,0.8,0.1,1.2,0.1
			C-444.5,107.5-441.3,104.7-438.1,101.8z"/>
		<path class="st2" d="M-374,81.7c4.7-5.8,9.3-11.6,14.3-17.7c-10.7-6.9-21.1-14.3-27.4-25.7c0.4-0.5,0.8-1.1,1.3-1.6
			c2.7,1.9,5.4,3.7,8.1,5.7c5.8,4.2,11.5,8.4,17.2,12.7c3.1,2.3,5.2,1.6,7.6-1.4c26.4-33.3,53.6-66,79.3-99.8
			c23.2-30.4,44.9-62,67.2-93c1.4-2,2.8-3.9,5-7c-0.3,2-0.4,2.6-0.6,3.8c8.8-5.4,17.3-10.8,26-15.9c2.8-1.6,5.9-4.8,9.2-1.2
			c3.7,4-0.5,6.5-2.4,9.4c-0.3,0.4-0.4,1-0.6,1.6c4.8,1.5,6.6-10.1,12.4-2.7c3.2-1.9,6.3-3.9,9.5-5.8c0.7,0.5,1.4,1,2.2,1.5
			c-1.2,3.6-1.5,7.9-3.7,10.6c-7.7,9.4-16.2,18-24,27.3c-2.2,2.6-2.2,6.9-4.2,9.7c-4.6,6.2-9.5,12.2-14.8,17.8
			c-15.8,16.4-31.8,32.6-47.8,48.9c-7.5,7.6-15,15.1-22.7,22.4c-33.4,31.6-66.9,63.2-100.4,94.7c-2.9,2.7-6.2,4.9-9.3,7.4
			C-373,82.6-373.5,82.2-374,81.7z"/>
		<path class="st2" d="M-705.9,388.9c1.5,0.9,2.9,1.8,5.5,3.3c-0.3-3-0.7-4.7-0.6-6.4c0.1-1.8,0.7-3.5,1.2-6.1
			c7.4,11,17.1,16.8,29,19.8c12,3,23.4,1.8,34.6-3c18.3-7.8,34.6-18.7,49.9-31.5c25.4-21.2,45.5-46.6,60.1-76.1
			c9.5-19.2,16.9-39.2,14.9-61.3c-0.3-3.2-1-6.5-2.1-9.5c-3.1-8.2-7.5-10.8-16.2-11.1c-13.6-0.5-23.4,6.9-32.9,15.2
			c-1.2,1-2.4,2.1-4.3,2.5c5-5.5,9.3-11.8,15-16.5c6.8-5.6,15.3-8.6,24.2-7.2c17.4,2.8,28.1,17.3,27.3,34.9
			c-1.3,30.6-11.4,58.3-28.6,83.1c-11.2,16.1-23.3,32-37.3,45.6c-18.2,17.6-38.2,33.7-62.4,42.8c-16.1,6.1-33,6.6-49.8,2.7
			c-3.1-0.7-5.6-3.9-8.3-6c-2.7-2.2-5.3-4.5-7.9-6.8c-0.4,0.4-0.9,0.8-1.3,1.1c0.6,1.6,1.1,3.2,1.7,4.7c-1.9,1.5-9.8-8.2-11.7-14.2
			C-705.8,388.9-705.9,388.9-705.9,388.9z"/>
		<path class="st2" d="M-694.8,229.1c7,11.5,14,23,21,34.5c-8-10.9-18-20.6-22.4-33.8C-695.8,229.6-695.3,229.3-694.8,229.1z"/>
		<path class="st2" d="M-465.8,167.8c0.9-1.4,1.4-3.6,2.6-3.9c2.5-0.8,5.4-0.6,8.1-0.9c0.1,0.7,0.1,1.4,0.2,2.1
			c-3.2,1.2-6.5,2.5-9.8,3.7C-465,168.4-465.4,168.1-465.8,167.8z"/>
	</g>
</g>
<g>
	<g>
		<path class="st2" d="M91.7,650.1l-33-63.7h36.5l13.3,33.5l13.8-33.5h37.4L125.2,650v31.4H91.7V650.1z"/>
		<path class="st2" d="M200.7,584.5c32.2,0,50.1,20.7,50.1,49.8c0,28.4-18.2,49.1-50.4,49.1s-49.8-20.7-49.8-49.1
			C150.6,605.7,168.6,584.5,200.7,584.5z M200.7,653.2c11.2,0,14.9-9.1,14.9-18.9s-3.7-19.6-14.9-19.6s-14.9,10.2-14.9,19.6
			C185.8,644.2,189.5,653.2,200.7,653.2z"/>
		<path class="st2" d="M290.9,586.4v57.9c0,7.1,3.8,9.5,8.8,9.5c4.9,0,9.2-2.2,9.2-9.5v-57.9h33.5v57.8c0,26.5-16.5,39.2-42.7,39.2
			c-27.7,0-42.3-12.7-42.3-39.2v-57.8H290.9z"/>
		<path class="st2" d="M401.7,586.4v67.4h35.7v27.6h-69.2v-94.9H401.7z"/>
		<path class="st2" d="M490.2,584.5c32.2,0,50.1,20.7,50.1,49.8c0,28.4-18.2,49.1-50.4,49.1c-32.2,0-49.8-20.7-49.8-49.1
			C440.1,605.7,458,584.5,490.2,584.5z M490.2,653.2c11.2,0,14.9-9.1,14.9-18.9s-3.7-19.6-14.9-19.6c-11.2,0-14.9,10.2-14.9,19.6
			C475.3,644.2,479,653.2,490.2,653.2z"/>
		<path class="st2" d="M558.8,645.1c9.1,5.9,19.9,11.1,27.2,11.1c3.4,0,4.1-1.2,4.1-2.6c0-2.4-2.2-3.3-15.6-7.1
			c-17.4-5-27.2-13.5-27.2-30.2c0-21.9,17.7-31.8,38.6-31.8c12.9,0,27.3,5.1,38,13.1l-12.8,21.4c-7-4.2-16.2-7.8-22.8-7.8
			c-3.4,0-4.6,0.9-4.6,2.4c0,2.1,0.9,2.9,16.7,7.8c16.7,5.1,24.4,12.4,24.4,28.2c0,21.5-14.5,33.9-37.7,33.9
			c-17.8,0-33.8-7-44.2-18.1L558.8,645.1z"/>
		<path class="st2" d="M632.1,586.4h70.4V615h-36.9v7.5h33.5v22.3h-33.5v7.9h37.1v28.6h-70.5V586.4z"/>
		<path class="st2" d="M711.9,616.8v-30.3h29.4v30.3l-2.9,33.9h-23.9L711.9,616.8z M726.8,655.8c8.8,0,14.5,5.3,14.5,13.6
			c0,8-5.3,13.7-14.4,13.7c-9.5,0-14.8-5.7-14.8-13.7C712.1,661.1,717.7,655.8,726.8,655.8z"/>
	</g>
	<g>
		<g>
			<path class="st14" d="M313.5,213.1l-59.7-55.6l51.7-15l26.4,27.1l8.3-37.2l53.8-15.6l-26,80.6l62.6,55.2l-55.1,16l-24.3-24.1
				l-7,33.2l-53.4,15.5L313.5,213.1z"/>
		</g>
		<g>
			<path class="st14" d="M498.1,215.1L469,160.3l40.9,2l12.2,26l15.2-24.7l42.5,2.1l-38.6,51.4l31.3,55.1l-43.5-2.1l-11.5-23.3
				L504.2,269l-42.2-2L498.1,215.1z"/>
		</g>
		<path class="st14" d="M404.1,393.5c56.6,9,95.3,62.4,86.2,119l64.9,10.4C570,430.3,507,343.4,414.5,328.6
			C322,313.8,235,376.9,220.2,469.4l64.9,10.4C294.2,423.1,347.6,384.5,404.1,393.5z"/>
	</g>
</g>
</svg>
