<?xml version="1.0" encoding="utf-8"?>
<!-- Generator: Adobe Illustrator 26.2.1, SVG Export Plug-In . SVG Version: 6.00 Build 0)  -->
<svg version="1.1" id="Layer_1" xmlns="http://www.w3.org/2000/svg" xmlns:xlink="http://www.w3.org/1999/xlink" x="0px" y="0px"
	 viewBox="0 0 800 800" style="enable-background:new 0 0 800 800;" xml:space="preserve">
<style type="text/css">
	.st0{fill:#191919;}
	.st1{fill:#C7C7C7;}
	.st2{fill:#F2F2F2;}
	.st3{fill:#DEDEDE;}
	.st4{fill:#C8C8C8;}
	.st5{fill:#E1E1E1;}
	.st6{fill:#D6D6D6;}
	.st7{fill:#C6C6C6;}
	.st8{fill:#C9C9C9;}
	.st9{fill:#CBCBCB;}
	.st10{fill:#2F2F2F;}
	.st11{fill:#323232;}
	.st12{fill:#D1D1D1;}
	.st13{fill:#CDCDCD;}
</style>
<g>
	<path class="st0" d="M77.51,441.98c4-3.49,7.99-6.99,11.99-10.48c2.47-1.69,5.17,0.29,7.72-0.59c5.47,3.93,5.51,4.71,0.62,10.28
		c2.94,2.07,6.85,2.62,8.94,6.07c1.27,2.1,2.7,0.58,3.72-0.42c4.74-4.63,9.09-9.51,9.5-16.63c1.17-1.59,2.68-2.75,4.51-3.5
		c4.95-0.57,7.93,2.16,8.33,6.58c0.32,3.6,2.21,5.63,4.31,7.96c1.23,1.36,2.58,2.6,4.13,1.25c5.69-4.9,9.37-0.44,12.92,2.88
		c2.62,2.45,4.91,4.99,8.73,5.04c-5.09-2.56-8.85-8.91-7.94-14.08c0.76-4.36,3.24-4.25,6.64-2.39c2.81,1.53,5.87,4.17,9.12,0.57
		c0.4-0.45,0.78-0.9,1.11-1.4c1.92-3.32,0.36-8.29,4.92-10.34c0.56-0.41,1.13-0.8,1.7-1.18c4.38-2.65,10.62-0.56,14.02-6.41
		c1.41-2.43,8.32,0.76,8.97,4.22c0.74,3.98,1.86,7.71,4.23,11.02c0.5,0.82,0.43,1.64-0.05,2.45c1.36-1.95,3.11-3.57,4.49-5.52
		c2.04-2.88,5.11-4.07,8.35-2.4c3.33,1.72,4.35,4.85,3.13,8.45c-0.31,0.92-0.84,1.74-0.57,2.34c-0.24,1.28,0.83,0.7-0.04,0.57
		c-0.1-0.02-0.05-0.18-0.03-0.49c0.25-3.05,2.52-4.71,4.69-6.16c3.08-2.06,6.52-3.52,9.68-5.52c3.14-1.99,5.86-0.58,7.64,2.42
		c1.44,2.44,2.7,5.03,3.83,7.62c1.46,3.35,0.91,7.34,5.99,8.94c2.74,0.86,0.71,4.14-1.17,5.89c-7.16,6.65-7.8,16.13-1.65,23.62
		c2.65,3.22,4.18,6.9,2.2,10.94c-1.77,3.61-5.22,3.94-8.77,3.35c-1.58-0.26-3.2-0.69-3.64,1.47c-0.63,3.09-3.48,3.6-6.24,5.32
		c5.49,2.62,12.09,3.93,13.62,10.04c0.78,3.11-2.25,6.5-4.87,9.05c-12.46,0.85-24.95,2.62-36.41,1.98c2.56,2.24,8.13,1.27,10.6,6.02
		c-0.47,1.8-2.83,2.48-2.72,4.62c-0.04-1.52,1.04-2.36,1.96-3.3c2.28-2.43,5.17-1.26,7.25-0.4c8.08,3.34,16.13,1.73,24.24,0.68
		c2.33-0.3,4.68-1.12,6.96,0.21c1.86,6.48,4.52,11.73,12.89,10.81c1.96-0.22,3.84,2.38,5.44,3.85c2.23,2.06,4.17,2.37,6.68,1.15
		c0.8-0.36-0.6-1.06-0.06-0.37c0.08,0.1,0.01,0.15-0.14,0.26c-4.28,3.18-7.45-0.89-8.83-2.95c-3.34-4.97-3.78-11.04-2.08-17.01
		c2.84-3.01,5.94-2.18,8.94-0.43c5.83,3.4,10.45,7.79,11.14,13.99c-2.79-6.14-4.85-13.3-1.94-21.04c0.6-1.6-0.08-3.48-1.23-4.94
		c-2.79-3.52-1.47-6.38,1.37-9.06c0.65-0.83,1.56-1,2.54-0.96c2.42,2.63,4.65,3.92,8.01,0.84c2.42-2.22,5.74-1.94,8.56-0.02
		c2.69,1.83,2.98,4.62,2.75,7.6c-1.15,14.6,6.59,26.25,20.6,30.13c5.15,1.42,7.38,4.16,7.28,9.27c-0.03,1.75,0.06,3.54,0.49,5.23
		c1.34,5.22-1,8.56-5.53,10.45c-3.96,1.65-6.59,3.88-7.09,8.49c-0.32,3-2.21,4.72-5.73,4.84c-5.39,0.19-10.81,0.09-16.16,1.26
		c-2.41,0.53-5.76-0.32-5.82-2.58c-0.09-3.37-3.22-6.71-0.77-9.94c2-2.64,6.45-4.54,3.27-8.54c-3.14-3.96-7.37-2.48-11.18-0.89
		c-0.36,2.04,1.25,2.49,1.92,3.53c3.2,4.96,1.51,9.35-4.27,10.32c-11.38,1.91-22.33-1.73-29.41-14.21
		c-0.55-0.96-0.82-2.15-2.15-2.07c-1.75,0.1-2.71,1.44-3.28,2.87c-1.36,3.43-1.9,7.21-4.73,9.96c-0.93,0.9-1.5,2.15-2.68,2.85
		c-5.94,3.51-23.93,0.46-28.31-4.76c-2.95-3.52-2.76-6.38,1.26-8.25c-2.1,1.31-4.38,1.9-6.44-0.96c-1.54-2.14-3.35-4.15-5.67-5.41
		c-3.25-1.76-4.67-4.37-4.73-7.99c-0.04-2.63-0.87-5.17-1.09-7.8c-0.34-4.17-3.44-4.05-6.29-3.61c-1.94,0.3-0.44,2.13-0.69,3.22
		c-1.05,4.58-3.08,8.2-7.87,9.63c-3.93,1.18-7.65,0.45-10.14-2.71c-2.25-2.86-1.84-6.27,0.21-9.42c1.64-2.52,2.57-5.27,1.55-7.9
		c1.31,4.57-1.13,8.22-4.65,11.16c-3.16,2.63-5.47,0.37-6.83-2.34c-1.56-3.11-3.51-6.62-3.17-9.91c0.81-7.71-3.45-12.26-8.49-16.71
		c-0.82-0.72-1.49-1.61-2.27-2.37c4.74,7.91,3.3,13.98-3.81,16.05c-7.12,2.03-7.86,3.23-7.94,13.01c-7.9,2.83-7.9,2.83-14.56-7.37
		c3.62,4.54,3.06,9.51,0.23,13.8c-2.66,4.03-6.82,6.44-12.15,5.02c-1.62-2.15-2.95-4.35-5.48-5.92c-4.45-2.77-4.66-7.32-2.6-11.67
		c1.07-2.26,0.04-1.32-1.09-1.37c-5.15-0.21-13.7-8.25-13.79-12.42c-0.05-2.29,1.07-3.6,2.27-5.15c1.18-1.52,2.61-2.87,3.01-3.71
		c-6.9,3.99-4.24,13.52-9.05,19.62c-4.1,3.78-9.3,3.94-14.39,4.42c-2.8-1.01-4.83-4.16-8.74-2.25c-1.52,0.74-4.08-0.31-4.83-2.93
		c-0.78-2.75-0.43-5.11,2.09-6.61c2.72-1.62,4.23-4.28,6.32-6.41c9.58-9.76,1.65-18.25-1.62-27.01c-0.87-2.33-3.58-3.53-6.03-3.27
		c-7.8,0.83-15.77,1.51-21.34,8.18c-2.88,3.46-6.4,5.89-10.71,7.18c-3.53,1.05-5.24-0.06-4.63-3.91
		c5.48-5.14,10.96-10.28,16.44-15.42c10.69-5.16,18.21-14.01,26.12-22.41C67.46,445.44,73.42,445.76,77.51,441.98z"/>
	<path class="st0" d="M126.18,430.11c-1.32,0.88-2.63,1.75-3.95,2.63c-1.44,1.2-2.42,3.16-4.94,2.29c-2.51-0.87-2.98,1.39-3.84,2.93
		c-0.37,0.52-0.83,0.95-1.38,1.28c-5.93,0.09-8.98-6.41-14.83-6.49c-2.58-0.42-5.15-0.83-7.73-1.25c4.95-2.85,10.54-4.03,15.99-4.93
		c4.97-0.82,9.18-2.35,12.73-5.84c0.65,0.12,1.07,0.51,1.29,1.11c-0.01,0.45-0.06,1.05-0.4,1.19c-0.8,0.34-1.07,1.09-0.36,0.57
		s-0.16,0.59,0.08-0.18c1.16-3.74,5.11-4.66,7.21-7.33c3.81-4.84,8.15-3.46,12.2-1.11c9.45,5.49,29.22,4.05,35.4-4.45
		c2.33-3.19,5.32-3.22,8.64-2.21c4.32,1.3,8.23,0.79,11.54-2.53c2.26-2.26,5.3-3.24,8.17-4.06c6.84-1.96,11.29-6.3,14.39-12.48
		c2.79-5.57,6.81-10.06,11.91-13.76c4.31-3.13,7.03-7.66,9.47-12.43c2.58-5.06,5.41-10.21,11.94-11.18c2.13-0.32,4.6-1.93,6.17,0.88
		c1.57,2.8,1.78,5.5-1.42,7.56c-0.14,0.09-0.99,0.83-1.06,1.41c4-4.26,7.95-8.63,8.02-14.54c-10.58,3.2-19.71,9.54-29.91,13.64
		c-2.23,0.89-4.6,1.85-6.2-0.66c-1.4-2.2-0.65-4.54,0.96-6.47c2.53-3.05,4.02-6.79,6.64-9.77c1.76-2.43,3.41-4.93,5.05-7.45
		c1.26-1.92,2.66-4.45,6-3.98c3.04,0.42,5.31-2.04,5.49-4.22c0.16-1.94-0.74-4.95-3.44-6.09c-0.14-0.06-0.49,0.27-0.59,0.2
		c-4.28-2.87,0.24-7.44-1.01-9.14c-1.78-2.41-6.94-2.51-2.65-7.15c8.03-7.11,11.39-17.04,15.74-26.34
		c1.55-3.32,2.78-6.79,4.16-10.19c4.39-0.64,7.2-2.61,7.58-7.55c0.35-4.47,3.87-6.85,7.31-9.09c1.91-1.24,3.45-0.23,4.86,0.9
		c2.92,2.34,6.02,2.94,9.79,2.37c5.66-0.85,8.12,1.63,6.36,7.26c-2.27,7.27-1.28,12.34,3.16,19.22c4.26,6.59,9.07,15.3,5.46,24.85
		c-0.79,2.09,0.19,5.15,1.29,7.06c2.56,4.45,1.44,8.34-0.38,12.41c-2.43,5.48-1.18,11.91-4.58,17.22c-1.61,2.52-3.16,4.78-6.05,5.82
		c-0.76,0.44,0.65,0.92,0.07,0.27c-0.2-0.22-0.2-0.45,0.02-0.5c3.21-0.7,4.99-3.07,5.95-5.83c1.33-3.85,4.07-6.35,7.02-8.83
		c4.56-3.84,12.73-2.45,16.06,2.77c0.67,1.6,0.71,3.02-0.01,4.81c-2.52,6.25-5.72,12.67,0.74,18.7c0.63,0.59,0.5,2.03,0.58,3.11
		c0.06,0.77-0.17,1.43-0.69,1.99c-1.3,1.79-2.21,3.8-3.13,5.81c-0.6,4.4,1.62,8.74-0.39,13.42c-0.56,1.3,2.71,5.13,5.52,6.72
		c5.84,3.3,8.38,9.11,6.86,15.57c-0.51,2.17-1.81,3.64-4.1,3.55c-2.38-0.1-4.63,0.65-6.96,0.69c-5.72,0.13-10.07,4.2-15.48,5.34
		c-4.12,0.87-8.01,3.93-12.37,0.8c-4.93-1.21-5.32-1-5.77,3.3c-0.24,2.29-0.98,4.23-2.53,6.06c-2.81,3.31-3.53,7.35-3.46,11.65
		c0.14,7.67-3.65,10.23-10.46,7.17c-1.48-0.66-3.23-0.28-4.62-1.43c1.03,1.42,2.69,0.47,4.05,1.43c4.73,3.33,11,1.09,11.92-4.76
		c1.13-7.17,3.64-13.93,5-20.99c0.73-3.78,2.49-4.19,5.5-2.71c3.14,1.64,4.64,4.13,4.88,7.76c0.27,4.05,1.81,7.2,6.89,6.83
		c4.15-0.31,5.87,2.94,6.64,6.07c0.95,3.86,2.94,7.98,0.13,11.93c-0.91,1.28-2.62,2.5-3.88,1.75c-5.74-3.43-6.39,0.97-7.57,4.62
		c-1.76,5.49-6.48,8.69-10.09,12.65c-6.93,7.59-7.34,8.12-2.18,16.83c1.39,2.35,2.17,4.61-0.09,6.4c-2.11,1.67-3.31,6.2-7.5,3.17
		c-1.08-0.98-1.97-2.15-3.17-2.98c1.21,0.87,2.15,2.04,3.25,3.04c0.81,0.89,0.67,1.74-0.08,2.58c-3.91,1.54-2.12,7.64-6.84,8.54
		c-2.31,1.22-4.62,2.33-7.28,2.67c-4.08,0.53-4.82,0.11-6.45-4.39c-0.1-0.87-0.52-1.59-1.11-2.23c0.57,0.5,0.92,1.12,1.13,1.86
		c0.3,3.38-2.45,4.31-4.6,5.72c-3.18,0.68-6.91-4.62-9.65,0.88c-0.65,0.29-1.33,0.45-2.04,0.47c-1.58-0.24-3.78,0.85-4.19-1.93
		c2.7-8.28,1.84-9.73-6.94-11.23c-2.41-0.41-4.68-1.07-6.72-2.43c-2.37-1.58-2.93-3.72-1.81-6.27c0.94-2.14,2.19-3.91,4.99-2.91
		c3.7,1.33,4.42,0.29,2.94-3.28c-1.43-3.45-0.09-4.64,3.39-3.22c0.81,0.33,1.53,0.89,2.35,1.16c3.08,1,6.95,2.92,8.45-1.38
		c1.45-4.18-1.07-6.51-5.68-6.24c-3.06,0.18-2.16-1.9-1.8-3.59c1.17-5.54,2.87-11.01-1-16.38c-1.71-2.38,0.25-3.93,2.41-5.06
		c2.02-1.06,4.77-0.99,5.95-3.57c-1.8-2.19-4.3,0.24-6.53-1.38c0.27-2.61,3.47-5.18,1.61-8.21c-1.83-2.98-1.64-7.91-6.24-8.33
		c-4.03-0.37-12.96,7.17-13.16,10.63c-0.17,2.98-1,5.78-4.22,5.34c-3.4-0.47-1.14-3.47-1.16-5.39c-0.02-1.31,0.21-2.63,0.08-3.92
		c-0.24-2.35-0.05-5.1-2.91-6.06c-2.43-0.81-4.03,1.04-5.76,2.37c-3.3,2.55-5.33,6.8-10.08,8.03c-0.66-3.86,2.48-5.26,3.7-7.63
		c1.3-2.01-0.26-4.33,0.95-6.55c1.49-2.76,3.7-6.39,0.86-8.99c-2.55-2.33-6.55-0.68-9.63-0.04c-2.16,0.45-4.75,1.71-6.47,3.73
		c-2.85,3.35-6.57,5.3-10.71,6.59c-1.81,1.04-3.02,2.31-2.06,4.63c1.45,3.5-0.33,5.61-3.2,7.22l0,0c-5.29,0.66-9.18-2.43-12.89-5.32
		c-3.23-2.51-5.75-2.64-8.51,0.3c-1.93,2.07-4.1,3.9-6.16,5.84c-2.02,1.9-4.6,4.98-7.1,3.81c-2.76-1.29-5.56-4.15-5.42-7.99
		C133.69,428.66,130.45,428.65,126.18,430.11z"/>
	<path class="st0" d="M118.28,422.18c-0.02-0.49-0.04-0.97-0.06-1.46c11.04-21.15,23.36-41.41,40.45-58.37
		c0.77-0.77,1.66-1.52,2.15-2.46c3.69-7,9.52-10.87,17.33-11.17c12.38-0.48,19.13-9.38,26.61-17.2c4.22-4.42,8.38-8.89,11.31-14.4
		c1.29-2.42,2.93-4.98,6.16-5.46c1.76,4.85,1.48,10.54,7.39,13.53c2.22,1.12-1.97,11.63-5.24,11.75c-6.32,0.23-8.11,4.33-9.88,8.98
		c-0.3,0.8-0.77,1.53-1.23,1.8c1.03-1.1,1.63-2.73,2.27-4.47c0.97-2.62,2.58-5.26,5.58-5.77c1.84-0.31,4.18-1.51,5.83,0.76
		c1.7,2.35-0.13,4.11-1.22,5.77c-1.83,2.8-4.65,5-2.06,9.03c1.09,1.69-0.75,3.64-1.96,5.2c-6.12,7.92-11.64,16.37-17.64,24.19
		c-7.43,9.67-14.9,20.4-27.21,25.56c-4.11,1.72-6.89,5.97-11.2,7.81c-10.64,4.55-21.1,2.63-31.12-1.6c-3.45-1.45-5.31-0.56-7.37,1.4
		C124.46,418.18,122.55,421.75,118.28,422.18z"/>
	<path class="st1" d="M334,215.76c-1.83-6.39-4.2-12.49-9.16-17.21c0.8-3.82,1.41-3.97,6.35-1.51c3.28,0.04,5.85,0.64,8.44-3.5
		c2.13-3.39,6.91,0.51,10.24,2.3c1.23,2.1,1.53,4.17-0.12,6.21c-0.14,0.54-0.28,1.07-0.38,1.61c0,3.76,2.42,7.16,1.61,11.03
		c-2.58,4.35-1.1,11.04,3.33,15.04c0.58,0.25,1.18,0.41,1.81,0.47c2.17,5.38,6.42,9.43,9.21,14.34c2.77,4.88,8.52,6.81,10.8,11.91
		c2.13,4.76,5.55,8.05,10.5,9.71c1.08,0.64,2.27,1.06,3.38,1.62c3.32,2.21,4.08,6.48,7.12,8.85c0.74,0.58,1.95,1.54,3.05,0.68
		c0.8-0.63,1.53-1.66,0.6-2.76c-2.81-3.34-1.56-6.13,1.38-8.33c3.52-2.64,6.69-6.55,12.07-3.79c4.36,2.24,9.03,3.1,13.92,1.84
		c1.94-0.54,3.71-1.45,5.5-2.33c1.94-1.37,3.86-3.11,6.37-1.29c2.51,1.82,4.6,4.14,4.89,7.3c0.31,3.42-2.8,2.8-4.78,3.4
		c-6.36,4.13-6.36,4.13-0.96,10.55c0.23,1.42,0.65,2.71,1.21,4.07c3.08,7.49,2.22,10.86-3.26,14.52c-5.03,3.37-11.68,2.3-16.31-2.61
		c-1.18-2.22-3.17-3.8-4.32-5.17c0.64,0.84,2,1.94,3.13,3.28c0.87,1.28,1.53,2.56,1.48,4.23c-0.15,5.09,1.63,9.41,5.64,12.68
		c1.88,1.53,2.72,3.29,1.86,5.71c-0.81,2.28-2.64,2.47-4.67,2.65c-2.64,0.23-5.3,0.49-7.8,1.52c-1.93,0.8-3.26-0.06-4.35-1.58
		c-0.04,0.52,0.31,0.55,0.53,0.73c2.58,2.13,2.41,4.74,1.35,7.59c-0.28,0.76-0.02,1.17-0.33,0.35c4.62-0.97,4.6,2.44,4.73,5.29
		c0.22,5.3-0.45,10.27-6.75,11.94c-0.59-0.21-1.16-0.45-1.7-0.74c-9.08-7.33-16.23-16.64-25.16-24.16
		c-4.65-3.91-3.96-11.56,0.24-14.52c2.99-1.79,6.51-2.42,9.38-4.55c2.63-1.95,3.28-3.96,1.09-6.55c-2.55-3.01-4.5-6.42-6.6-9.73
		c-0.11-5.07-2.21-7.4-7.65-6.27c-1.98,0.41-4.24,0.49-6.36-0.05c-2.07-1.52-4.69-2.51-6.13-4.6c-3.44-4.98-8.32-6.1-13.86-5.92
		c-1.74-1.04-2.63-2.73-3.41-4.5c-2.91-3.94-0.15-9.66-4.19-13.24c-3.12-1.7-0.31-4.84-1.68-6.95c2.51-9.1-6.1-13.86-8.26-21.14
		c-0.73-2.48-2.51-4.4-3.32-6.81C333.44,216.77,333.56,216.24,334,215.76z"/>
	<path class="st0" d="M302.51,326.21c2.87-12.79,3.77-25.43-1.76-37.91c-1.56-3.53-3.75-6.32-6.21-9.14
		c-3.69-4.22-6.22-8.69-1.19-13.84c1.21-1.23,2.25-3.11,0.55-4.66c-1.63-1.49-3.48-0.56-4.61,0.85c-3.35,4.19-4.75,1.42-6.55-1.45
		c-1.14-1.82-2.81-3.94-5.33-2.39c-1.9,1.17-4.14,2.25-4.03,5.41c0.32,9.15-2.43,10.59-11.74,6.47c5.06-8.88,9.67-17.96,15.34-26.55
		c4.52-6.84,11.1-10.98,16.43-16.64c2.61-2.07,6.19-1.52,8.93-3.48c2.01-1.43,5.66-1.59,6.43,0.22c1.24,2.92,1.77,6.72-1.02,9.67
		c-2.68,3.99-0.21,7.93,0.13,11.89c2.15,2.32,2.76,4.67,0.46,7.34c-1.38,1.6-2.34,3.51-3.06,5.51c-0.72,3.78-2.74,7.23-2.86,11.18
		c-0.66,8.42,4.36,15.15,6.71,22.68c3.41,10.93,3.57,21.81-0.9,32.52C307.17,326.45,305.8,328.86,302.51,326.21z"/>
	<path class="st0" d="M218.26,356.42c1.24-3.72,2.53-7.43,3.7-11.17c0.57-1.82,3.3-4.26-0.15-5.35c-2.51-0.79-3.58,1.97-4.06,4.17
		c-1.21,5.53-5.2,8.12-10.66,9.45c3.5-6.42,6.93-12.92,13.11-17.32c2.03-1.44,3.81-2.91,4.86-5.13c0.49-1.02,1.47-1.81-0.26-3.18
		c-6.91-5.48-7.33-8.94-2.57-16.22c5.94-3.84,12.98-3.79,19.5-5.59c2.48,4,5.69,3.1,8.87,1.01c1.46,2.02-0.14,3.1-0.77,4.29
		c-3.58,6.74-3.14,8.21,3.44,12.16c3.73,2.24,1.67,5.75-0.19,6.71c-7.69,3.94-11.65,11.52-17.77,16.91
		c-1.82-0.99-3.45-1.98-1.5-4.34c2.59-3.14,3.92-7.22,6.61-9.24c1.19-1.26,1.06,0.21,0.55-0.5c-0.05-0.07-0.21-0.01-0.41,0.25
		c-5.49,7.18-10.31,14.88-16.3,21.69C222.61,356.9,221.17,359.83,218.26,356.42z"/>
	<path class="st2" d="M433.96,265.63c-1.49,1.38-3.13,2.43-5.24,2.53c-1.93-3.43-3.81-7.09-7.68-8.57c-2.78-1.06-1.71-4.4-4.01-5.49
		c-2.58-3.13-4.92-4.32-6.45,0.82c-7.43,2.21-14.75,4.76-22.1,7.2c-2.71,0.9-3.36-2.6-5.42-3.33c1.53-3.93-2.75-8.61,1.59-12.21
		c0.66-0.54,0.02,0.27,0.41-0.5c2.86-5.64,6.81-10.06,13.13-11.85c2.93-1.95,3.11-5.91,5.86-7.99c6.62-3.92,6.58-3.89,11.07,2.54
		c0.93,1.33,2.33,2.42,4.25,1.56c3.02-3.67,6.11-5.06,10-0.91c1.05,1.13,3.06,1.36,4.63,2c1.07-0.77,1.97-0.55,2.75,0.44
		c-1.04,5.25-2.92,10.37-2.68,15.84c-3.98,2.87-3.16,6.97-1.26,9.99C434.57,260.52,434.51,262.86,433.96,265.63z"/>
	<path class="st3" d="M347.19,201.2c0.9-1.79,1.79-3.58,2.69-5.37c3.48,0.97,6.96,1.93,10.44,2.9c4.27,2.05,8.37,4.55,13.23,5.04
		c4.83,2.18,9.66,4.37,14.5,6.55c1.91,2.44,5.35,3.55,6.54,6.44c2.14,5.2,0.02,8.89-5.94,11.46c-5.69,4.36-11.37,4.25-16.53-0.67
		c-4.82-4.59-10.22-6.69-16.92-6.28c-4.29,0.26-7.49-1.56-6.72-6.79c-1.22-3.42-2.4-6.85-3.69-10.24c-0.94-2.49,0.33-3.08,2.43-3.09
		c1.08,1.56,2.8,1.2,4.34,1.39C350.01,202.39,348.31,202.7,347.19,201.2z"/>
	<path class="st4" d="M476.12,240.67c4.24,4.67,8.42,9.38,9.37,15.97c0.78,0.97,1.99,1.83,1.21,3.32c-0.65,1.26-1.79,1.28-3.02,1.01
		c-8.6-1.84-15.79-5.97-21.12-13.1c6.06,8.03,6.06,8.03,3.83,11.87c-3.33,2.46-5.6,0-7.13-2.15c-4.66-6.53-9.5-12.57-17.87-14.56
		c-1.02-0.24-2.31-1.67-1.73-3.42c3.36-4.27,2.51-7.57-2.17-10.13c-2.29-1.25-3.94-3.33-5.63-5.23c-1.73-1.94-3.41-3.15-6.03-2.11
		c-0.96-1.46-2.24-2.97-0.77-4.72c1.32-1.56,3.17-1.3,4.87-0.74c1.23,0.41,2.57,0.89,3.5,1.73c8.25,7.48,18.16,11.03,28.98,12.6
		C468.54,231.91,471.62,237.34,476.12,240.67z"/>
	<path class="st2" d="M301.09,256.35c1.52-4.33,6.44-6.68,6.79-11.69c5.18,1.42,8.71,4.91,11.56,9.25c-0.04,2.59-3.87,3.92-2.25,7
		c4.55,2.9,9.16,5.59,12.46,10c1.31,1.75,2.89,3.18,3.72,5.35c3.08,7.97,3.13,8.01-4.6,12.12c-1.44,0.37-2.68,1.67-4.36,0.81
		c-2.03-1.51-4.23-1.73-6.67-1.19c-2.55,0.56-4.84,0.08-6.17-2.53c-0.46-0.99-1.37-1.8-1.03-3.04c1.78-2.12-0.1-5.19,1.83-7.28
		c0.9-1.41,3.88-2.91-0.62-3.85c-1.12-0.24-2.63-0.76-3.91-1.25C301.02,267.43,299.24,263.89,301.09,256.35z"/>
	<path class="st2" d="M307.75,232.77c0.05-7.34-0.16-7.6-6.97-4.77c-3.07,1.28-4.89-1.24-7.37-1.64
		c6.92-6.31,13.81-12.65,20.79-18.88c1.52-1.36,3.51-3.89,5.5-1.82c1.92,1.99,4.45,4.6,2.4,8.09c-0.66,1.12-1.29,2.37-2.25,3.19
		C314.69,221.37,311.68,227.41,307.75,232.77z"/>
	<path class="st2" d="M355.31,268.01c-4.03-0.35-8.14-0.33-12.08-1.15c-3.5-0.73-7.1-2.02-8.14-6.26c4.99-4.35,5.18-6.83,0.68-11.09
		c-1.58-1.49-3.43-2.7-4.12-5.76c4.09,1.4,5.39,0.54,4.05-3.74c-2.48-7.88-5.33-15.89-1.69-24.25c0.08,0.37,0.14,0.74,0.19,1.11
		c4.09,9.37,7.31,19.14,12.8,27.87c0.88,2.21,1.77,4.42,2.65,6.63c-0.87,7.7-2.32,9.83,5.28,12.82
		C355.05,265.46,355.18,266.74,355.31,268.01z"/>
	<path class="st5" d="M419.38,230.34c-1.72,1.76-3.66,1.73-5.17,0.02c-2.69-3.04-5.66-2.74-8.9-1.32c-1.24,0.56-2.34,2.71-3.84,0.98
		c-2.12-2.43-6.33-2.16-7.42-5.03c-0.69-1.81-0.11-5.73,3.99-4.19c2.84,1.07,4.51,0.68,5.3-2.37c0.96-3.7,3.66-4.55,7.06-4.21
		c8.89,2.82,9.36,3.58,8.39,13.05C418.67,228.27,419.16,229.32,419.38,230.34z"/>
	<path class="st1" d="M410.38,214.23c-5.52,1.71-6.43,9.72-13.57,10.28c2.83,1.51,5.66,3.03,8.48,4.54
		c-1.62,2.99-1.29,6.9-4.37,9.19c-0.32,0-0.63,0-0.95,0c-4.16-3.2-5.13-9.9-11.59-10.58c-1.24-1.07-0.97-2.77-1.69-4.06
		c6.8-0.59,5.91-4.33,3.59-8.7c-0.8-1.5-1.5-3.04-2.25-4.57c4.86,1.7,10.98,1.5,12.15,9.74
		C402.98,215.33,405.39,211.87,410.38,214.23z"/>
	<path class="st2" d="M315.72,260.34c-0.62-3.22,0.81-5.25,3.72-6.43c2.51-7.23-0.23-14.71,1.22-22.19
		c4.08,7.63,8.1,15.17,9.13,23.88c-3.64,1.81-8.91-0.38-11.28,4.58C317.66,261.54,316.71,261.34,315.72,260.34z"/>
	<path class="st2" d="M425.83,222.14c1.09-3.48,3.26-3.15,5.47-1.32c4.03,3.35,8.33,6.52,11.67,10.48c1.79,2.13,6.15,6.33-0.96,8.21
		c-1.23,1.91-2.66,1.6-4.17,0.4c-2.79-1.7-2.87-4.35-2.46-7.16c-0.45-0.43-0.91-0.87-1.36-1.31
		C431.28,228.34,428.55,225.24,425.83,222.14z"/>
	<path class="st1" d="M373.55,203.78c-5.17,0.31-9.97-0.35-13.23-5.04C365.36,198.76,369.3,201.67,373.55,203.78z"/>
	<path class="st2" d="M598.65,389.23c0.34,0.5,0.69,0.99,1.03,1.49c-0.12,1.08-0.12,2.44-1.31,2.78
		c-11.17,3.24-10.37,13.99-13.9,22.02c-0.76,2.49-1.79,4.87-2.3,7.44c-1.77,8.95-1.87,9.06,6.53,13.22
		c4.21,2.08,4.11,5.56,3.85,9.29c-2.25,6.76,0.23,12.82,6,14.6c7.01,4.54,10.03,5.51,3.02,15.32c-2.08,2.91-1.51,8.02-6.69,8.44
		c-4.22-3.35-7.37-7.76-10.86-11.77c-1.72-1.98-1.52-5.28-0.89-8.1c0.48-3.21-0.96-6.22-0.97-9.33c-0.01-2.65-1.77-2.53-3.35-2.93
		c-1.51-1.6-1.4-4.12-2.93-5.22c3.89,5.12,2.39,11.36,1.8,17.31c-0.27,2.7-3.45,2.71-5.37-0.32c-2.85-4.49-6.38-8.62-7.56-14.09
		c-0.33-1.55-0.62-4.03-3.43-3.63c-2.82,0.24-1.88,1.78-1.32,3.43c2.73,8.09-1.18,14.15-6.43,19.57c-1.82,1.88-3.67,3.7-5.35,5.72
		c-2.51,3.01-4.62,1.98-7.13-0.59c-7.59-7.75-10.97-17.96-14.81-27.48c-2.25-5.58-3.85-11.3-7.58-16.16
		c-0.56-0.73-0.61-1.73-0.62-2.37c-0.18-13.3-4.01-26.2-4.29-39.47c-0.04-1.97-0.12-4.37,2.63-4.7c3.17-0.39,4.6,1.15,5.12,4.42
		c0.17,1.03-1.34,2.53,0.78,2.85c0.15-0.25-0.39-1.05-0.5-1.58c-0.77-3.51-2.1-7.71,2.67-8.61c3.97-0.74,3.74,3.87,4.91,6.17
		c-0.46-7.89-7.24-10.98-12.52-15.29c-0.58-0.33-1.07-0.76-1.47-1.29c-0.27-0.64-0.42-1.3-0.47-1.99
		c-0.05-5.58-0.21-11.16,1.3-16.61c1.66-2.43,3.89-2.8,6.17-1.17c2.49,1.79,5.21,3.08,7.88,4.53c3.73,2.03,3.51,4.63-1.34,8.05
		c7.87-4.02,14.85-5.65,22.46-3.81c6.85,1.66,7.32,2.07,6.46,9.19c3.58,4.92,3.58,4.92-4.53,8.6c-4.02-3.07-7.54-1.06-11.04,1.12
		c-0.5-0.21-1.03-0.31-1.58-0.24c-3.03,1.48-1.71,4.23-0.95,5.85c1.11,2.36,1.71,4.81,2.13,7.22c1.16,6.55,2.74,7.7,8.55,5.39
		c1.81-0.72,3.38-1.91,5.27-2.51c5.47-1.72,5.85-2.8,2.93-8.04c-0.26-4.22-1.2-8.5,1.27-12.43c1.4-2.23-0.77-2.94-1.79-4.13
		c-0.66-1.27,0.3-2.45,0.23-3.69c-0.15-2.54,0.64-4.51,3.25-5.29c2.61-0.78,3.94,0.82,4.58,2.3c-1.18-2.17-3.18-3.74-6.7-3.79
		c-3.83-0.06-7.5-2.39-9.14-5.49c-3.87-7.31-9.89-13.22-13.13-20.9c-0.14-1.2-0.34-2.36-0.57-3.55c-1.04-3.25-1.02-6.01,2.34-8.16
		c2.72-1.74,4.34-1.44,5.4,1.6c1.59,2.33,3.16,4.69,4.8,6.99c0.5,0.7,1.42,1.89,1.8,1.76c9.84-3.2,11.6,8.93,19.58,10.27
		c4.25,0.71,4.94,7.74,7.89,11.49c0.23,0.3-0.09,1.55-0.3,1.59c-3.29,0.63-6.13,1.87-2.91,5.4c3,3.28,4.44,10.01,11.43,6.61
		c5.14,4,8.7,9.22,11.63,14.93C605.45,383.78,599.67,386.6,598.65,389.23z"/>
	<path class="st6" d="M539.36,331.43c0.38,0.46,0.75,0.93,1.13,1.39c1.44,2.76,0.21,5.95,1.84,8.92c1.34,2.45-1.38,4.66-3.23,6.18
		c-1.84,1.51-4.08,0.96-5.98-0.55c-1.93-1.54-3.12-3.55-3.98-5.84c-0.83-2.2-1.97-4.23-4.76-5.52c-0.15,3.59,1.98,7.38-2.84,9.06
		c-4.01,1.4-6.03-0.6-7.91-3.48c-2.51-2.89-3.31-7.03-6.59-9.42c-2.1-3.96,0.05-6.87,1.94-9.99c1-1.65,3.95-3.12,2.62-5.03
		c-1.64-2.36-4.46-3.96-7.79-2.34c-0.37,0.18-0.84,0.11-1.28,0.11c-3.72-0.5-5.1-3.91-7.09-6.24c-2.03-2.38-3.75-2.45-6.14-1.29
		c-2.74-0.93-4.5-3.19-6.64-4.93c-1.33-2.15-0.78-8.69-5.68-1.95c-1.9,2.62-10.94-2.24-10.99-6.38
		c-0.12-8.41-5.62-13.03-11.58-16.56c-6.64-3.94-10.32-9.31-12.3-16.36c-0.75-5.52-5.17-9.27-6.86-14.37
		c-0.9-2.73-1.2-5.35-0.6-8.06c0.52-2.34,2.01-1.65,3.42-0.79c1.31,0.51,2.63,1.03,3.94,1.54c8.46,1.33,13.9,6.69,18.13,13.65
		c1.28,2.11,3.06,3.67,5.34,4.64c4.17-1.34,6.72,0.6,8.28,4.25c0.69,1.61,1.08,3.34,2.63,4.4c0.45,0.45,0.94,0.85,1.49,1.19
		c0.04,9.82,9.42,14.7,12.72,24.18c-3.21-7.51-3.21-7.51,2-10.38c2.61,2.56,6.28,4.24,7.15,8.31c1.78,1.87,3.27,4.21,5.39,5.52
		c5.84,3.58,8.49,2.05,9.06-5.35c4.39,1,6.81,4.26,9.39,7.29c0.61,2.94,1.24,5.75,4.14,7.57c4.14,2.59,2.58,7.84,5.09,11.56
		C535.81,320.77,538.89,325.67,539.36,331.43z"/>
	<path class="st7" d="M539.36,331.43c-0.86-0.81-0.97-2.77-2.76-2.16c-4.42,1.51-4.93-1.79-5.17-4.53
		c-0.32-3.69-2.84-6.23-3.96-9.25c-2.14-5.76-7.27-11.27-3.89-18.29c11.74,8.24,22.56,17.54,33.51,28.55
		c-3.87-0.03-5.41-1.91-6.92-3.49c-2.13-2.24-3.93-2.55-5.77,0.19C538.29,322.95,539.34,327.47,539.36,331.43z"/>
	<path class="st2" d="M474.88,268.23c-4.19-2.53-5.25-7.88-9.41-10.43c-3.08-5.93-6.96-11.5-8.55-19.21
		c3.34,2.22,6.32,3.62,8.04,6.48c4.07,6.81,11,9.47,17.65,12.57c1.1,0.51,2.1-0.16,2.89-0.99c3.78,1.17,4.59,4.33,5.11,7.67
		c-1.95,2.87-5.73,2.01-8.11,4C479.97,267.95,477.42,268.17,474.88,268.23z"/>
	<path class="st2" d="M493.21,269.76c-4.02-2.97-9.61-2.86-13.18-6.72c3.77-1.64,6.94,1.74,10.58,1.27
		C491.47,266.13,492.34,267.95,493.21,269.76z"/>
	<path class="st2" d="M589.29,444.58c-0.58-5.47-5.37-5.99-9.08-6.88c-3.64-0.88-4.92-2.65-4.27-5.84
		c1.28-6.2,1.27-12.96,6.79-17.54c2.49-0.27,2.29-2.71,3.12-4.17c1.23-2.16,2.25-4.12,5.2-3.89c2.75,0.22,3.61,2.24,4.21,4.36
		c0.94,3.33,1.89,6.68,1.89,9.15c-0.79-4.96-2.52-10.88-1.39-17.03c0.75-4.14,2.66-6.9,7.34-6.75c3.94,2.07,5.29,4.51,4.59,9.71
		c-0.73,5.51-0.14,11.93,2.52,17.19c3.03,5.98,6.94,11.51,7.53,18.52c-0.47-10.67-6.04-20.28-5.85-31c2.4-3.67-0.36-6.1-2.12-8.74
		c-1.36-2.05-1.41-2.02,0.59-4.55c7.09-3.51,11.48,0.75,15.72,5.45c9.25,8.48,12.92,18.24,6.89,30.22
		c-1.92,5.85-2.11,11.61-1.53,17.86c0.74,7.93,0.86,16.04,0.43,24.05c-2.23,4.24-6.03,4.96-9.38,1.1c-2.57-2.96-5-4.58-8.97-3.49
		c-1.49,0.41-3.36-0.06-3.99-1.58c-3.13-7.63-10.56-10.17-16.47-14.39C593.66,451.83,589.39,448.9,589.29,444.58z"/>
	<path class="st2" d="M631.4,431.42c3.29-10.55-1.39-19.63-5.3-28.85c3.76,2.22,7.52,4.46,11.29,6.66c1.88,1.1,3.79,3.04,5.71,3.06
		c13.05,0.15,19.61,9.64,27.2,17.95c4.27,4.67,10.71,5.54,16.35,7.76c-0.55,1.5,0.9,3.01-0.03,4.51c-1.59,2.4-0.78,4.61,0.4,6.9
		c0.91,1.77,1.68,3.86-0.68,5.12c-2.81,1.5-2.97-1.26-3.89-2.73c-0.67-1.06-1.19-2.25-2.39-3.03c4.64,5.19,5.55,11.31,2.58,17.3
		c-4.34,3.47-8.08,0.38-10.13-2.33c-3.84-5.07-7.17-10.56-11.17-15.55c-0.65-0.81-0.29-2.13-0.29-3.21c0.03-0.65,0.15-1.3,0.36-1.92
		c2.38-4.54-1.01-7.39-3.72-9.46c-3.44-2.63-6.71-5.47-10.42-8.62c-1.46,1.78-0.34,4.54-2.4,5.63c-1.04,0.76-2.05,1.53-2.89,2.54
		c-5.58,6.71-5.71,6.69-10.31-0.91C631.56,431.98,631.48,431.7,631.4,431.42z"/>
	<path class="st2" d="M681.31,464.4c-0.33-1.49-1.24-3.13-0.89-4.43c1.52-5.5-0.34-9.25-5.17-11.95c-0.88-0.49-1.47-1.62-0.8-3.19
		c4.03-0.15,5.99,3.61,9.63,5.56c0.2-3.49-1.74-6.7-0.08-9.74c2.05-1.07,5.29,4.12,6.52-1.25c8.65,4.64,18.13,7.63,26.29,13.25
		c-0.69,2.12-2.47,2.82-4.44,3.29c6.72,10.33,14.06,19.24,28.35,14.91c1.81,2.74,4.44,3.92,7.65,4.02c3.59,0.11,6.65,1.53,9.34,3.84
		c-0.5,0.09-1.01,0.17-1.51,0.26c-2.42,1.67-5.19,0.98-7.83,1.17c-6.34,0.43-12.67-0.49-19.04,0.06
		c-7.48,0.64-29.28-8.06-34.59-13.25c0.56,4.14,3.06,8.65-2.34,11.53c-4.92-1.12-8.26-4.37-10.89-8.41
		C680.36,468.33,678.93,466.35,681.31,464.4z"/>
	<path class="st0" d="M602.44,398.52c-3.94,2.94-3.16,7.53-3.51,11.44c-0.59,6.52-0.73,13.03-4.75,18.48
		c-2.95-2.7-3.24-2.97-1.14-5.17c4.04-4.22,1.16-7.62-0.94-11.07c-1.21-1.98-2.91-1.68-4.19,0.15c-1.31,1.88-2.52,3.78-5.19,1.97
		c-0.08-8.69,5.52-16.03,5.82-24.68c0.09-2.57,2.32-3.34,4.07-1.11c1.98,2.5,4.4,2.47,7.06,2.2c3.56,2.14,7.13,4.27,10.69,6.41
		c2.41,4.12,8.45,7.17,3.91,13.33c-3.88,3.63-6.55,0.45-6.99-2.43C606.68,404.06,604.41,401.49,602.44,398.52z"/>
	<path class="st2" d="M690.52,439.39c0.2,0.61,0.68,1.27,0.56,1.82c-0.54,2.65,3.98,5.89,0.75,7.29c-3.82,1.65-4.67-3.24-6.43-5.7
		c-0.5-0.7-0.93-1.44-1.4-2.16c0.88-0.88,1.76-1.76,2.64-2.64C687.94,438.47,689.23,438.93,690.52,439.39z"/>
	<path class="st2" d="M598.65,389.23c-0.84-0.82-4.3-1.26-0.69-2.85c3.65-1.6,1.37-3.18,0.36-4.88
		C603.23,383.87,603.59,386.44,598.65,389.23z"/>
	<path class="st0" d="M410.36,572.19c-11.91,3.79-19.56-0.98-21.45-13.45c-0.38-2.48-1.23-4.42-4.09-3.91
		c-3.23,0.57-5.76,2.84-4.25,5.98c2.89,6.01,1.51,9.41-4.72,11.34c-5.59,1.73-13.62-1.06-15.51-6.61c-1.81-5.33-4.27-5.21-8.83-3.76
		c-8.6,2.73-15.62,8.86-24.57,10.78c-3.4,0.73-6.62,2.12-10.23,2c-2.52-0.08-13.31,8.05-13.6,10.22c-0.41,3.04,1.84,2.62,3.32,1.79
		c4.21-2.39,8.02-0.97,11.94,0.63c9.19,3.76,18.89,3.16,28.48,3.01c3.07-0.05,6.11-0.27,9.12,0.36c1.63,0.34,3.95,0.28,3.84,2.68
		c-0.09,2.12-2.31,2.95-3.88,2.84c-12.34-0.84-23.35,7.52-35.9,5.09c-1.75-0.34-3.81-0.16-4.77,1.5c-3.3,5.71-8.68,5.43-13.91,4.77
		c-8.08-1.02-16.16-1.17-24.27-1.06c-6.41,0.08-11.99-2.43-17.37-5.38c-2.78-1.52-4.78-3.88-0.37-6.19
		c1.12-0.59,2.88-0.67,2.75-2.34c-0.14-1.85-1.93-2.31-3.4-2.61c-11.6-2.39-23.3-3.86-34.97-0.97c-12.34,3.05-23.53,2.15-35.53-3.43
		c-7.68-3.57-16.91-6.94-26.33-5.19c-2.88,0.54-5.42,0.75-5.55-3.25c-0.05-1.41-0.49-2.65-1.77-3.29c-4.06-2.04-3.94-4.66-1.38-7.9
		c1.13-1.43,0.39-2.91-0.69-4.16c-2.87-1.39-4.88-3.8-3.78-6.8c1.54-4.21,5.79-2.61,8.55-3.1c-5.56-0.74-9.69-4.36-10.6-10.1
		c-0.27-1.72-0.12-3.66-1.34-4.86c-5.94-5.82-3.45-12.9-3.26-19.67c0.06-2.01,1.41-2.95,2.55-4.15c4.61-3.48,4.3-7.68,1.81-12.22
		c-1.05-1.91-2.17-3.8-3.02-5.81c-0.53-1.25-0.3-2.66,0.96-3.51c1.31-0.89,2.68-0.45,3.54,0.62c4.27,5.34,9.24,9.85,14.8,13.85
		c2.09,1.51,1.57,4.44,1.2,6.82c-0.59,3.81-0.01,7.42,1.48,10.91c0.59,1.38,0.98,3.23,2.97,2.96c2.05-0.27,2.92-2.03,2.93-3.84
		c0.03-3.27-0.34-6.55-0.43-9.82c-0.04-1.31,0.18-2.78,1.71-3.2c1.56-0.43,2.41,0.77,3.07,1.93c2.62,4.6,3.61,9.29,1.29,14.42
		c-1.34,2.96-2.9,6.35,0.58,8.93c2.44,1.81,5.14,1.12,7.2-0.87c2.89-2.79,3.24-6.04,1.04-9.51c-0.8-1.26-2.29-2.68-1.19-4.13
		c1.55-2.05,3.2-0.23,4.55,0.64c2.28,1.45,4.17-0.16,6.25-0.41c4.03-0.48,8.42,0.07,7.19,5.48c-2.45,10.8,2.76,17.44,10.88,22.95
		c1.07-0.18,1.24-1.08,1.52-1.89c0.79-2.34,2.24-4.27,4.79-2.82c2.63,1.49,1.06,3.85,0.11,5.77c-3.87,7.89-1.77,11.71,7.24,12.52
		c3.47,0.31,7.04,0.32,10.48-0.15c5.07-0.68,7.25-4.03,7.75-9.08c0.55-5.6,6.99-10.84,11.77-9.81c2.82,0.61,6.84,0.94,3.71,5.74
		c-1.26,1.93-0.85,4.16,0.98,5.27c6.79,4.12,13.25,9.42,22.12,7.44c1.32-0.29,2.72-0.46,2.97-2.05c0.25-1.57-0.93-2.28-2.19-2.85
		c-1.18-0.54-2.5-0.96-3.47-1.77c-1.34-1.12-2.61-2.59-2.21-4.49c0.39-1.85,2.29-1.78,3.73-2.13c3.19-0.77,6.43-1.37,9.59-2.24
		c4.69-1.29,8.33-1.94,10.99,4.08c2.41,5.45,2.32,9.06-2.69,12.28c-1.85,1.19-2.87,2.76-1.75,4.98c0.94,1.86,2.63,2.19,4.49,1.81
		c2.15-0.44,4.3-0.99,6.48-0.3c6.02,1.92,10.36,1.57,10.47-6.47c0.05-3.18,3.01-4.8,5.79-5.62c5.17-1.54,7.47-4.37,6.9-10.1
		c-0.52-5.2-1.87-7.87-7.68-9.29c-10.02-2.45-15.47-10.74-19.29-19.73c-1.87-4.39-5.32-8.84-2.02-14.21
		c0.83-1.35,0.26-3.08-1.19-4.06c-1.94-1.3-3.8-0.46-5.53,0.56c-3.33,1.97-6.51,3.59-7.94-1.98c-0.98-1.1-2.6-2.2-0.64-3.68
		c4.68-3.55,6.89-8.88,10.05-13.55c4.04-5.97,9.74-10.49,14.55-15.8c2.57-2.84,5.13-5.57,7.2-8.81c2.68-4.22,6.21-4.83,9.51-1.06
		c3.46,3.96,6.95,4.83,11.52,2.5c2.2-1.12,4.66-1.54,7-0.65c7.36,2.83,12.69,0.07,16.97-5.86c0.48-1.24,1.55-1.87,2.59-2.54
		c3.04-2.74,5.61-2.26,7.94,1.01c2.57,3.61,4.79,7.21,4.59,11.98c-0.19,4.63,0.5,9.2,3.64,13.01c1.8,2.19,1.7,4.86,1.78,7.5
		c0.23,8.33,1.02,16.58,3.33,24.65c1.22,4.27,0.66,8.71,0.43,13.07c-0.16,3.07-1.9,4.73-5.14,4.59c-2.12-0.09-4.23,0.53-6.8-0.25
		c1.52,1.54,2.84,2.32,4.11,3.17c4.27,2.84,6,6.48,3.7,11.46c-2.02,4.35-1.15,6.85,4.21,6.32c5.35-0.25,5.85,4.71,7.5,7.74
		c3.27,5.98,4.63,13.17,12.87,15C412.2,568.85,411.19,570.87,410.36,572.19z"/>
	<path class="st0" d="M144.59,512.99c0.84,4.04,0.96,8.05,0.93,12.23c-0.05,7.17,5.39,13,6.92,20.16c0.73,3.43,6.16,3.31,9.98,2.26
		c3.03-0.83,5.33-0.4,5.56,3.3c0.24,3.84-1.53,5.79-5.52,5.33c-1.52-0.17-3.03-0.47-4.55-0.63c-4.55-0.48-6.82,1.13-5.43,6.02
		c-5.01-1.42-9.97-3.61-14.76,0.91c-1.59,1.51-3.74,0.31-5.56-0.52c-2.47-1.14-4.79-1.22-6.15,1.57c-1.19,2.45-0.69,4.92,1.56,6.43
		c4.82,3.23,10,5.96,6.94,13.39c-0.6,1.45,1.47,1.86,2.81,1.71c5.06-0.54,9.25,2.34,13.89,3.45c5.3,1.26,6.82,4.95,6.35,9.9
		c-0.51,5.41-3.03,7.04-7.94,4.41c-3.9-2.09-6.64-2.37-9.47,1.6c-2.64,3.69-6.17,2.78-9.19,0.32c-7.48-6.1-13.03-13.47-15.04-23.2
		c-1.3-6.29-1.51-13.41-10.78-13.89c-2.64-0.14-1.7-3.05-1.4-4.92c0.5-3.1-0.5-5.33-3.77-5.72c-3.61-0.43-4.2,2.14-4.52,5.02
		c-0.59,5.25-0.53,10.45-0.09,15.71c0.23,2.84-0.17,6.16-3.28,7.28c-3.54,1.28-4.69-2.18-6.44-4.32c-3.82-4.66-4.33-8.97-0.28-14.1
		c4.8-6.09,4.37-6.94-2.56-10.48c-2.17-1.11-3.61-2.44-3.44-4.99c0.13-1.89,0.95-3.79,2.85-3.95c5.48-0.45,7.64-4.49,10.03-8.44
		c0.56-0.92,1.46-1.64,2.08-2.53c2.49-3.55,9.09-5.91,6.4-10.97c-2.91-5.48-8.17-9.73-15.35-9.67c-0.88,0.01-1.75-0.03-2.63-0.05
		c1.01-8.85,8.07-15.1,10.09-23.53c0.43-1.8,1.84-3.23,3.93-2.44c2.09,0.79,2.12,2.72,1.31,4.42c-1.7,3.54-3.66,6.95-5.43,10.46
		c-1.61,3.19-2.1,6.44,1.28,8.76c3.05,2.1,5.97,5.79,10.31,2.01c1.32-1.15,3.08-2.39,4.69-1.01c1.94,1.65,0.07,3.23-0.92,4.5
		c-3.93,5.05-4.75,9.7,1.1,14.01c1.63,1.2,2.15,3.24,2.57,5.19c5.32,2.29,8.42,6.53,10.55,11.62c-0.09,0.41-0.23,0.23-0.17-0.31
		c0.37-3.54-6.59-5.43-2.43-9.6c2.89-2.9,6-5.71,9.9-7.4c2.66-1.15,4.98-2.65,4.53-6.14C130.53,517.35,132.15,515.32,144.59,512.99z
		"/>
	<path class="st0" d="M281.46,497.22c1.45,2.66,3.82,3.04,6.5,2.59c-0.31,0.82-1.1,1.84-0.85,2.42c4.44,10.62-0.71,22.18,3.3,32.87
		c0.69,1.84,1.25,5.32-1.2,5.79c-3.3,0.63-2.26-2.94-2.57-4.8c-1.5-8.89-7.33-14.63-17.08-16.55c-3.54,3.13-8.67,3.49-12.01,7.24
		c-1.68,1.88-2.83-0.61-3.77-1.97c-5.91,1.19-12.06,1.14-17.69,3.76c-2.11,0.98-4.27,0.22-6.22-0.84
		c-4.45-2.43-9.45-2.98-14.25-4.22c-1.33,0.5-1.8,0.08-1.36-1.29c-5.84-2.66-11.68-5.31-17.51-7.97c0.1-0.66,0.19-1.32,0.29-1.98
		c14.97-0.61,29.86-2.32,44.9-1.91c1.75-0.01,3.5-0.01,5.26-0.02c9.28,3.09,18.34-0.66,27.47-1.2c4.66-0.27-1.18-3.53,0.15-5.38
		C276.69,501.23,278.86,499.01,281.46,497.22z"/>
	<path class="st0" d="M126.18,430.11c1.42-1.38,2.65-2.84,3.01-4.92c0.23-1.34-0.42-3.54,1.91-3.47c1.67,0.06,2.22,1.91,3.04,3.17
		c1.98,3.03,2.2,6.55,2.95,9.95c0.9,4.07,2.85,5.4,6.11,1.65c2.42-2.79,4.98-5.47,7.48-8.19c4.03-4.37,8.43-4.3,12.01,0.54
		c2.93,3.96,6.37,7.13,10.86,9.15c-2.75,1.14-5.53,0.63-8.37,0.36c-2.02-0.19-5.15-2.86-5.97,0.7c-0.68,2.95,1,6.05,4.36,7.23
		c1.62,0.57,3.43,0.59,5.11,1.03c3.22,0.84,4.98,3,4.2,6.29c-0.92,3.84-3.62,2.32-6.28,1.91c-6.68-1.03-12.74-2.07-16.69-8.96
		c-2.12-3.7-6.33-3-9.15,0.93c-2.27,3.15-4.2,2.82-5.29-1c-0.61-2.12-0.89-4.36-4.15-3.74c-5.78,1.09-4.91-2.69-3.98-6.01
		C128.04,434.23,129.74,431.78,126.18,430.11z"/>
	<path class="st0" d="M82.82,470.69c4.63,1.58,7.82-0.34,11.11-1.12c3.47-0.81,5.91-0.53,6.89,3.61c0.91,3.82-0.77,5.12-4.14,5.76
		c-4.26,0.81-7.22,3.82-10.37,6.53c-3.49,3-8.97,1.3-8.64-3c0.5-6.47-3.46-8.86-9.81-11.89c9.89-2.26,14.5-9.44,21.34-13.52
		c1.36-0.81,3.1-3.02,4.34-0.69c1.03,1.93,3.2,3.94,0.78,7.03C91.44,467.09,86.44,466.83,82.82,470.69z"/>
	<path class="st0" d="M253.8,524.81c4.66-3.56,8.39-9.89,15.78-5.27c2.39,1.45,4.32,2.99,2.76,6.3c-1.46,3.08-1.01,6.14,1.58,8.39
		c3.12,2.71,3.84-0.89,5.42-2.33c1.2-1.1,2.48-0.58,3.47,0.45c1.32,1.37,1.73,2.94,0.99,4.81c-1.72,4.35-6.39,6.17-10.82,3.6
		c-5-2.9-9.47-5.98-15.68-2.42c-2.71,1.56-5.01-0.59-5.07-3.96C252.17,531.12,252,527.8,253.8,524.81z"/>
	<path class="st0" d="M112.03,437.15c1.78-5.53,6.14-4.58,10.2-4.41c-1.69,6.96-6.53,12.23-9.98,18.23
		c-2.33,4.05-7.9,1.49-11.78,5.07c-0.23-3.74,4.17-6.75-0.94-9.41c-3.2-1.66-5.97-3.08-10.26-1.71c2.25-5.31,9.58-5.85,7.96-12.17
		C103.98,427,108.03,431.15,112.03,437.15C112.35,437.61,112.35,437.61,112.03,437.15z"/>
	<path class="st0" d="M134.07,526.15c0.76,1.58,1.41,3.22,2.29,4.74c2.37,4.1,2.9,6.67-3.43,5.22c-3.46-0.79-5.39,2.37-7.94,3.94
		c-3.66,2.25-1.01,4.64-0.77,7.26c0.33,3.56-0.85,7.28-1.47,10.91c-0.15,0.89-0.8,1.63-1.84,1.48c-1.01-0.14-1.69-1.13-1.44-1.89
		c2.91-8.79-4.56-13.47-7.76-19.83c5.12-1.92,9.25-4.61,10.17-10.72c0.81-5.42-4.31-9.32-3.64-15.88
		C123.3,517.61,126.59,524.28,134.07,526.15z"/>
	<path class="st0" d="M178.8,426.16c7.42-6.15,15.64-11.11,23.85-16.09c2-1.21,3.92-2.03,6.05-0.49c2.12,1.54,3.14,3.61,2.67,6.25
		c-1.04,5.91-2.82,11.47-7.57,15.59c-3.93-1.62-6.45-3.93-6.18-8.81c0.3-5.48-2.96-5.24-6.22-2.68
		C187.59,422.92,184.03,426.15,178.8,426.16z"/>
	<path class="st0" d="M214.28,522.23c0.45,0.43,0.91,0.86,1.36,1.29c1.15,1.55,2.42,3.03,3.43,4.66c1.3,2.11,1.3,4.2-1.22,5.41
		c-2.56,1.23-4.73,0.53-5.71-2.23C210.92,527.94,210.62,524.58,214.28,522.23z"/>
	<path class="st0" d="M229.06,531.64c3.37,0.23,4.52,2.18,4.66,4.8c0.08,1.53-0.49,3.7-2.29,3.13c-2.4-0.76-4.79-2.67-5.54-5.08
		C225.18,532.2,227.95,532.32,229.06,531.64z"/>
	<path class="st0" d="M69.16,461.55c1.02-0.02,1.73,0.47,1.84,1.46c0.13,1.25-0.5,2.14-1.79,2.26c-0.98,0.1-1.71-0.52-1.86-1.47
		C67.16,462.49,67.94,461.8,69.16,461.55z"/>
	<path class="st0" d="M173.54,438c3.36-3.23,0.3-9.32,5.26-11.84C177.02,430.09,179.68,436,173.54,438z"/>
	<path class="st2" d="M373.59,390.61c-3.56-1.6-6.95-3.6-11.17-3.01c-3.71,0.52-5.16-2.89-7.2-4.96c-1.89-1.92-3.21-4.41-5.3-7.39
		c-0.18,6.59,4.88,9.39,7.34,13.99c-3.94,0.77-4.94-3.49-7.85-3.38c-1.7,1.81,1.13,3.27-0.01,5.16c-0.36-0.1-1.2-0.08-1.38-0.42
		c-4.08-7.56-12.65-9.71-18.36-15.31c-0.9-0.88-2.14-1.64-3.56-0.85c-1.51,0.83-1.09,4.81-3.87,3.09c-2.2-1.36-1.09-4.45-1.41-6.78
		c0.97-1.73,1.93-3.47,2.9-5.2c0.69-0.41,1.36-0.84,2.07-1.22c-0.74,0.32-1.4,0.78-2.12,1.13c-5.67-9.09-5.38-18.23-0.19-27.4
		c-0.81-1.27-0.81-2.79-1.27-4.17c0.16-0.75,0.57-1.33,1.22-1.74c7.51-3.03,11.41,0.15,10.36,8.46c1.45,2.96,3.53,4.25,7.11,4.59
		c3.49,0.33,3.85,5.55,7.32,6.83c4.02,1.49,2.77,5.07,3.18,7.99c3.04,4.64,7.38,7.25,12.82,7.85c6.54,0.73,10.12,4.73,12.31,10.48
		C378.34,383.12,377.82,387.31,373.59,390.61z"/>
	<path class="st0" d="M295.9,418.27c-2.86,0.85-3.43,3.28-3.57,5.7c-0.35,5.99-3.52,11.81-0.95,18c0.69,1.67-0.54,3.14-2.05,3.63
		c-5.44,1.78-9.26,5.53-12.82,9.76c-1.23,1.46-2.96,3.14-5.08,2.32c-2.79-1.08-1.14-3.28-0.67-5.05c0.76-2.84-1.11-3.96-3.15-4.97
		c-1.99-0.99-3.84-2.13-5-4.1c-0.68-1.16-1.24-2.45-0.26-3.65c1.02-1.25,2.37-0.87,3.59-0.25c0.97,0.5,1.85,1.17,2.8,1.71
		c3.08,1.73,6.67,3.94,9.81,2.99c4.48-1.35,0.63-5.64,1.02-8.52c0.51-3.78,1.25-6.51,4.33-8.73c2.19-1.58,3.06-4.11,4.17-6.53
		C289.65,417.14,292.25,415.49,295.9,418.27L295.9,418.27z"/>
	<path class="st0" d="M282.7,495.86c-3.15,0-6.3,0-9.95,0c1.35-3.26,3.36-5.23,6.33-5.25c3.19-0.02,3.21,2.92,3.63,5.24
		C282.72,495.85,282.7,495.86,282.7,495.86z"/>
	<path class="st0" d="M248.18,496.98c-1.34,0.14-2.47-0.25-2.28-1.63c0.31-2.3,1.46-4.23,4.02-4.48c1.52-0.15,2.52,0.94,2.31,2.47
		C251.92,495.64,250.01,496.39,248.18,496.98z"/>
	<path class="st0" d="M261.71,503.8c-3.81-1.85-1.42-3.25,0.44-4.4c1.47-0.91,3.59-1.71,4.51,0.34c0.88,1.98-1.53,2.1-2.7,2.83
		c-0.73,0.46-1.51,0.82-2.27,1.23C261.69,503.8,261.71,503.8,261.71,503.8z"/>
	<path class="st0" d="M263.88,468.21c0.09-1.01,0.75-1.46,1.65-1.48c1.12-0.02,2.12,0.39,2.22,1.65c0.08,0.99-0.7,1.47-1.61,1.49
		C265.03,469.88,264.13,469.46,263.88,468.21z"/>
	<path class="st0" d="M256.42,507.72c-2.61,2.48-5.89,2.64-9.21,2.63C249.58,507.03,252.82,506.74,256.42,507.72z"/>
	<path class="st2" d="M444.55,261.72c1.34,4.67,4.47,7.7,8.47,10.36c7.54,5.01,15.51,9.61,16.74,20.27
		c0.38,3.27,2.26,8.22,7.98,3.79c3.31-2.56,5.99,1.03,8.78,2.44c1.77,2.61,0.2,4.06-1.94,5.03c-8.93,4.04-19.74,2.03-25.88-4.24
		c1.41,4.5,8.85,3.92,10.06,9.76c-1.26,5.71-8.33,4.4-10.62,8.85c-0.65,0.18-1.33,0.26-2,0.27c-3.82,0.18-4.45-3.01-6.02-5.43
		c-1.85-2.85-4.06-5.67-8.28-3.89c3.12-0.27,6.25-0.31,7.58,3.24c1.09,2.89,4.72,4.49,4.12,8.21c-0.66,1.35-1.53,2.59-2.39,3.82
		c-0.98,2.02-2.31,3.9-2.46,6.25c2.81,9.22,10.36,13.3,18.43,16.39c6.02,2.3,6.94,3.32,4.28,9.36c-1.96,4.45-1.42,9.17-1.53,13.72
		c-0.12,4.84-1.35,7.79-6.61,6.58c-2.18-0.5-3.05,0.98-4.5,1.53c-2.35,0.89-3.47,4.02-6.54,3.67c-4.35-3.31-4.59-11.09-0.28-15.99
		c2.04-2.31,3.29-4.42,0.74-7.28c1.69,6.11-4.35,10.24-3.77,16.12c0.14,1.35-0.18,3.14-0.64,4.73c-1.07,3.77-3.88,5.73-5.84,3.35
		c-3.11-3.78-8.28-6.71-7.39-12.88c2.8-7.79,1.14-9.73-8.58-10.08c-5.47,0.91-9.45-0.5-10.89-6.52c-0.51-2.12-2.05-3.88-3.73-5.32
		c-1.76-1.51-1.47-2.95-0.19-4.5c4.41-1.87,2.66-5.8,2.18-8.58c-0.77-4.52-5.64,0.36-7.75-2.83c7.94-2.78,4.43-8.03,2.75-12.98
		c-0.46-1.35-2.92-2.95,0.01-4.14c1.57-0.64,3.7-1.1,4.55,1.1c2.71,7.05,6.59,2.53,10.58,1.6c-7.98-8.61-8.97-13.81-4.44-21.54
		l0.05-0.05c2.63,0.9,5.22,2.32,7.91,2.58c3.67,0.35,7.84-0.27,9.87-3.57c2.56-4.17,0.05-8.27-2.05-12.07
		c0.58-2.97,1.37-5.87,0.39-8.97c-0.62-1.96-0.61-4.01,2.3-4.27c2.16-1.12,4.93-2.27,2.47-5.2c-2.52-3-4.58-0.5-6.52,1.25
		c-1.95-6.44-7.43-12.18-3.9-19.71c2.3-2.55,3.59-1.14,4.59,1.2C437.01,252.63,441.42,256.74,444.55,261.72z"/>
	<path class="st2" d="M323.5,334.16c-5.5-2.66-5.69-7.39-6.54-12.86c-1.2-7.76-2.41-15.27-1.33-23.13c0.44-3.19,0.94-4.97,4.69-4.09
		c4.26,0.99,7.32-2.38,11.03-3.49c3.21-2.28,5.04-1.04,6.11,2.34c0.65,2.03,1.67,3.95,1.92,6.22c0.22,0.74,0.9-0.42,0.12-0.03
		c-0.12,0.06-0.24-0.1-0.35-0.47c-0.81-2.67-1.05-5.49-2.85-7.89c-1.18-1.57-0.27-3.11,1.18-4.42c1.51-1.36,3.55-1.25,4.32-0.22
		c2.06,2.75,5.49,5.59,5.39,8.69c-0.2,6.23,2.42,11.72,2.88,16.8c-0.69-3.39-2.03-7.55-2.59-11.8c-0.24-1.83-2.45-5.69,2.52-5.65
		c3.27,2.5,6.61,4.92,9.8,7.53c3.75,3.06,5.26,6.05-2.13,8.14c5.71,2.25,7.77,7.47,13.83,8.47c3.59,0.6,5.61,0.55,7.54-1.93
		c2.36-3.05,5.31-5.07,8.86-6.37c-4.38,7.08-3.57,7.64,3.53,12.42c5.18,3.49,9.26,8.78,13.32,13.69c1.91,2.31,3.43,4.98,5.65,7.1
		c-0.54,5.42-4.9,6.48-8.85,6.49c-5.28,0.03-10.7,0.44-15.92-1.13c-2.23-0.86-1.71-3.52-3.2-4.86c-2.56-6.38-4.92-7-9.93-2.66
		c-0.81,0.7-1.7,1.37-2.85,1.48c-0.6,0.02-1.2-0.03-1.8-0.15c-2.46-1.4-3.88-4.11-3.9-6.35c-0.05-7.57-5.69-4.22-7.19-2.9
		c-9.01,7.91-16.47,5.68-23.79-2.24c-5.01-5.43-5.42,2-8.11,3.1C324.41,334.05,323.96,334.11,323.5,334.16z"/>
	<path class="st2" d="M386.7,223.6c0.87,0.86,1.75,1.72,2.62,2.58c4.45,3.46,7.75,8.02,11.65,12.01c0,0-0.04,0.05-0.04,0.05
		c-8.13-0.09-9.49,8.2-14.53,11.99c-2.14,1.61,0.24,5.09,0.96,7.28c0.65,1.96,3.43,0.17,5.18-0.48c1.42-0.53,2.71-1.46,4.15-1.91
		c6.48-2,6.49-1.96,1.84-6.93c5.13-1.04,6.21,5.36,10.53,5.56c2.58-3.44,5.62-3.79,9.07-1.35c1.6,0.87,6.66-4.09,4.85,2.92
		c-0.17,0.67,2.48,1.99,3.73,3.11c3.02,2.73,5.78,5.57,2.01,9.73c-4.89,2.07-9.35,0.29-13.85-1.46c-7.05-2.75-12.43,1.16-11.47,8.46
		c0.48,3.65-2.41,6.36-1.4,10.81c-6.85-4.46-9.34-11.65-15.45-15.08c-0.53-3.75,1.57-3.59,3.87-3.02c-2.58-3.07-3.77,3.32-6.37,1.36
		c-1.65-1.41-3.12-3.16-4.98-4.17c-7.78-4.17-11.5-11.64-15.46-18.82c-2.91-5.28-8.12-8.5-11.22-13.53
		c5.42-4.83,5.27-1.94,11.3,4.11c0.12-2.12-5.81-2.55-1.68-5.89c0.82-0.31-0.3,0.16,0.51-0.18c0.18-0.08,0.01-0.01-0.5,0.2
		c-3.04,1.32-7.16-2.87-9.53,1.88c-1.45-0.92-2.98-1.73-4.33-2.77c-1.65-1.27-5.66-1.99-1.48-5.1c0.22-0.17-0.21-1.74-0.73-2.28
		c-4.17-4.32-0.42-6.11,2.52-8.18c1.41,1.4,2.96,2.72,5,2.87c7.99,0.61,15.25,3.29,21.63,8.01
		C379.83,228.88,383.36,227.66,386.7,223.6z"/>
	<path class="st2" d="M386.77,345.87c2.9-0.79,5.76-1.38,8.8-0.39c5.27,1.71,10.09-0.12,14.83-2.26c0.42,0.03,0.84,0.06,1.27,0.08
		c4.1,2.77,8.31,4.99,8.77,11.15c0.29,3.79,3.52,1.6,5.57,0.57c2.86,1.9,3.24,3.87,0.01,5.72c-2.41,1.39-4.71,3.22-7.78,2.76
		c-4.89-0.74-9.78-1.68-14.77-0.34c-2.12,0.57-4.15,0.04-5.94-1.45c-3.49-2.9-7.35-5.29-11.09-7.86
		C382.93,351.43,382.6,348.37,386.77,345.87z"/>
	<path class="st2" d="M347,244.74c-3.54,0.06-5.69-2.15-6.88-4.99c-3.08-7.32-6.38-14.63-5.92-22.88
		c6.02,5.92,9.5,13.83,15.97,19.55C354.14,239.95,347.73,241.76,347,244.74z"/>
	<path class="st2" d="M438.01,269.58c0.79,2.03,1.6,4.06,2.36,6.1c1.78,4.82,0.87,7.75-5.05,7.13c-2.87-1.94-8.16-2.65-6.28-7.53
		C430.3,272.01,432.26,267.05,438.01,269.58z"/>
	<path class="st2" d="M384.06,269.23c1.46-1.81-0.11-3.8,0.39-6.27c5.8,2.32,14.58,0.43,13.05,11.57
		c-3.97-0.28-6.86-3.95-10.94-3.64C385.72,270.33,384.89,269.78,384.06,269.23z"/>
	<path class="st2" d="M393.11,285.49c-3.49-0.89-6.77-2.47-10.66-1.65c-5.33,1.12-2.6-5.76-6.14-6.65c3.68,1.22,5.86,0.38,4.59-5.32
		C386.16,276.73,390.06,280.72,393.11,285.49z"/>
	<path class="st2" d="M419.55,295.93c-3.21-1.42-11.87,2.54-6.88-6.96c0.6-1.14-2.41-3.06,0.65-3.47c1.61-0.21,2.61,1.34,3.51,2.55
		c1.73,2.32,2.57,4.96,2.77,7.83C419.6,295.89,419.55,295.93,419.55,295.93z"/>
	<path class="st2" d="M350.01,294.16c-2.08,4.31-0.78,8.54,0.29,12.77c1.11,4.41,1.94,8.84,1.85,13.84
		c-2.96-0.72-3.8-2.46-3.57-4.86c0.6-6.24-1.82-12.01-2.65-18.03c-0.51-3.71-2.75-6.22-6.39-8.4c-0.93,6.79,3.86,12.59,2.59,20.15
		c-4.14-7-3.08-15.54-10.77-19.04c1.27-3.79-1.43-5.01-4.05-6.28c4.47-2.48,4.48-7.61,0.7-11.96c-3.79-4.36-9.64-6.54-12.28-12.01
		c0.93-0.05,1.86-0.11,2.8-0.16c4.37,1.65,7.91,4.15,10.84,8.02c4.82,6.36,10.43,6.97,17.42,3.06c4.08-2.28,8.46-0.54,11.79,1.26
		c3.2,1.73-0.99,3.81-1.67,5.79c-1.24,3.65-3.83,4.64-7.21,2.69c-3.3-1.91-6.2-4.87-11.46-3.58
		C342.36,283.29,346.18,288.73,350.01,294.16z"/>
	<path class="st2" d="M359.2,284.9c6.44,0.43,9.32,4.84,12.27,9.08c0.8,1.16-0.21,2.6-1.18,2.15c-4.52-2.11-10.69,0.57-14.02-4.89
		c-0.81-1.33-1.73-2.59-0.94-4.17C356.22,285.3,357.9,284.9,359.2,284.9z"/>
	<path class="st2" d="M302.26,275.06c-0.81-2.7-1.61-5.39-2.42-8.09c-0.13-3.6-1.5-7.35,1.25-10.62c-0.71,6.35,2.68,9.73,8.29,11.61
		c2.27,0.76,4.58,1.55,6.67,2.71c2.24,1.24,5.45,2.85,4.26,5.71c-0.95,2.27-3.9-0.01-5.97-0.03c-1.39,2.49-3.12,1.54-4.81,0.43
		C307.3,275.31,304.91,274.65,302.26,275.06z"/>
	<path class="st1" d="M444.55,261.72c-6.57-3.67-12.59-7.85-14.49-15.8c1.74-4.4,1.61-9.56,5.31-13.17c3.89,0.2,2.36,3.19,2.69,5.23
		c-2.22,2.53-0.6,4.86,0.32,7.27C440.48,250.72,442.5,256.23,444.55,261.72z"/>
	<path class="st2" d="M418.13,252.4c-2.87,1.5-5.62,3.76-9.07,1.35c-1.89-2.4-4.61-5.38-1.51-7.85c2.94-2.34,5.54,0.87,7.7,2.97
		C416.34,249.91,417.18,251.21,418.13,252.4z"/>
	<path class="st1" d="M347.19,201.2c3.15,0.15,6.42-0.18,10.56,2.56c-5.03,0.94-7.99,0.05-10.53-2.6
		C347.22,201.17,347.19,201.2,347.19,201.2z"/>
	<path class="st8" d="M302.26,275.06c0.23-5.05,2.22-6.21,6.35-2.93c1.86,1.48,3.82,2.82,5.73,4.22c1.07,2.2,1.52,4.21-1.54,5.18
		C308.57,280.54,304.4,279.45,302.26,275.06z"/>
	<path class="st2" d="M324.71,286.51c-1.39,2.38-2.88,3.78-5.37,1.06c-1.56-1.71-3.38-3.19-5.09-4.77
		C317.79,283.87,321.54,284.39,324.71,286.51z"/>
	<path class="st2" d="M400.97,238.19c-4.63-3.28-10.61-5.26-11.65-12.01C396.82,226.67,398.6,232.72,400.97,238.19z"/>
	<path class="st0" d="M681.31,464.4c2.74,4.33,5.61,8.54,10.65,10.56c5.07-1.26,6.68,2.78,6.36,5.86
		c-0.89,8.42,4.49,12.72,9.71,17.35c0.64,0.21,1.21,0.55,1.72,0.97c2.82,7.03,6.9,13.02,13.88,16.59c1.27,1.79,1.87,4.17-0.57,4.76
		c-7.59,1.83-8.07,9.5-12.28,14.05c-3.07,4.9-7.1,8.71-12.14,11.63c-2.93,1.7-6.04,3.56-5.32,8.09c0.34,2.13-1.71,3.34-3.46,4.35
		c6.4,3.69,6.63,6.79,0.88,11.69c5.57-1.88,9.45-0.05,9.24,4.94c-0.44,10.27,3.24,18.53,10.78,25.26c-0.41,4.26-3.71,7.03-8.28,6.21
		c-3.87-0.69-7.58-2.22-9.8-5.91c-4.94-8.23-9.93-16.58-14.25-24.98c-4.64-9-9.39-18.21-13.06-27.77c-1.72-4.48-1.03-9.45,1.7-13.46
		c5-7.34,0.62-18.05-8.1-22.91c-2.62-1.46-8.32,1.31-9.33,4.77c-1.03,3.5-0.94,8.25-6.2,7.33c-5.97-1.04-13.49,0.6-16.41-7.45
		c-0.58-1.59-0.66-3.51-2.51-4.36c-1.12,0.41-1.23,1.43-0.94,2.16c2.1,5.28,4.76,10.47-0.08,15.77c-0.68,0.74-0.46,2.36,0.26,3.12
		c6.37,6.74,6.7,16.56,12.18,23.76c1.71,2.24,3.58,3.97,6.38,4.08c6.68,0.28,8.57,5.36,8.92,10.29c0.36,5.13,2.25,8.54,5.98,11.73
		c3.13,2.68,5.01,6.57,7.48,9.9c2.13,2.88,0.61,5.72-3.05,6.03c-3.28,0.28-6.13-1.11-8.15-3.52c-3.96-4.74-9.22-8.11-13.07-12.93
		c-1.4-1.75-3.28-3.68-5.4-3.38c-6.81,0.96-12.64-1.7-18.83-3.67c-3.34-1.06-7.28-1.96-10.64,2.21c-2.41,2.98-6.47,0.4-8.94-1.49
		c-3.7-2.84-6.46-5.73-11.74-2.29c-2.76,1.8-7.44-0.8-10.61,2.19c-0.04,0.04-0.8-0.08-1.17-0.16c-2.45-0.53-8.31-10.59-8.03-13.61
		c3.23-2.02,3.23-2.02,7.59-0.89c-8.87-10.77-19.03-19.44-27.8-29.4c-0.94-1.39-1.89-3.36-3.08-3.86c-5.3-2.23-5.1-6.57-3.97-10.6
		c1.6-5.69-0.46-8.95-5.05-12.01c-8.37-5.58-8.83-12.36-1.83-19.94c7.44,2.76,13.12,8.01,18.8,13.25c0.65,0.86,1.39,2.09,2.2,2.3
		c14.4,3.63,24.04,15.45,37.14,21.56c7.27,3.39,14.6,9.63,12.76,20.39c0.79-0.77-0.22-1.08,0.21-1.78c3.6-5.84,3.38-7.09-2.33-11.6
		c-5.15-4.07-11.01-7.17-14.96-12.83c-2.61-3.75-2.69-6.67,0.68-9.37c3.63-2.91,3.8-6,1.28-9.5c-1.89-2.61-1.89-5.15-0.23-7.82
		c1.03-2.15-0.19-4.79,1.49-6.79c1.83-1.7,3.38-4.21,6.45-2.15c0.77-1.32,1.69-2.58,2.28-3.98c2.03-4.84,6.31-9.82-0.6-14.3
		c-1.82-2.97-4.61-5.89-0.42-9.14c4.79,5.05,13,5.81,16.18,12.89c0.15,0.34,0.82,0.81,0.98,0.72c8.67-4.63,10.28,3.78,14.32,7.7
		c0.47,0.45,1.02,0.83,1.53,1.24c2.09-0.29,3.93,0.58,5.83,1.21c1.9,0.52,3.82,1.02,5.74,1.29c6.12,0.85,9.25,3.98,9.07,10.39
		c-0.09,3.05,0.5,6.14,2.44,8.69c1.11,1.47,2.63,2.56,4.5,1.41c1.7-1.04,1.12-2.67,0.43-4.08c-3.16-6.43-4.73-13.56-8.6-19.67
		c-1.42-2.23-1.66-4.53,0.21-6.61c2.92-3.24,6.1-6.23,8.69-9.78c0.83-1.14,2.1-1.65,3.45-0.88c1.02,0.58,0.93,1.9,1.49,2.81
		c-0.7-0.81-0.65-1.9-1.52-2.82c-2.95-3.11-2.75-7.35-3.14-11.29c-0.19-1.91,0.84-3.25,2.72-3.83c1.62-0.5,2.51,0.05,2.49,1.82
		C669.54,450.64,672.18,460.65,681.31,464.4z"/>
	<path class="st2" d="M589.27,491.97c-2.33,4.68,2.3,6.53,4.02,9.46c2.08,3.54,4.94,6.48-2.45,6.72c-4.09,0.13-5.03,3.05-3.05,6.56
		c2.09,3.72,5.28,6.23,8.93,8.44c5.85,3.55,11.25,7.68,13.05,14.86c0.16,0.63,0.28,1.3,0.27,1.94c-0.11,4.77-7.23,5.68-6.15,11.13
		c-2.52,0.04-3.26-1.73-3.84-3.71c-1.73-5.83-3.36-11.4-7.46-16.51c-2.79-3.47-6.31-4.22-9.36-6.4
		c-11.35-8.1-22.76-16.11-34.76-23.25c0.7-8.09-4.65-12.6-9.18-18.41c-5.71-7.33-11.45-15.25-14.7-24.21
		c-1.73-4.76-3.83-9.19-6.46-13.44c-2.97-4.86-1.79-11.02-4.68-15.77c-3.6-5.92-2.02-13.74-6.2-18.85
		c-4.66-5.69-8.71-11.96-14.28-16.93c-6.9-6.15-9.35-14.23-9.4-23.22c1.27-1.63,3.15-1.27,4.84-1.44c1.54-0.16,3.05-0.33,4.41-1.15
		c3.07-1.87,9.39-15.94,8.57-19.58c-0.73-3.22-1.2-6.47-1.51-9.73c-0.26-2.8,0.63-5.3,3.19-6.63c2.98-1.55,4.34,1.07,6.11,2.75
		c1.39,1.31,2.71,2.6,3.57,4.3c-2.84,6.36-1.92,10.47,3.45,15.45c1.46,1.35,0.35,10.97-1.88,11.5c-6.09,1.45-4.57,7.05-6.61,10.61
		c2.5-1.05,2.42-3.32,2.6-5.56c0.4-5.03,1.98-5.63,6.61-2.61c0,0.38-0.01,0.76-0.03,1.14c1.82,1.51,1.12,3.74,1.55,5.4
		c-0.2-1.62-0.19-3.47-0.22-5.33c0.14-0.17,0.32-0.51,0.41-0.49c10.17,2.63,17.57,17.01,13.31,25.96c-0.43,0.9-1.33,2.04-2.17,2.2
		c-1.68,0.32-2.04-1.37-2.4-2.57c-0.84-2.83-1.53-5.71-3.56-8.48c-0.22,4.81-0.44,9.62-0.75,16.36c-3.3-5.6-1.3-10.57-5.7-15.73
		c1.33,9.41-0.3,17.38,3.11,24.67c1.43,3.07,2.13,5.46,0.73,8.58c-2.5,5.57-0.84,9.85,4.63,12.49c3.11,1.5,4.17,3.73,3.08,6.94
		c-0.98,2.89-0.57,5.59,0.72,8.27c3.03,6.32,5.84,12.76,9.06,18.98c2.85,5.51,5.16,5.66,9.49,1.18c0.76-0.78,1.53-1.62,2.46-2.15
		c7.01-3.96,8.77-9.71,6.64-17.31c-0.9-3.22-2.06-7.71,4.38-6.45c2.19,2.1,1.97,5.16,2.89,7.75c0.94,5.4,0.69,10.63-1.91,15.52
		c-1.15,2.16-1.95,4.05,0.69,5.63c3.28,2.81,5.22,5.39,1.31,9.64c-2.47,2.69,1.42,5.71,1.57,8.93c0.22,4.75,6.7,8.76,11.47,8.15
		c2.16-1.06,1.48-2.9,1.14-4.52c-0.62-2.88-0.46-5.64,2.73-6.56c3.16-0.91,5.61,0.56,6.77,3.8
		C588.54,490.91,588.85,491.47,589.27,491.97z"/>
	<path class="st2" d="M515.72,340.53c2.06,1,4.83,3.49,3.91-1.83c-0.11-0.64-0.47-1.24-0.5-1.87c-0.16-2.92,0.48-6.26,2.52-7.74
		c2.61-1.89,3.47,2.2,5.36,3.27c3.37,1.9,5.59,4.64,6.18,8.63c0.22,1.49,1,3.21,2.76,3.18c2.13-0.04,2.54-2.16,2.98-3.74
		c0.69-2.49,1.05-5.07,1.56-7.61c3.06,7.9,10.95,12.3,14.48,19.92c0.48,1.03,2.7,4.32,4.32-0.08c0.98-2.66,2.48-0.47,3.33,0.44
		c3.63,3.95,5.69,9.18,10.31,12.36c1,0.69,1.87,2.15,0.7,3.39c-1.2,1.26-2.52,0.45-3.31-0.63c-3.88-5.3-7.61-5.44-11.32,0.13
		c-0.92,1.06-1.78,0.73-2.61-0.13c-3.01-5.59-10.41-7.4-18.91-4.76c-4.32,1.34-8.71,2.46-13.14,3.7c-1.44-4.22,3.26-5.21,3.48-8.66
		c-3.8-0.9-7.03-2.95-9.67-5.89c-7.72,1.65-4.81-4.53-5.78-7.85C513.39,343.27,513.66,341.19,515.72,340.53z"/>
	<path class="st2" d="M581.43,506.41c-7.85-2.43-11.92-10.01-18.76-13.85c-0.72-0.4-1.44-2.33-1.09-2.85
		c3.29-4.94-2.03-5.46-4.15-8.1c1.56-2.51,7.68-3.08,4.25-8.09c0.53-7.89-1.74-15.78-0.03-23.67c0.01-2.63,0.01-5.26,0.02-7.89
		c5.4,2.47,6.28,8.07,8.71,12.6c1.1,2.05,1.27,4.82,3.88,5.74c0.96,0.34,1.54-0.74,1.59-1.62c0.17-2.98,1.37-6.54-1.61-8.51
		c-2.88-1.9-4.43-4.08-4.4-7.42c0.01-1.52-0.01-3.26,1.89-3.73c1.42-0.36,2.67,0.55,3.33,1.66c1.78,2.99,3.35,6.12,5,9.19
		c2.22,0.32,2.41,2.57,2.2,3.68c-0.79,4.23,2.86,6.99,3.09,10.78c1.34,3.75,0.73,10.34,7.99,4.56c1.97-1.57,3.25,1.36,2.97,3.42
		c-0.42,2.98-1.24,5.89-1.89,8.84c-1.27,1.39-2.55,2.78-3.82,4.16c-3.64,3.6-10.73,3.27-13.24-1.06c-1.75-3.03-4.34-5.99-3.25-10.15
		c0.41-1.57-1.6-2.36-2.33-3.64c3.75,2.66,2.62,6.63,1.32,9.37c-3.52,7.43-0.66,12.49,4.65,17.31
		C580.4,499.54,583.03,502.2,581.43,506.41z"/>
	<path class="st2" d="M560.23,385.36c1.55-0.65,2.18-2.81,4.64-2.64c0.48,4.43,0.86,9.67-2.92,12.01
		c-5.36,3.31-10.55,8.12-17.63,7.42c-2.07-0.21-4.71-1.18-4.68-3.85c0.07-7.74-2.54-15.06-3.2-22.66c-0.2-2.35,0.6-4.64,3.38-4.68
		c2.59-0.04,2.1,2.23,2.09,3.95c-0.47,3.34,2.15,5.3,3.56,7.76c1.51,2.63,2.67,0.22,4.05-0.45
		C555.62,379.24,557.42,379.81,560.23,385.36z"/>
	<path class="st0" d="M515.59,344.61c0.02,2.93-0.1,5.92,2.57,8c1.42,5.37-1.95,10.36-1.22,15.68c-4.01,2.86-2.47,7.9-4.52,11.67
		c-1.89,3.46-3.16,4.92-6.45,1.95c-0.64-0.58-1.3-1.28-2.08-1.55c-5.73-2.02-5.91-2.7-0.75-7.28c4.42-3.93,9.71-8.42,12.34-14.28
		c-1.83-2.86-4.76,3.41-6.26-1.55c-2.88-9.53-2.43-14.62,2.42-17.81C515.24,339.4,513.83,343.22,515.59,344.61z"/>
	<path class="st0" d="M560.23,385.36c-6.32-2.1-3.13,3.36-4.47,6.41c-2.53-5.64-5.21-6.89-7.94-1.01c-0.44,0.95-1.25,1.8-2.59,1.08
		c-2.54-1.37-5.1-14.31-3.33-16.94c0,0,0.01-0.02,0.01-0.02c3.62,0.57,7.16,0.51,10.44-1.43c1.15-1.9,6.15-0.82,4.05-5.23
		c0.87,0.04,1.74,0.08,2.61,0.13C565.09,373.61,560.23,379.66,560.23,385.36z"/>
	<path class="st2" d="M570.99,420.05c-3.32-1.33-7.74-0.06-9.12-4c-0.91-2.61,5.64-9.1,8.43-8.58c6.35,1.18,0.91,6.97,3.66,10.24
		C575.89,420.01,571.89,418.97,570.99,420.05z"/>
	<path class="st2" d="M585.35,464.31c-9.35-2.04-5.13-9.05-5.29-14.46C586.3,452.61,588.65,459.02,585.35,464.31z"/>
	<path class="st2" d="M595.67,453.7c0.14,3.05,0.28,6.09,0.42,9.14c-0.37,0.21-0.88,0.71-1.1,0.6c-4.66-2.26-8.05-13.59-5.69-18.86
		C592.54,446.83,594.21,450.19,595.67,453.7z"/>
	<path class="st0" d="M518.24,369.5c0.97,2.84,2.01,5.67,2.89,8.54c0.38,1.23,0.56,2.76-1.05,3.26c-1.81,0.56-3.15-0.75-3.27-2.25
		c-0.24-3.18,0.03-6.41,0.09-9.62C517.36,369.45,517.8,369.48,518.24,369.5z"/>
	<path class="st2" d="M552.35,373.45c-2.84,5.16-6.48,4.42-10.44,1.43C545.3,373.72,548.27,369.52,552.35,373.45z"/>
	<path class="st2" d="M515.59,344.61c-1.32-1.73-2.64-3.45-3.96-5.17c-1.08-0.72-2.18-1.42-3.25-2.17
		c-3.94-2.79-5.03-0.88-4.67,2.95c0.2,2.15,0.44,4.4,1.26,6.36c2.3,5.55,4.35,10.8-3.1,14.23c-0.79,0.36-1.2,1.76-1.57,2.75
		c-3.88,10.21-4.97,10.87-15,8.79c-3.73,4.74-7.94,3.43-12.28,1.01c-0.24-4.57-0.78-9.3,4.17-12.15c0.58-0.33,1.02-1.07,0.63-1.65
		c-2.77-4.13-3.9-9.93-8.94-11.82c-5.56-2.09-9.76-5.46-12.55-10.35c-1.07-1.87-2.27-1.5-3.57-1.91c-5.98-1.91-9.11-4.59-9.34-7.97
		c1.77-1.37,3.55-2.73,5.32-4.1c0.62-0.65,0.78-1.38,2.13-1.65c6.56-1.33,6.53-1.5,4.41-8.56c2.86-2.84,7.85-0.33,10.33-4.12
		c1.55-1.81,3.22-1.37,5.23-0.67c10.01,3.49,19.63,7.95,29.73,11.27c4.77,1.57,7.35,7.28,9.62,12.12c1.84,2.92,3.68,5.84,5.51,8.76
		C515.68,341.89,515.64,343.25,515.59,344.61z"/>
	<path class="st9" d="M510.21,331.78c-7.7-8.49-17.91-11.78-28.62-14.47c-5.81-1.46-11.21-4.38-15.96-8.24
		c-7.34-0.23-8.61-8.43-14.33-11.03c-1.69-0.76,0.43-2.67,1.84-3.13c3.09-1.02,6.21-1.88,7.18-5.36c2.05,0.9,2.02,1.97,1.81,3.08
		c-1.07,5.67,0.9,8.37,6.69,8.92c6.15,0.58,12.07-0.42,17.71-2.97c1.31,1.72,2.61,3.45,3.92,5.17c4.23,2.06,5.52,6.99,9.27,9.47
		c0.72,0.48,2.08,2.18,2.79-0.23c1.32-2.88,3.06-4.36,5.66-1.32c2.33,2.71,8.69,3.78,4.71,9.27
		C510.38,324.39,509.48,327.76,510.21,331.78z"/>
	<path class="st2" d="M474.69,268.48c5.78,5.15,11.55,10.3,17.33,15.46c-1.38,4.82,2.09,8.5,3.06,12.92
		C485.14,289.54,478.5,280.03,474.69,268.48z"/>
	<path class="st2" d="M502.5,313c1.33,0.75,2.67,1.49,3.99,2.26c1.91,1.12,3.36,2.85,1.61,4.73c-1.94,2.09-2.88-0.69-4.06-1.63
		c-5.25-4.19-11.28-7.68-13.59-14.61C497.09,303.41,498.94,309.31,502.5,313z"/>
	<path class="st2" d="M758.95,519.77c-1.77-9.31-10.5-9.86-16.93-13.02c-3.3-1.62-6.78-2.97-10.03-4.76
		c-5.62-3.1-11.51-3.79-16.66,0.26c-3.91,3.08-5.9-1.54-8.93-1.12c0,0,0,0.02,0,0.02c-0.89-3.39-1.88-6.64-4.76-9.1
		c-4.91-4.21-2.8-10.76-4.8-16.04c-0.9-2.39,2.37-2.97,4.59-2.32c2.15,0.63,3.64,2.37,5.28,3.79c5.69,4.92,11.99,7.02,19.38,4.52
		c2.36-0.8,4.29-0.6,5.28,2.05c3.1-0.33,6.34-2.18,9.84,1.29c-4.17,1.85-7.99,3.54-12.43,5.51c3.23,2.97,6.63,2.15,9.71,2.32
		c3.72,0.2,7.46-0.05,11.17,0.19c2.43,0.16,6.2-1.05,6.72,2.18c0.46,2.85-3.82,1.88-5.8,3.55c2.68,2.52,4.65,5.98,8.71,2.32
		c0.85-0.76,2.5-0.92,2.99,0.01c3.12,5.83,10.74,5.61,14.32,10.99c1.91,2.87,4.49,5.46,1.87,8.67c-2.89,3.54-6.66,2.46-10.06,0.32
		c-1.1-0.69-2.08-1.61-3.03-2.52C762.85,516.42,760.77,517.05,758.95,519.77z"/>
	<path class="st2" d="M602.44,398.52c5.16,2.77,6.13,9.7,11.84,11.93c2.43,2.74,8.54,4,3.13,9.72c-1.71,1.81,0.5,4.98,1.41,7.41
		c2.44,6.46,4.12,12.96,1.56,19.8c-0.45,1.2-0.8,2.83-2.42,2.61c-0.86-0.12-1.94-1.16-2.28-2.04c-1.28-3.36-6.16-5.24-3.33-10.43
		c1.51-2.76-2.54-5.08-3.73-7.8c-2.46-5.59-3.71-11.17-3.52-17.15C605.28,407.67,604.4,403,602.44,398.52z"/>
	<path class="st2" d="M634,480.02c-3.54,1.23-4.92-0.57-5.32-3.77c0.03-10.94,0.05-21.87,0.09-32.81c0.01-4.19,0.33-8.32,2.62-12.02
		l0.01,0c3.96,1.24,3.02,5.11,3.95,7.82c3.91,11.37,3.37,23.6,6.49,35.16c0.57,2.12-0.15,4.05-3.41,3.74
		C637.09,478.02,635.31,478.96,634,480.02z"/>
	<path class="st0" d="M602.43,436.71c2.78,3.21,4.31,7.08,5.25,11.11c0.58,2.48-0.51,5.1-2.58,6.27c-1.74,0.98-2.85-1.49-4.03-2.61
		c-5.76-5.43-5.31-9.65,1.41-14.8L602.43,436.71z"/>
	<path class="st0" d="M602.47,436.67c-2.9-2.35-3.79-5.54-4.33-10.71c4.12,3.71,3.97,7.33,4.28,10.75
		C602.43,436.71,602.47,436.67,602.47,436.67z"/>
	<path class="st2" d="M634,480.02c3.33-3.2,3.28-6.77,2.51-11.24c-2.14-12.38-3.46-24.89-5.1-37.35c0.81-0.69,1.61-1.38,2.42-2.08
		c3.57,6.71,6.25-1.1,9.44-0.57c8.21,0.91,15.52,3.26,19.78,11.26c0.94,1.77,1.25,3.04-0.06,4.55c0,0-0.51,0.32-0.51,0.32
		c-3.12,6.65,0.12,12.12,3.25,17.61c1.07,1.88,4.83,3.5,2.28,5.76c-2.04,1.8-4.53-0.67-5.66-2.84c-1.72-3.31-2.74-2.05-5.25-0.45
		c-7.02,4.5-3.36,9.96-1.64,14.81c1.79,5.05,2.63,10.52,6.19,15c1.83,2.3,4.39,5.59-0.04,8.31c-4.52,2.77-10.81,2.08-12.85-1.74
		c-1.21-2.26-2.4-4.95-2.32-7.41C646.72,485.13,641.77,481.42,634,480.02z"/>
	<path class="st2" d="M662.98,444.58c-4.08-5.52-7.79-11.41-15.88-11.68c-1.91-0.06-3.1-2.23-3.84-4.12
		c-0.84-1.76-1.65-3.53-2.51-5.27c-0.9-1.82-1.8-3.74,0.09-5.37c2.11-1.83,3.55-0.04,5.01,1.27c4.21,3.77,8.97,6.89,12.24,11.73
		c1.96,2.89,5.11,4.7,8.01,6.67c1.17,0.8,4.22,0.86,2.66,3.43C667.58,443.19,666.73,446.68,662.98,444.58z"/>
	<path class="st0" d="M535.34,545.88c6.96,3.59,8.67,8.32,4.84,14.69c-1.99,3.31-4.74,6.16-7.11,9.24
		c-1.33,1.72-2.66,0.76-4.03,0.13c-2.12-0.98-3.88-0.47-4.97,1.57c-1.23,2.31,0.16,3.64,2.07,4.65c-2.78,1-5.13-0.08-7.4-1.54
		c-2.06-1.33-4.36-2.59-6.76-2.04c-4.56,1.05-8.28,0.07-12.24-2.48c-3.53-2.28-7.32-0.14-10.37,2.02
		c-5.03,3.55-10.24,2.83-16.06,2.92c-14.06,0.21-27.61-7.33-41.86-2.35c-2.86,1-5.88,0.24-7.62-2.42c-3.8-5.81-7.18-5.33-10.76,0.15
		c-0.54,0.83-1.79,1.2-2.71,1.78c-9.49-0.62-14.27-5.72-15.19-15.16c-0.31-3.22-2.48-5.96-5.86-7.2c-2.2-0.47-2.48-2.06-1.13-3.28
		c2.68-2.41,3.9-5.77,6.1-8.48c4.48-5.5,6.82-5.5,10.57,0.44c0.66,1.05,0.8,2.45,2,3.41c2.52-2.55,0.77-8.23,6.39-8
		c3.26,0.13,2.5,3.21,3.8,4.76c0.38,0.79,0.71-0.89,0.25-0.14c-0.2,0.33-0.41,0.28-0.59-0.18c-2.3-5.72-5.16-11.2-3.14-17.86
		c1.36-4.47,3.47-7.37,8.18-7.91c-2.63-0.82-5.52-1.76-4.91-5.47c0.59-3.52,2.08-5.79,6.43-6.4c4.04-0.57,7.96-1.43,12.12-1.71
		c5.72-0.38,7.8,2.22,8.49,7.03c0.4,2.8,1,4.84,4.59,4.68c3.68-0.17,6.06,2.04,7.42,5.37c1.64,2.2,2.73,4.5,1.23,7.22
		c2.71-4.68,5.03-5.41,7.85-1.34c4.49,6.5,9.87,12.87,8.99,21.74c-0.3,3.04,0.56,6.01,1.21,9.42c-0.08,0.38,0.95-0.67,0.09-0.5
		c-0.31,0.06-0.47-0.15-0.26-0.49c5.52-8.87-1.64-15.03-4.79-21.98c-2.17-4.79-5.66-8.84-3.89-14.98c1.9-6.62,2.49-7.53,9.23-5.73
		c1.47,0.39,3.06,0.15,4.46,0.92c1.77,4.17,4.97,7.71,5.21,12.64c0.09,1.77,2.05,2.93,4.25,2.15c0.66-0.28,1.3-0.25,1.93,0.05
		c1.41,0.87,1.28,2.6,2,3.87c1.98,3.5,0.95,8.68,5.4,10.79c5.61,2.66,11.9,3.53,17.87,3.04
		C523.33,542.38,529.19,544.53,535.34,545.88z"/>
	<path class="st0" d="M102.8,595.99c0.06,1.5-0.42,2.71-2.13,2.52c-1.75-0.19-2.51-1.58-2.67-3.19c-0.14-1.43,0.32-2.77,2.05-2.55
		C101.74,592.99,102.45,594.42,102.8,595.99z"/>
	<path class="st10" d="M74.31,574.43c-0.71,0.57-1.16,1.23-1.6,1.22c-0.98-0.01-1.43-0.86-1.49-1.76c-0.07-0.98,0.42-1.82,1.46-1.42
		C73.32,572.72,73.69,573.64,74.31,574.43z"/>
	<path class="st0" d="M453.78,519.57c-5.33-3.72-11.18-6.83-12.77-14.11c-0.85-3.89-4.51-3.46-7.57-3.67
		c-4.3-0.29-8.35,0.24-11.54,3.48c-0.85,0.86-0.8,2.71,0.3,2.69c9.17-0.23,4.01,6.31,4.8,9.97c0.11,0.52-0.41,1.17-0.64,1.77
		c-8.04-3.51-8.3-3.36-9.3,5.33c-0.63,5.48,0.74,10.43,4.18,14.72c1.56,1.95,3.65,4.08,0.89,6.1c-3.15,2.31-3.94-1.07-5.13-2.99
		c-0.9-1.46-1.3-3.3-3.54-4.24c-1.4,1.99-1.95,4.33-1.24,6.55c1.02,3.17-0.5,4.53-3.03,5.47c-2.59,0.95-4.26-0.51-5.42-2.51
		c-0.87-1.48-1.39-3.18-1.96-4.82c-0.53-1.51,0.34-4.18-2.11-4.1c-2.03,0.07-3.93,2.71-3.49,4.17c2.19,7.32-3.55,5.47-6.9,6.43
		c-2.19,1.96-4.56,2.66-7.12,0.76c-2.92-2.17-3.52-5.53-2.02-8.26c3.64-6.63,1.53-10.83-4.31-14.61c-3.24-2.1-4.93-5.57-4.31-9.69
		c0.24-1.59,0.96-3.01,2.64-3.46c1.88-0.5,2.96,0.69,3.36,2.31c0.73,2.92,2.07,4.88,5.45,4.2c3.89-0.78,3.99-4.02,3.5-6.73
		c-2.05-11.2-2.02-22.87-4.83-33.67c-1.94-7.46-4.67-14.66-5.46-22.51c-0.34-3.38-2.1-6.83-6.59-6.99c-0.92-0.7-1.96-1.34-1.26-2.77
		c0.29-2.45-0.28-4.73-1.55-6.81c-3.37-5.54-0.74-6.28,4.19-5.37c1.69,0.31,3.43,0.32,5.15,0.47c5.93,8.86,13.13,16.6,21.12,23.61
		c2.57,5.73,6.51,10.66,10.39,15.42c2.33,2.86,3.53,5.36,3.39,8.87c-0.1,2.6-0.28,5.6,2.85,6.6c1.56,0.5,4.94,3.06,4.25-2.27
		c-0.35-2.7,2.02-4.27,4.78-3.54c1.93,0.51,3.86,0.46,5.77,0.83c0.82,0.46,1.46,1.13,1.99,1.89c3.37,3.04,5.44,8.27,11.41,6.99
		c1.54-0.33,2.03,0.86,2.39,1.62c2.76,5.93,6.25,11.36,10.18,16.58C456.08,515.16,456.36,517.8,453.78,519.57z"/>
	<path class="st11" d="M292.83,572.48c-0.68,4.26-0.17,8.8-3.59,12.31c-5.3,5.43-11.14,4.24-13.24-3.08
		c-1.19-4.14-2.12-5.34-5.88-1.85c-5.21,4.84-20.96,2.69-24.5-3.31c-2.36-3.99,1.27-5.04,4.19-6.21c8.56-3.42,17.51-2.33,25.33,0.72
		c6.23,2.43,10.84,7.64,13.15-3.16c0.2-0.94,1.8-1.31,2.87-0.71C293.31,568.4,292.81,570.54,292.83,572.48z"/>
	<path class="st2" d="M368.35,448.41c0.42,0.92,0.84,1.85,1.26,2.77c-0.5,0.84-1,1.67-1.5,2.51c-9.9-4.01-19.67-8.2-26.01-17.51
		c-1.38-2.03-3.05-4.23-1.45-6.53c1.77-2.56,4.41-1,6.55-0.2c3.72,1.41,6.82,3.68,9.21,7C359.74,441.06,363.7,445.09,368.35,448.41z
		"/>
	<path class="st2" d="M313.24,460.36c-4.42,1.34-6.8,0.47-8.35-2.26c-0.31-0.55,0.15-2.23,0.31-2.23
		C308.38,455.73,310.14,458.07,313.24,460.36z"/>
	<path class="st0" d="M322.73,416.72c-1.26-0.17-1.8-0.83-1.84-1.75c-0.05-0.98,0.49-1.69,1.55-1.46c0.95,0.21,1.38,1.07,1.22,1.97
		C323.57,415.98,322.99,416.38,322.73,416.72z"/>
	<path class="st0" d="M137.66,556.33c-2.76-0.23-5.41-0.06-6.44-2.86c-0.89-2.42,0.61-4.17,2.25-5.67c2.24-2.04,4.46-4.12,6.89-5.92
		c1.27-0.94,2.97-0.8,4.26,0.29c1.57,1.32,0.92,2.7-0.22,3.93c-0.9,0.98-1.87,1.92-1.12,3.41
		C146.97,556.83,140.73,555.32,137.66,556.33z"/>
	<path class="st0" d="M136.03,599.73c-0.46,0.92-0.65,1.88-1.23,2.31c-1.04,0.77-2.18,0.19-2.9-0.66c-2.39-2.81-4.73-5.66-6.97-8.6
		c-0.68-0.89-0.72-2.23,0.33-2.92c0.59-0.39,1.82-0.49,2.38-0.12C131.42,592.17,133.52,595.99,136.03,599.73z"/>
	<path class="st0" d="M108.2,540.02c-0.14,1.35-1.1,1.8-2.22,1.82c-1.34,0.03-2.69-0.3-2.72-1.97c-0.02-1,0.97-1.36,1.84-1.43
		C106.43,538.35,107.72,538.43,108.2,540.02z"/>
	<path class="st0" d="M113.93,438.36c-0.26,1.89-1.23,2.65-2.63,2.73c-1.06,0.06-1.65-0.73-1.16-1.65c0.51-0.95,0.46-2.69,2.14-2.45
		C112.94,437.09,113.49,437.97,113.93,438.36z"/>
	<path class="st2" d="M373.59,390.61c-0.13-3.94-0.2-7.88-0.4-11.81c-0.18-3.52-1.81-5.92-5.61-5.92
		c-5.88,0.01-11.04-1.49-14.92-6.23c-1.18-1.44-3.02-1.66-4.73-2.06c-2.46-0.59-3.2-2.07-2.2-4.41c2.39-0.38,4.33-1.36,5.79-3.45
		c4.62-6.6,10.75-7.54,16.85-2.15c2.13,1.89,4.3,1.86,6.66,2.18c1.39,5.7,0.62,11.89,3.76,17.22c-0.02,0.87-0.38,1.62-0.81,2.35
		c-0.81,1.38-1.33,2.75-0.51,4.37c0.13,0.26,0.07,0.26-0.06-0.33c-0.49-2.26,1.1-2.85,2.59-3.61c6.22-1.27,9.16,4.06,13.37,6.75
		c1.36,0.87,2.23,2.56,3.19,3.97c1.83,2.48,2.46,5.54,3.35,8.34c0.81,2.54,1.11,6.24-3.82,5.49c-2.67-2.35-3.42-6.56-6.96-7.46
		c-1.18-0.69-0.58,0.85-0.44-0.01c0.05-0.32,0.23-0.36,0.56-0.16c3,1.8,4.59,4.81,6.46,7.58c-0.46,2.73-2.17,1.95-3.81,1.37
		c-1.73-0.94-3.46-1.88-5.19-2.81c-3.99-0.87-5.96-4.66-9.3-6.46C376.12,392.44,374.85,391.52,373.59,390.61z"/>
	<path class="st0" d="M419.58,476.17c2.79,0.5,5.58,1,8.36,1.51c1.5,0.27,3.24,0.37,3.82,2.05c0.67,1.91-0.93,2.73-2.28,3.43
		c-2.75,1.41-2.8,3.61-2.02,6.14c-6.43,0.36-6.43,0.36-1.81,8.63c-4.92-2.69-10.22-2.04-15.39-2.59c-3.87-0.42-5.02-3.25-3.74-6.77
		c1.77-4.87,0.43-8.93-2.66-12.77c-3.64-4.52-5.69-9.77-6.6-15.48c3.86,4.37,8.65,7.8,11.87,12.89
		C411.42,476.8,415.39,477.63,419.58,476.17z"/>
	<path class="st2" d="M394.55,399.86c2.65-1.26,2.96-3.12,1.78-5.7c-0.86-1.88-1.23-3.98-1.81-5.99c0.02-1.83-1.43-4.17,1.7-4.93
		c2.23-0.54,3.31,0.95,4.69,2.3c1.06,1.04,2.01,2.12,2.9,3.28c-0.68,7.74,3.74,11.79,9.92,15.51c4.51,2.72,6.84,8.1,9.66,12.59
		c2.05,3.26,3.06,7.12,6.64,9.4c0.58,0.37,2.09,2.09,0.81,3.67c-1.05,1.29-2.25,0.92-3.5,0.44c-3.71-2.23-8.08-3.08-10.53-7.7
		c-1.38-2.59-6.32,0.8-9.04-1.85c0.15-3.43,0.94-6.88-0.24-10.28c-0.51-1.49-1.23-2.84-2.91-3.17c-2.82-0.56-1.35,2.65-3.11,3.53
		c-2.56-3.48-5.94-6.09-9.62-8.34c0.9-0.93,1.81-1.86,2.71-2.79C394.59,399.84,394.55,399.86,394.55,399.86z"/>
	<path class="st2" d="M338.4,406.2c3.71,1.54,7.09,3.42,8.6,8.43C341.63,413.56,340.27,409.61,338.4,406.2z"/>
	<path class="st2" d="M377.38,393.35c3.79,1.16,6.85,3.37,9.3,6.46C381.46,400.72,379.87,396.39,377.38,393.35z"/>
	<path class="st2" d="M372.25,359.08c-2.82-1.09-5.57-2.65-8.5-3.14c-2.66-0.44-7.3-3.31-6.52,3.71c0.34,3.11-3.29,1.47-5.01,2.17
		c-2.28,0.93-4.72,0.46-6.5-1.63c0.07-1.7,2.08-3.6-0.75-4.98c-5.96-2.91-8.96-8.83-13.34-13.34c1.87-4.3,5.71-6.49,9.72-5.28
		c4.98,1.51,8.79-0.14,12.53-2.41c1.76-1.06,3.51-1.86,5.39-2.44c3.21-0.98,5.35,0.26,5.32,3.65c-0.04,4.16,2.22,6.07,5.78,7.12
		c4.38,3.74,4.24,9.24,5.33,14.2C376.25,359.24,374.82,360.34,372.25,359.08z"/>
	<path class="st12" d="M368.35,343.15c-1.78-0.43-3.61-1.31-4.02-3.01c-1.74-7.18-6.03-4.96-11-3.96c-7.38,1.48-14,5.67-21.71,5.68
		c-0.46-4.16-2.17-7.25-6.76-7.86c-1.02-2.18-2.19-4.3-3.03-6.55c-0.65-1.75-1.87-3.89,0.6-5.22c1.79-0.97,3.52-0.91,5.46,0.47
		c3.92,2.79,8.01,5.3,11.12,9.07c4.21,5.1,8.85,5.22,13.54,0.78c2.39-2.26,4.98-3.33,8.27-3.23c3.98,0.12,7.89-0.14,5.98,5.96
		c-0.61,1.94,0.76,3.79,1.58,5.58C369.35,341.65,369.5,342.41,368.35,343.15z"/>
	<path class="st2" d="M323.67,365.46c0-0.22-0.02-0.44,0-0.65c0.2-2.7-0.62-7.06,2.62-6.98c3.02,0.07,5.8,3.46,7.09,6.92
		c0.58,1.55,0.16,2.48-1.66,2.59c-2.85,0.18-5.68,0.37-8-1.79C323.72,365.55,323.67,365.46,323.67,365.46z"/>
	<path class="st2" d="M443.42,327.5c3.03,3.39,6.2,6.41,10.75,2.27c2.42-2.2,3.3,0.36,3.61,1.47c2.09,7.57,8.27,11.47,13.8,15.98
		c9.83,8.01,9.95,8.53,4.8,20.19c-0.53,1.19-1.07,2.38-1.6,3.57c-3.3,4.19,1.88,5.79,2.66,8.74c-0.52,8.8-5.08,12.04-12.94,9.07
		c-1.32-0.5-2.46,0.07-3.68-0.09c-0.62,0.03-1.23,0.09-1.84,0.2c-5.57,0.05-7.39-3.57-8.1-8.27c0.45-0.47,1.01-0.68,1.66-0.63
		c4.2-2.05,5.53-8.55,12.12-7.27c2.14,0.42,2.14-2.85,2.2-4.75c0.15-4.56-0.05-9.13,2.21-13.39c1.27-2.4,0.31-3.12-2.44-3.63
		C456.13,349.03,444.33,336.82,443.42,327.5z"/>
	<path class="st2" d="M439.26,369.52c0.62,3.92,0.24,10.24,5.24,9.37c4.35-0.76,3.54-6.6,1.72-10.67c-0.09-0.2-0.33-0.48-0.27-0.57
		c3.49-5.35,1.82-9.64-2.23-13.97c-1.07-1.14,1.22-2.54,2.82-2.58c4.29-0.1,8.43,0.37,10.31,5.09c0.74,1.86,1.7,3.48,3.09,4.93
		c3.63,3.78,1.14,5.93-2.35,7.19c-7.32,2.63-8.1,4.19-5.04,11.7c0,0-0.1,0.13-0.1,0.13c-2.05,3.44-2.73,8.03-7.64,9.07
		c-4.38-2.28-7.17-6.25-9.71-10.14c-2.34-3.58-1.18-7.36,1.95-10.35C437.93,368.62,438.66,368.89,439.26,369.52z"/>
	<path class="st2" d="M419.3,324.91c5.82-0.35,11.15,1.05,14.15,5.56c3.4,5.1-0.36,10.57-1.96,15.54c-0.94,2.93-4.2,1.32-6.29,0.21
		c-2.78-1.46-5.72-3.26-3.73-7.1C424.17,333.93,421.07,329.95,419.3,324.91z"/>
	<path class="st2" d="M447.37,319.79c0.68-1.99,2.37-4.23-0.36-5.77c-2.98-1.68-2.86,1.32-3.77,2.83c-0.38,0.63-1.37,1.37-1.98,1.28
		c-2.72-0.38-3.91-2.52-4.79-4.82c-1.81-4.7,1.07-7.99,3.74-11.09c1.61-1.87,3.52-0.59,5.22,0.61c4.23,2.97,6.04,7.94,9.6,11.45
		c2.34,2.67,0.11,4.33-1.52,5.84C451.51,322,449.33,321.63,447.37,319.79z"/>
	<path class="st2" d="M439.26,369.52c-0.39,0.05-0.78,0.09-1.17,0.12c-3.43,0.46-5.22-1.98-7.63-3.77c-1.97-1.46-5.09-1.4-7.73-1.92
		c-2.4-1.59-8.59,2.59-7.21-4.74c3.84-0.54,8.5,0.98,10.49-4.18c0.69-1.19,0.71-3.24,3.09-2.06
		C435.96,356.37,440.92,360.9,439.26,369.52z"/>
	<path class="st2" d="M383.83,342.41c-5.04,1.77-9.37-2.26-14.26-1.73c1.34-3.91,2.47-8.07,8.07-7.23
		C382.88,334.24,384.01,337.88,383.83,342.41z"/>
	<path class="st2" d="M362.95,230.08c0.69,2.6,2.31,4.64,3.83,6.78c1.08,1.51,4.27,2.97,1.14,5.2c-2.77,1.98-4.28-0.21-5.67-2.36
		c-2.33-3.64-5.66-5.96-9.86-7c0,0,0.1,0.12,0.1,0.12c2.47-6.86,3.29-7.07,10.55-2.65L362.95,230.08z"/>
	<path class="st2" d="M372.32,245.88c3.54-0.29,6.48,0.34,8.73,2.48c1,0.95,1.32,2.41,0.29,3.46c-0.93,0.94-2.02,0.08-2.83-0.59
		C376.42,249.49,374.39,247.67,372.32,245.88z"/>
	<path class="st2" d="M363.05,230.17c0.07-1.8-1.59-3.55-0.21-5.53c2.58,0.45,5,2.14,4.86,4.26c-0.16,2.54-3.02,1.05-4.75,1.18
		C362.95,230.08,363.05,230.17,363.05,230.17z"/>
	<path class="st2" d="M531.43,489.26c-4.63,5.9,2.48,8.44,3.89,12.55c0.8,2.33,4.07,3.77,6.1,5.74c2.64,2.56,3.62,7.06,1.99,9.01
		c-5.07,6.09-0.34,9.43,2.49,13.52c2.16,2.4,2.1,4.57-1.41,4.9c-7.56,0.71-19.63-9.8-20.92-17.46c-0.16-0.95,1.24-1.67,0.2-2.4
		c1.12-1.5,2.8-2.81,0.55-4.81c-3.64-3.24-5.4-7.87-8.18-11.67c-3.12-4.27-4.9-8.11-3.93-13.4c0.82-4.43-2.83-7.06-4.67-9.55
		c5.39,3.82,5.03,9.9,3.93,16.15c-1.89,2.07-3.77,1.29-5.63,0.02c-1.89-1.28-3.81-1.66-5.83-0.3c-4.38,1.16-4.08-3.5-6.08-4.72
		c3.81,5.04,6.7,11.29,12.69,15.05c2.91,1.82,3.62,4.74,2.88,8.04c-1.91,3.2,0.66,7.4-2.37,10.33c-0.39,2.08,0.71,3.78,1.47,5.59
		c2.4,5.71,1.32,7.1-4.54,6.88c-5.55-0.21-10.4-1.95-14.77-5.25l0,0c-2-0.97-3.44-2.69-4.03-4.63c-1.46-4.79-4.75-8.01-8.38-11.05
		c-4.84-8.1-2.74-16.21,0.44-24.07c2.3-5.69,4.61-11.18,4.86-17.5c0.16-3.93-0.92-6.57-4.09-8.6c-0.15-4.79,0.76-9.25,3.99-12.99
		c5.3-4.11,9.62-0.91,14,1.88c3.37,1.36,7.11-0.16,10.45,1.33c7.8,2.22,12.67,8.27,13.46,16.11c0.68,6.83,3.87,12.33,9.75,16.13
		C531.7,485.34,534.55,486.34,531.43,489.26z"/>
	<path class="st2" d="M531.43,489.26c-4.64-3.21-9.04-6.08-12.9-10.89c-3.1-3.87-3.45-5.54-2.48-9.56c0.89-3.69-0.82-7.18-3.1-10.26
		c-1.52-2.05-3.07-3.12-5.23-0.84c-4.68-6.14-9.81-12.11-7.47-20.76c2.02-4.23,3.99-3.7,6.49-0.22c2.55,3.54,1.62,8.5,4.35,10.71
		c1.19,1.59,1.51,0.05,0.98,0.75c-0.04,0.06-0.15,0.02-0.26-0.16c-3.96-6.36-5.21-13.83-8.33-20.56c-0.86-1.85,1.14-3.05,2.52-4.14
		c3.15-1.41,5.54,0.53,6.37,2.79c2.45,6.67,7.35,11.97,9.75,18.6c5.15,11.28,10.89,22.24,17.46,32.78
		c3.1,4.96,7.93,8.12,11.43,12.59c5.64,7.21,5.6,7.56-2.55,11.11C542.8,497.23,537.12,493.25,531.43,489.26z"/>
	<path class="st0" d="M722.18,516.96c10.75-1.39,21.16-0.9,30.59,5.36c2.23,1.48,3.46,3.13,2.74,5.94
		c-1.4,5.48-12.99,13.08-18.57,12.05c-4.05-0.75-8.09-1.55-12.13-2.33c-1.21-1.05-2.42-0.59-3.54,0.09
		c-2.55,1.54-4.82,3.15-6.27-1.4c-0.5-1.55-3.3,0-4.68-1.29c-0.44-0.44-0.88-0.88-1.32-1.32c-0.6-2.04-2.07-4.31,0.15-6.02
		c2.65-2.04,1.84-3.36-0.27-5.03c-1.58-1.25-1.77-2.99-0.56-4.64c1.21-1.65,2.96-1.82,4.69-1.04
		C716.17,518.75,719.22,519.41,722.18,516.96z"/>
	<path class="st2" d="M642.28,498.14c0.2,2.14-0.37,4.01-2.37,5c-2.3,1.15-4.18,0.28-5.8-1.59c-0.99-1.14-2.14-2.14-3.28-3.14
		c-1.18-1.03-4.07-0.03-3.76-2.71c0.3-2.58,1.15-5.1,1.84-7.62c0.08-0.29,0.65-0.57,1.04-0.65
		C632.38,486.98,642.26,495.58,642.28,498.14z"/>
	<path class="st2" d="M561.65,449.84c-1.22,7.89,4.07,15.78,0.03,23.67C557.95,465.63,560.62,457.74,561.65,449.84z"/>
	<path class="st0" d="M710.33,535.38c5.14-0.86,9.61,1.99,14.48,2.6C719.02,542.5,714.29,541.06,710.33,535.38z"/>
	<path class="st0" d="M771.12,559.11c-0.44,1.97-1.22,3.81-3.65,3.76c-1.49-0.03-3.46-0.48-2.86-2.53c0.56-1.88,2.32-3.15,4.31-3.59
		C770.64,556.36,771.19,557.51,771.12,559.11z"/>
	<path class="st0" d="M505.05,518.18c5.6,2.65,6.53,9.76,12.01,12.58c1.72,0.89,3.57,3.36,4.81,3.03c7.71-2.04,9.04,3.07,10.6,8.46
		c0.29,0.99,1.93,1.59,2.95,2.37c-0.02,0.41-0.04,0.83-0.07,1.24c-11.71,2.07-23.4,0.92-34.96-0.82
		c-6.57-0.99-10.23-7.31-10.03-14.55c0.03-1-0.68-2.03-1.05-3.04c4.3,0.3,8.66,0.25,12.88,1c4.38,0.78,4.51-0.74,2.96-3.99
		C504.16,522.41,504.22,520.29,505.05,518.18z"/>
	<path class="st0" d="M650.52,552.73c-4.17-0.06-6.2-1.87-7.66-4.54c-3.31-6.02-4.81-12.68-6.67-19.2c-0.35-1.23-0.67-2.9,1.07-3.25
		c1.54-0.31,2.11,1.29,2.68,2.44c2.83,5.67,5.6,11.35,8.81,16.85c2.24,3.83,3.54,4.12,5.69,0.4c1.14-1.97,1.27-5.04,4.79-4.2
		c1.13,0.27,2,1.12,2.02,2.32c0.07,2.82-0.82,5.19-3.67,6.36C654.97,550.98,652.34,552.01,650.52,552.73z"/>
	<path class="st0" d="M652.6,517.83c0.17-2.25,0.17-4.91,2.97-4.03c3.78,1.19,7.13,4.09,7.78,7.87c0.5,2.89-3.39,4.01-5.77,3.78
		C653.05,525.03,653.38,520.78,652.6,517.83z"/>
	<path class="st0" d="M481.16,461.5c2.63-1.04,3.73,0.35,3.89,2.68c0.37,5.4,1.67,11.29-0.79,16.07
		c-5.15,9.98-6.73,20.44-6.78,31.37c0.69,0.52,0.67,1.01-0.07,1.47c-5.52-1.21-9.14,2.65-7.06,8.47c1.63,4.55,2.92,9.22,6.63,13.22
		c4.03,4.34,6.96,10.3,2.55,16.65c-1.06,1.52-1.02,3.27-0.73,5.05c0.24,1.49,0.71,3.29-1.29,3.88c-1.81,0.54-2.89-0.81-3.43-2.3
		c-1.87-5.09-4.73-10.04-3.79-15.71c1.39-8.33-5.42-12.4-8.16-18.84c-2.14,1.69-1.23,3.1-1.44,4.32c-0.22,1.31-0.38,2.8-1.95,3.02
		c-1.65,0.24-2.19-1.22-2.56-2.46c-0.87-2.92-1.61-5.88-2.4-8.83c-3.72-6-7.42-12.03-11.2-17.99c-0.67-1.06-1.81-2.75-2.57-2.67
		c-6.44,0.71-8.12-4.71-11.2-8.32c3.31-1.48,5.81-2.51,10-0.05c4.03,2.37,10.06,1.49,15.23,1.72c1.98,0.09,1.84-1.63,1.92-3.33
		c0.21-4.06,0.72-8.13,1.48-12.13c1.05-5.46,4.4-6.49,9.22-3.1c5.1,3.59,7.28,2.94,9.44-2.82c-1.35-2.31-2.44-4.65-0.44-7.17
		C477.15,462.13,478.19,459.42,481.16,461.5z"/>
	<path class="st0" d="M477.42,513.1c0.02-0.49,0.04-0.98,0.07-1.47c6.23,3.57,9.33,9.47,11.82,15.84c-3.03,0.26-5.02-1.34-5.8-3.99
		C482.32,519.46,479.74,516.38,477.42,513.1z"/>
	<path class="st2" d="M478.75,465.61c-0.19,2.11-1.45,3.68-2.65,5.28c-2.43,1.61-4.75,1.7-7.31,0.01c-7-4.61-14.55-5.08-22.56-3.03
		c-6.87,1.76-14.67-4.99-14.28-12.55c0.45-8.74-1.88-16.82-4.62-24.89c-2.72-9.04-8.41-16.24-14.56-23.09
		c-1.86-2.07-4.12-3.92-6.53-5.32c-4.77-2.76-6.13-6.37-3.79-11.36c0.45-0.45,0.9-0.9,1.34-1.34c1.77-2.14,2.9-1.56,4.5,0.51
		c6.6,8.57,15.71,15.01,20.92,24.84c1.47,2.78,5.68,1.66,7.88,4.21c3.6,4.17,5.97,9.36,6.12,14.25c0.14,4.69,2.9,7.94,3.42,11.64
		c-0.95-3.9-4.43-7.6-2.81-12.66c2.01-6.29,6.3-8.11,11.93-4.52c2.03,1.3,3.92,2.72,6.31,3.37c3.4,0.93,4.08,3.21,3.5,6.53
		c-1.27,7.28,0.03,8.57,7.68,9.08c3.16,0.21,7.49-1.45,8.12,4.04c-0.28,1.79-1.42,3.05-2.6,4.3
		C473.76,460.19,473.76,460.19,478.75,465.61z"/>
	<path class="st2" d="M394.59,399.84c-4.11-2.06-7.86-4.6-10.92-8.06c-0.92-1.05-1.4-2.31-0.18-3.45c0.9-0.83,2.22-0.78,2.98-0.01
		c3.34,3.38,8.99,5.18,8.08,11.54C394.55,399.86,394.59,399.84,394.59,399.84z"/>
	<path class="st13" d="M375.83,375.18c1.39,1.26,2.78,2.53,4.18,3.79c0.33,2.78,1.31,5.64-0.78,8.17c-0.62,0.75-1.6,0.96-2.35,0.34
		c-2.78-2.3-2.12-5.51-1.98-8.51C374.96,377.7,375.5,376.45,375.83,375.18z"/>
	<path class="st2" d="M473.4,380.26c3.55,3.85,7.13,7.65,11.48,10.65c1.19,0.82,2.95,1.85,2.27,3.56c-0.75,1.87-2.63,1-4.03,0.65
		c-5.33-1.32-10-4.86-16.25-3.06c-2.68,0.77-5.55-2.09-6.48-5.43c1.21-1.06,1.76-2.43,1.98-4c0.23-1.71,1.02-2.96,2.99-2.6
		c1.62,0.3,2.54,1.37,3.11,2.98c0.51,1.44-2.44,4.5,1.53,4.22c2.58-0.18,3-2.8,3.28-5.02C473.37,381.56,473.36,380.91,473.4,380.26z
		"/>
	<path class="st2" d="M460.38,386.64c-9.73-2.62-10.17-2.24-7.83,7.55c-4.44-0.74-4.77-4.83-6.79-7.24
		c2.23-2.27,4.46-4.55,6.69-6.82C454.82,382.64,459.69,382.09,460.38,386.64z"/>
	<path class="st2" d="M474.9,360.31c-1.44-1.57-1.32-3,0.17-4.31c0.18-0.16,0.98-0.03,1.07,0.17
		C476.94,357.85,476.79,359.3,474.9,360.31z"/>
	<path class="st2" d="M480.14,451.2c-2.91-1.24-5.95-1.16-9.04-1.04c-11.06,0.4-13.97-3.75-9.64-14.11
		c-2.15-0.91-5.2,0.21-6.46-3.03c-0.88-2.25-2.52-5.62-5.72-3.46c-2.99,2.02-4.49,5.56-2.65,9.25c1.66,3.31,3.85,6.36,5.77,9.54
		c0.95,1.58,1.66,3.28-0.21,4.66c-1.84,1.35-3.33,0.38-4.52-1.11c-2.6-3.28-5.71-5.72-5.59-11.07c0.13-5.98-3.09-11.74-5.98-17.17
		c-0.65-1.22-1.82-3.37-3.43-1.91c-3.93,3.55-4.49-0.49-5.4-2.38c-1.92-3.98-4.28-7.63-6.93-11.11c-2.29-3.01-3.92-5.96-8.68-6.94
		c-5.2-1.07-5.38-7.8-7.87-11.98c-2.49-4.35-0.55-11.2-7.81-12.98c-1.68-0.41-1.17-3.12,0.19-4.48c1.89-1.88,3.86-3.25,6.89-1.67
		c4.39,2.29,9.2,3.03,14.12,2.12c2.69-0.5,4.64,0.48,6.23,2.51c-1.85,0.48-4.75-1.59-5.34,1.85c-0.42,2.48,1.13,4.19,3.5,4.79
		c6.06,1.54,9.72,6.27,13.96,10.24c-1.07,5.4,3.62,7.04,6.59,9.56c2.5,2.12,5.5,3.64,6.81,6.88c2.14,5.32,6.47,7.25,11.75,8.22
		c7.1,1.3,11.95,5.39,16.52,11.28c4.83,6.23,9.51,14.08,19.31,14.36c1.36,0.04,2.67,1.32,3.5,2.63c2.55,4.74,0.45,6.94-4.14,7.84
		c-3.81-1.59-7.61-3.24-11.91-2.74C481.88,448.09,482.27,452.95,480.14,451.2z"/>
	<path class="st2" d="M426.16,364.29c5.42,7.15,5.42,8.22,0.02,10.54C424.34,371.32,423.89,367.81,426.16,364.29z"/>
	<path class="st2" d="M495.88,452.47c1.26-2.01,2.29-4.07,1.18-6.52c-3.19,0.84-4.05-2.22-5.72-3.65
		c-9.44-8.06-16.69-18.41-26.75-25.85c-2.02-1.49-1.76-3.08-0.29-4.76c3.99-3.72,18.01-7.87,22.39-6.63
		c1.07,4.1,4.03,7.59,3.47,12.25c-0.26,2.18,2.11,3.01,3.52,4.31c4.47,4.11,8.87,8.31,8.72,15.11c-0.53,7.58,5.12,13.6,5.33,21
		C502.77,458.24,499.71,454.49,495.88,452.47z"/>
	<path class="st2" d="M526.16,515.58c-7.74-6.75-12.54-15.37-15.82-24.95c2.21-9.1-6.12-14.96-6.63-23.42
		c4.18,6.07,8.36,12.13,12.54,18.2c0.12,0.18,0.34,0.44,0.29,0.57c-5.32,12.5,7.9,16.94,11.21,25.68c0.89,2.34,3.23,4.06,3.37,6.96
		C528.76,518.53,527.85,516.42,526.16,515.58z"/>
	<path class="st2" d="M499.69,489.58c3.54,5.18,7.08,10.37,10.63,15.55c1.32,2.03,2.57,4.04-1.44,4.27c-0.35-0.13-0.7-0.27-1.05-0.4
		c-0.43-3.31-2.67-5.37-5.04-7.37c-5.55-4.69-10.11-10.25-13.89-16.44c-0.86-1.41-2.28-3.22-0.44-4.68
		c1.61-1.28,3.32-0.04,4.77,0.93C496.24,483.45,497.67,486.76,499.69,489.58z"/>
	<path class="st2" d="M480.14,451.2c1.21-1.02,1.73-2.84,3.6-3.02c0.03,0,0.16,1.01,0.24,1.55c-2.82,3.47-2.27,7.75-2.81,11.77
		c-0.8,1.37-1.61,2.74-2.41,4.11c-2.59,1.15-5.22,4.27-7.94,0.54c-2.39-3.27-0.77-10.33,2.69-12.23
		C475.59,452.78,477.92,452.09,480.14,451.2z"/>
	<path class="st2" d="M508.87,509.4c0.48-1.42,0.96-2.84,1.44-4.27c7.53,5.72,11.23,13.86,13.79,22.86
		C518.61,522.11,511.88,517.35,508.87,509.4z"/>
	<path class="st2" d="M502.4,436.72c-2.13-1.27-3.39-3.31-4.77-5.27c-1.38-1.95-2.57-4.86-4.46-5.48
		c-12.25-4.05-5.83-13.52-6.47-20.92c2.21,1.73,4.41,3.46,6.62,5.19c3.58,5.6,9.32,9.22,13.21,14.54c0,0,0.04-0.1,0.04-0.1
		c5.03,9.52,4.79,20.94,11.25,30.03C509.97,450.79,506.29,443.67,502.4,436.72z"/>
	<path class="st2" d="M464.3,411.69c10.92,11.42,21.84,22.84,32.76,34.26c-3.45,2.74-5.35-0.6-7.04-2.29
		c-4.65-4.63-9.59-8.85-14.82-12.78c-0.83-0.63-2.02-1.48-2.09-2.32c-0.6-6.71-5.8-7.48-10.72-8.29
		c-7.52-1.24-14.78-2.51-17.35-11.32c-0.6-2.07-2.74-2.61-4.64-3.22c-5.09-1.62-5.29-7.08-7.93-10.62c-1.19-1.6,1.71-2.5,3.08-3.42
		C444.29,399.57,454.49,405.35,464.3,411.69z"/>
	<path class="st2" d="M506.52,424.78c-5.12-4.2-10.44-8.21-13.22-14.54C498.29,414.57,503.27,418.9,506.52,424.78z"/>
	<path class="st2" d="M443.5,419.13c3.6,1.72,7.73,1.2,8.03,5.46c0.13,1.81-2.62,2.69-4.08,2.28
		C443.99,425.92,444.28,422.7,443.5,419.13z"/>
</g>
</svg>
